<?xml version="1.0" encoding="UTF-8"?><svg id="_レイヤー_2" xmlns="http://www.w3.org/2000/svg" viewBox="0 0 129.73 37.79"><defs><style>.cls-1{fill:#e9503a;}.cls-2{fill:#fff;}</style></defs><g id="_レイヤー_1-2"><g><g><ellipse class="cls-2" cx="64.87" cy="18.89" rx="63.7" ry="17.73"/><path class="cls-1" d="M64.87,37.79C32.98,37.79,0,30.72,0,18.89S32.98,0,64.87,0s64.87,7.07,64.87,18.89-32.98,18.89-64.87,18.89Zm0-35.46C27.46,2.33,2.33,10.89,2.33,18.89s25.13,16.56,62.54,16.56,62.54-8.56,62.54-16.56S102.27,2.33,64.87,2.33Z"/></g><g><path class="cls-1" d="M22.23,23.79c-.36-.69-.64-1.34-.86-1.97-.22-.63-.39-1.34-.5-2.14-.63-.16-1.27-.26-1.91-.31-.64-.04-1.44-.04-2.39-.01-.87,.9-1.62,1.64-2.25,2.21-.63,.58-1.18,1.04-1.63,1.37-.46,.33-.83,.57-1.11,.7-.29,.13-.51,.2-.67,.2-.63,0-.95-.48-.95-1.44,0-.31,.04-.59,.13-.83,.09-.24,.28-.48,.56-.71,.29-.23,.68-.47,1.19-.72s1.17-.54,2-.87c.4-.16,.7-.31,.92-.44,.22-.13,.43-.29,.65-.46,.65-.54,1.25-1.08,1.81-1.64,.55-.55,1.04-1.1,1.45-1.63,.42-.53,.75-1.03,.99-1.5,.25-.47,.39-.91,.43-1.3,.69-.1,1.33-.2,1.93-.32,.59-.11,1.25-.26,1.96-.44-.16,.59-.28,1.24-.37,1.95s-.13,1.38-.13,2c0,.98,.03,1.84,.1,2.58,.07,.74,.18,1.42,.33,2.02,.15,.6,.34,1.16,.56,1.67,.23,.51,.5,1,.82,1.49l-3.05,.56Zm-1.25-10.18c-.45,.83-.97,1.65-1.56,2.46-.58,.81-1.29,1.6-2.12,2.39,.57-.07,1.12-.11,1.63-.12,.51-.02,1.12,0,1.81,.02v-1.1c0-.47,.02-1.06,.06-1.75,.04-.69,.1-1.33,.18-1.9Z"/><path class="cls-1" d="M42.38,14.78c-.42-.23-.82-.43-1.22-.61-.4-.18-.8-.34-1.21-.48s-.87-.27-1.35-.39c-.48-.12-1.02-.25-1.62-.38-.71,.29-1.4,.73-2.06,1.32-.66,.59-1.25,1.22-1.75,1.91s-.91,1.38-1.22,2.08c-.31,.7-.46,1.31-.46,1.84,0,.18,.1,.4,.31,.65,.21,.25,.48,.5,.82,.73s.73,.44,1.19,.61c.46,.17,.92,.26,1.39,.26,.59,0,1.4-.14,2.43-.43s2.1-.67,3.23-1.14l.47,.66c-.59,.29-1.24,.58-1.93,.87-.69,.29-1.39,.54-2.09,.77s-1.38,.41-2.03,.55-1.24,.21-1.75,.21c-.73,0-1.43-.13-2.1-.38s-1.27-.58-1.79-.97c-.52-.39-.94-.83-1.25-1.32-.31-.49-.46-.97-.46-1.44,0-.73,.25-1.57,.74-2.52s1.22-1.84,2.16-2.67c.95-.83,2.12-1.53,3.51-2.1s3-.86,4.82-.86c.63,0,1.38,.14,2.24,.43,.86,.29,1.82,.72,2.89,1.31l-1.93,1.49Z"/><path class="cls-1" d="M60.52,14.78c-.42-.23-.82-.43-1.22-.61-.4-.18-.8-.34-1.21-.48s-.87-.27-1.35-.39c-.48-.12-1.02-.25-1.62-.38-.71,.29-1.4,.73-2.06,1.32-.66,.59-1.25,1.22-1.75,1.91s-.91,1.38-1.22,2.08c-.31,.7-.46,1.31-.46,1.84,0,.18,.1,.4,.31,.65,.21,.25,.48,.5,.82,.73s.73,.44,1.19,.61c.46,.17,.92,.26,1.39,.26,.59,0,1.4-.14,2.43-.43s2.1-.67,3.23-1.14l.47,.66c-.59,.29-1.24,.58-1.93,.87-.69,.29-1.39,.54-2.09,.77-.7,.23-1.38,.41-2.03,.55s-1.24,.21-1.75,.21c-.73,0-1.43-.13-2.1-.38s-1.27-.58-1.79-.97c-.52-.39-.94-.83-1.25-1.32-.31-.49-.46-.97-.46-1.44,0-.73,.25-1.57,.74-2.52s1.22-1.84,2.16-2.67c.95-.83,2.12-1.53,3.51-2.1s3-.86,4.82-.86c.63,0,1.38,.14,2.24,.43,.86,.29,1.82,.72,2.89,1.31l-1.93,1.49Z"/><path class="cls-1" d="M79.08,13.78c-1.42-.13-2.71-.21-3.85-.23-1.15-.02-2.16-.02-3.05,.01-.51,.69-.97,1.35-1.38,1.98-.41,.64-.81,1.28-1.2,1.93,.26-.15,.47-.27,.64-.37,.17-.1,.34-.21,.52-.34,1.36-.08,2.53-.14,3.5-.17,.97-.03,1.6-.05,1.9-.05h1.51l-1.69,1.88c-1.24-.15-2.4-.23-3.45-.26-1.06-.02-2.15,.02-3.28,.13-.24,.44-.44,.85-.61,1.22-.17,.38-.34,.79-.52,1.25l-2.08,1.15c2.13-.24,4.08-.38,5.84-.4,1.76-.02,3.39,.03,4.89,.16l-1.22,2.08c-1.8-.23-3.72-.34-5.76-.33-2.05,0-4,.13-5.85,.36,.22-.38,.4-.69,.55-.96s.27-.49,.36-.67c.09-.19,.16-.35,.21-.49,.05-.14,.09-.26,.13-.38,.38-1.29,.78-2.46,1.21-3.53,.43-1.06,.92-2.03,1.45-2.91,.43-.16,.86-.33,1.28-.49s.97-.39,1.66-.69c-.4,.02-.92,.06-1.58,.12-.66,.07-1.42,.15-2.27,.25l1.45-1.74c1.46-.18,2.78-.31,3.94-.4s2.23-.15,3.19-.18c.96-.03,1.84-.04,2.64-.02,.8,.02,1.56,.05,2.27,.1l-1.33,1.98Z"/><path class="cls-1" d="M97.55,14.66c-.95-.31-1.74-.56-2.37-.75-.63-.19-1.17-.33-1.62-.44-.44-.11-.83-.17-1.16-.21-.33-.03-.65-.05-.96-.05-.67,0-1.29,.13-1.85,.39s-1.07,.63-1.53,1.1c.14,.15,.29,.28,.46,.4,.17,.12,.4,.26,.7,.42,.3,.16,.68,.33,1.14,.54s1.06,.46,1.79,.77c.83,.34,1.51,.64,2.03,.89,.52,.25,.93,.49,1.23,.7,.3,.21,.5,.41,.62,.59s.18,.37,.18,.56c0,.47-.23,.96-.7,1.46-.46,.5-1.07,.95-1.82,1.37s-1.6,.76-2.55,1.03c-.95,.27-1.91,.4-2.88,.4-.45,0-.95-.03-1.48-.1-.53-.06-1.08-.16-1.65-.28s-1.12-.27-1.67-.44c-.55-.17-1.08-.36-1.57-.58l1.69-1.91c1.21,.42,2.32,.76,3.35,1.02s1.94,.38,2.73,.38c1.64,0,2.99-.53,4.06-1.59-1.01-.54-1.99-1.02-2.93-1.43-.95-.42-1.82-.79-2.61-1.11-.53-.21-.98-.41-1.33-.6-.36-.19-.65-.38-.87-.58-.23-.2-.39-.4-.47-.6s-.13-.44-.13-.7c0-.34,.21-.73,.64-1.18,.42-.44,.98-.85,1.66-1.24,.68-.38,1.46-.71,2.33-.97,.87-.26,1.74-.39,2.61-.39,1.17,0,2.27,.1,3.32,.29,1.05,.2,2.19,.55,3.44,1.05l-1.81,1.76Z"/><path class="cls-1" d="M116.79,14.66c-.95-.31-1.74-.56-2.37-.75-.63-.19-1.17-.33-1.62-.44-.44-.11-.83-.17-1.16-.21-.33-.03-.65-.05-.96-.05-.67,0-1.29,.13-1.85,.39s-1.07,.63-1.53,1.1c.14,.15,.29,.28,.46,.4,.17,.12,.4,.26,.7,.42,.3,.16,.68,.33,1.14,.54s1.06,.46,1.79,.77c.83,.34,1.51,.64,2.03,.89,.52,.25,.93,.49,1.23,.7,.3,.21,.5,.41,.62,.59s.18,.37,.18,.56c0,.47-.23,.96-.7,1.46-.46,.5-1.07,.95-1.82,1.37s-1.6,.76-2.55,1.03c-.95,.27-1.91,.4-2.88,.4-.45,0-.95-.03-1.48-.1-.53-.06-1.08-.16-1.65-.28s-1.12-.27-1.67-.44c-.55-.17-1.08-.36-1.57-.58l1.69-1.91c1.21,.42,2.32,.76,3.35,1.02s1.94,.38,2.73,.38c1.64,0,2.99-.53,4.06-1.59-1.01-.54-1.99-1.02-2.93-1.43-.95-.42-1.82-.79-2.61-1.11-.53-.21-.98-.41-1.33-.6-.36-.19-.65-.38-.87-.58-.23-.2-.39-.4-.47-.6s-.13-.44-.13-.7c0-.34,.21-.73,.64-1.18,.42-.44,.98-.85,1.66-1.24,.68-.38,1.46-.71,2.33-.97,.87-.26,1.74-.39,2.61-.39,1.17,0,2.27,.1,3.32,.29,1.05,.2,2.19,.55,3.44,1.05l-1.81,1.76Z"/></g></g></g></svg>