<?xml version="1.0" encoding="UTF-8"?><svg id="_レイヤー_2" xmlns="http://www.w3.org/2000/svg" viewBox="0 0 54.1 187.31"><defs><style>.cls-1{fill:#fff;}</style></defs><g id="_レイヤー_1-2"><g><path class="cls-1" d="M27.05,187.31c-14.92,0-27.05-12.13-27.05-27.05,0-8.89,4.32-17.13,11.6-22.2-7.28-5.07-11.6-13.31-11.6-22.2s4.32-17.13,11.6-22.2c-7.28-5.07-11.6-13.31-11.6-22.2s4.32-17.13,11.6-22.2C4.32,44.18,0,35.94,0,27.05,0,12.13,12.13,0,27.05,0s27.05,12.13,27.05,27.05c0,8.89-4.32,17.13-11.6,22.2,7.28,5.07,11.6,13.31,11.6,22.2s-4.32,17.13-11.6,22.2c7.28,5.07,11.6,13.31,11.6,22.2s-4.32,17.13-11.6,22.2c7.28,5.07,11.6,13.31,11.6,22.2,0,14.92-12.13,27.05-27.05,27.05ZM27.05,1C12.69,1,1,12.69,1,27.05c0,8.8,4.4,16.94,11.77,21.78,.14,.09,.23,.25,.23,.42s-.08,.33-.23,.42c-7.37,4.84-11.77,12.99-11.77,21.78s4.4,16.94,11.77,21.78c.14,.09,.23,.25,.23,.42s-.08,.33-.23,.42c-7.37,4.84-11.77,12.99-11.77,21.78s4.4,16.94,11.77,21.78c.14,.09,.23,.25,.23,.42s-.08,.33-.23,.42c-7.37,4.84-11.77,12.98-11.77,21.78,0,14.36,11.69,26.05,26.05,26.05s26.05-11.69,26.05-26.05c0-8.8-4.4-16.94-11.77-21.78-.14-.09-.23-.25-.23-.42s.08-.33,.23-.42c7.37-4.84,11.77-12.98,11.77-21.78s-4.4-16.94-11.77-21.78c-.14-.09-.23-.25-.23-.42s.08-.33,.23-.42c7.37-4.84,11.77-12.98,11.77-21.78s-4.4-16.94-11.77-21.78c-.14-.09-.23-.25-.23-.42s.08-.33,.23-.42c7.37-4.84,11.77-12.98,11.77-21.78C53.1,12.69,41.41,1,27.05,1Z"/><path class="cls-1" d="M15.07,38.66c-.15,0-.31-.02-.47-.05-.18-.04-.41-.27-.41-.42-.01-.39,.02-.79,.06-1.18l.02-.2c.02-.18,.02-.35,.01-.53,0-3.03,.14-6.07,.14-9.1,0-.26,0-.52,0-.78v-.44c.02-.76,.02-1.52,.05-2.27l.02-.35c.01-.25,.03-.5,.02-.75,0-.37-.23-.5-.43-.5-.07,0-.14,.01-.21,.04-.55,.17-1.05,.26-1.53,.26-.17,0-.34-.01-.51-.03-.77-.1-1.43-.35-1.97-.74-.44-.32-.87-.68-1.1-1.21-.08-.42-.18-.8-.51-1.1-.01-.01-.06-.06-.02-.11,.02,0,.03,0,.05,0,.04,0,.08,0,.11,.02,1.2,.27,2.36,.06,3.54-.17,2.33-.45,4.46-1.33,6.66-2.17,.26-.1,.49-.19,.72-.19,.21,0,.36,.07,.45,.18,.1,.12,.14,.29,.11,.49-.1,.65-.39,1.21-.88,1.67-.08,.08-.17,.16-.26,.24-.18,.16-.35,.32-.52,.5-.3,.34-.44,.74-.54,1.08-.14,.5-.15,1.02-.15,1.47-.01,.86-.03,1.71-.05,2.57-.03,1.38-.08,2.77-.11,4.15-.02,.72-.03,1.44-.03,2.16,0,.52-.22,1.3,.45,1.43,.14,.03,.28,.04,.41,.04,.42,0,.81-.12,1.06-.21,.59-.21,1.13-.52,1.66-.81l.44-.24c.43-.23,.78-.53,1.13-.82,.15-.13,.23-.32,.22-.54-.01-.27-.15-.53-.37-.69-.8-.57-2.58-1.55-3.55-.96-.04,.02-.07,.04-.11,.06-.11,.05-.15,.06-.17,.06,0,0-.03-.04-.05-.15-.1-.44-.04-.9,.18-1.37,.13-.29,.45-.46,.81-.46,.11,0,.22,.02,.33,.05,.34,.09,.68,.27,1.07,.54l.12,.09c.35,.25,.71,.51,1.16,.63,.27,.07,.54,.11,.81,.11,.13,0,.26,0,.39-.02,.66-.09,.83-.85,.82-1.4-.02-.69-.24-1.28-1-1.35-.08,0-.15,0-.22,0h-.25c-.09,0-.2,0-.31-.03-.3-.08-.52-.27-.64-.56-.08-.18,.03-.41,.15-.63,.14-.25,.33-.47,.54-.7,.1-.12,.21-.23,.31-.36,.14-.18,.18-.4,.11-.59-.15-.39-.64-.47-1.01-.44-.38,.03-.77,.16-1.11,.33-.25,.13-.45,.19-.64,.19-.1,0-.2-.02-.3-.05-.4-.14-.51-.47-.53-.72-.04-.53,.1-1.05,.45-1.69,.04-.08,.06-.09,.06-.09,.02,0,.06,0,.14,.04,.28,.11,.58,.17,.88,.17,.33,0,.67-.07,1.04-.21,.64-.24,1.33-.34,1.99-.14,.38,.12,.74,.36,.91,.73,.48,1.02-.66,1.88-.9,2.79-.06,.22-.13,.47,.08,.7,.14,.14,.31,.21,.53,.21,.07,0,.14,0,.2-.02,.26-.03,.51-.2,.76-.06,.15,.08,.26,.23,.35,.38,.4,.64,.58,1.4,.51,2.15-.08,.78-.53,1.46-.63,2.22-.05,.38-.11,.82,.51,1.12,.53,.26,1.16,.55,1.83,.78,.59,.2,1.11,.38,1.64,.53l.19,.06c.29,.09,.6,.18,.93,.18h.12c.34-.03,.52-.18,.6-.53,.11-.5,.03-1.23-.33-1.61-.58-.61-1.87-.55-2.6-.35-.44,.12-.92,.23-1.41,.32-.08,.02-.16,.02-.23,.02-.24,0-.36-.09-.41-.3-.05-.22,.01-.46,.16-.68,.33-.48,.63-.85,1.05-1.1,.12-.07,.23-.11,.33-.11,.03,0,.06,0,.1,.01,.75,.18,1.53,.21,2.3,.17h.1c.26-.01,.58-.02,.86-.26,.15-.13,.18-.26,.18-.35,0-.12-.05-.25-.16-.34-.87-.8-2.9-.23-3.91-.05-.07,.01-.15,.02-.23,.02-.16,0-.27-.04-.36-.14-.22-.24-.02-.54,.07-.65,.06-.08,.14-.14,.21-.21,.1-.09,.19-.17,.27-.27,.23-.29,.56-.39,1.01-.45,.72-.09,1.45-.02,2.17-.02,.1,0,.2,0,.3-.03,.28-.05,.46-.25,.48-.54,0-.11-.02-.37-.41-.51-.73-.25-1.52-.27-2.28-.2-.39,.03-.77,.09-1.16,.16-.3,.05-.69,.24-.98,.24-.17,0-.34-.09-.39-.15-.06-.09-.1-.31-.01-.44,.39-.54,.96-.75,1.53-.88,.23-.06,.46-.06,.66-.06,.79,0,1.62,.03,2.38-.24,.16-.06,.36-.21,.38-.42,.05-.5-.92-.56-1.26-.57-.83-.02-1.69,.22-2.52,.33l-.29,.04c-.13,.02-.27,.05-.4,.08-.18,.04-.34,.09-.51,.09-.16,0-.32-.03-.47-.06-.09-.02-.11-.04-.12-.04,0,0-.01-.04,.02-.17,.1-.39,.33-.72,.7-.99,.13-.1,.31-.12,.51-.14,0,0,.1-.01,.1-.01,.69-.09,4.26,.2,4.35-.76,.02-.23-.15-.41-.34-.47-1.15-.36-2.75-.16-3.91,.11-.05,.01-.1,.02-.16,.02-.15,0-.31-.04-.44-.08-.07-.02-.13-.07-.15-.12-.02-.04-.01-.09,.02-.15,.25-.48,.56-.94,1.1-1.07,.4-.1,.86-.02,1.26-.02,.58,0,1.16-.05,1.73-.14,.4-.06,.82-.29,.74-.77-.07-.44-.2-.89-.39-1.4-.04-.11-.02-.15,.05-.2,.16-.11,.28-.16,.41-.16,.17,0,.35-.01,.52-.03,.17-.01,.35-.03,.52-.03,.08,0,.17,0,.25,.01,.84,.08,1.37,.3,1.77,.74,.06,.06,.13,.15,.12,.23,0,.07-.08,.14-.14,.19-.21,.18-.3,.43-.25,.75l.02,.1s.02,.07,.02,.1c.01,.59,1,.53,1.38,.5,.74-.06,1.26-.36,1.95-.55,.08-.02,.16-.03,.24-.03,.18,0,.37,.06,.58,.17,.43,.24,.79,.44,1.08,.73,.16,.16,.19,.33,.1,.56-.05,.13-.09,.26-.12,.4-.41,1.92,4.13,.37,3.76,.95-.1,.29-.28,.5-.3,.82,0,.05,0,.1-.01,.16-.05,.21-.12,.25-.29,.25-.22,0-.43-.02-.64-.05-.76-.08-1.95-.31-2.34,.53-.19,.39-.25,.84-.17,1.3,.03,.19-.07,.35-.13,.43-.3,.37-.85,.26-1.27,.27-1.08,.02-2.13,.04-3.19,.23-.12,.02-.22,.07-.3,.11-.24,.12-.23,.31-.23,.39,0,.11,.04,.28,.26,.35,.83,.29,1.74,.32,2.61,.23,.55-.05,1.7-.48,2.14,.02,.23,.26,.43,.81,.54,1.12,.04,.12,.02,.22-.05,.3,0,0-.02,.02-.09,.02-.06,0-.13-.02-.18-.03-.17-.04-.35-.08-.52-.13-1.19-.31-2.43-.42-3.63-.11l-.14,.03c-.24,.05-.54,.11-.75,.4-.04,.05-.16,.22-.11,.41,.04,.12,.13,.21,.28,.26,0,0,.11,.04,.11,.04,.66,.25,1.38,.27,2.08,.29,.74,.02,1.48,.1,2.22,.1h.5c.15,0,.31,0,.46,.02,.35,.04,.54,.16,.66,.43,.04,.09,.09,.18,.14,.27,.08,.15,.16,.29,.19,.45,.06,.29,.02,.41-.02,.45-.04,.05-.13,.08-.25,.08-.07,0-.15,0-.24-.02-.17-.03-.33-.08-.49-.13-1.2-.37-2.55-.38-3.79-.25-.88,.09-1.98,.4-2.09,1.44-.07,.65-.1,1.19-.09,1.69,0,.35,.21,.53,.4,.66,.28,.18,.59,.28,.85,.36l.51,.16c2.67,.87,5.84,1.65,8.66,1.26,.52-.07,1.01-.26,1.45-.57,0,0,.12-.08,.12-.09,.64-.47,.07,.91,.05,1.04-.02,.2-.04,.38-.1,.55-.74,2.22-3.61,3.28-5.75,3.28-3.2,0-6.05-1.85-8.69-3.46-.9-.55-1.83-1.12-2.78-1.63-1.04-.57-1.99-1.46-3.09-1.89-.68-.27-1.08,.15-1.53,.6-.99,.99-2.39,1.91-3.77,2.24-.3,.07-.55,.1-.78,.1-.4,0-.74-.1-1.05-.32-.05-.04-.09-.1-.14-.18l-.05-.07c-.07-.1-.14-.19-.21-.27-.05-.06-.18-.21-.36-.21-.03,0-.09,.01-.12,.02-.15,.06-.21,.19-.18,.4,0,.2,0,.71,0,.71,.03,.87-.05,1.73-.24,2.57-.16,.69-.61,1.19-1.36,1.49-.2,.08-.42,.12-.65,.12Zm19.72-18.03c-.17,0-.39,.02-.58,.19-.15,.12-.34,.31-.31,.58,.03,.27,.28,.37,.43,.42,.64,.25,1.25,.28,1.77,.29h.14c.11,0,.22-.01,.33-.03,.26-.05,.42-.24,.43-.51,0-.22-.08-.44-.25-.61-.2-.2-.47-.32-.76-.32-.05,0-.09,0-.14,0-.09,.01-.17,.02-.26,.02-.13,0-.25,0-.38-.02-.14,0-.27-.02-.41-.02h0Zm.05-2.27c-.17,0-.37,0-.57,.09-.13,.05-.39,.16-.37,.47,0,.11,.02,.44,.37,.58,.26,.1,.52,.13,.78,.15l.22,.02c.13,.02,.25,.02,.38,.02h0c.25,0,.48-.04,.7-.1,.24-.08,.37-.23,.39-.46,.03-.3-.21-.41-.31-.45-.39-.17-.84-.34-1.34-.34h-.25Z"/><g><path class="cls-1" d="M28.07,172.7c-.08,0-.18-.06-.27-.17-.33-.37-.38-.85-.43-1.36,0,0,0-.1,0-.1-.16-1.62,.08-3.21,.12-4.83,.01-.46,.04-.92,.07-1.38,.02-.3,.04-.59,.06-.89,.01-.28-.07-.54-.25-.72-.08-.09-.19-.13-.3-.13-.14,0-.25,.07-.34,.12-1.58,.87-2.96,2.06-4.5,2.99s-3.25,1.78-5.04,2.26c-.54,.14-1.07,.22-1.55,.22-.93,0-1.62-.27-2.05-.81-.12-.15-.23-.33-.33-.5-.2-.33-.4-.68-.75-.91,0,0-.06-.04-.07-.04-.07-.04-.16-.1-.17-.14,.05-.09,.23-.16,.42-.17,1.7-.06,3-.26,4.36-.64,1.07-.3,1.92-.59,2.67-.92,.41-.18,.8-.38,1.2-.58,.25-.13,.51-.26,.77-.38,1.09-.52,2.14-1.14,3.12-1.86,.49-.36,.96-.74,1.41-1.14,.38-.34,.67-.72,1-1.08,.07-.08,.25-.27,.13-.5-.26-.48-1.63-.26-2.06-.26-1.02,0-2.01,.11-3.01,.31-.29,.06-.55,.18-.81,.3-.12,.06-.25,.12-.37,.17-.14,.05-.27,.08-.39,.08-.17,0-.33-.04-.51-.13-.22-.12-.31-.25-.16-.62,.25-.6,.58-1.14,.99-1.62,.3-.34,.72-.54,1.24-.56,.18,0,.37,.09,.55,.18,0,0,.07,.03,.07,.03,.45,.21,.91,.24,1.31,.24h.21c.62-.01,1.24-.03,1.86-.08,.14-.01,.28-.04,.42-.08,.51-.16,.65-.35,.65-.91v-.17c0-.17,0-.34-.01-.51-.03-.29-.24-.39-.5-.42-.76-.09-1.52-.04-2.28-.04-.11,0-.22,0-.33,0h-.17c-.21,.02-.41,.04-.62,.04-.18,0-.35,.02-.53,.04-.16,.02-.33,.03-.49,.03-.15,0-.27,.01-.39,.02-.1,.01-.21,.02-.32,.02-.17,0-.29-.03-.4-.09l-.09-.05c-.18-.09-.23-.13-.23-.24,0-.11,.03-.21,.09-.3,.38-.54,.93-1.19,1.79-1.45,.2-.06,.4-.09,.61-.09s.4,.03,.63,.08c.73,.18,1.5,.12,2.24,.07,.52-.04,1-.02,1.03-.65,.05-.94-.07-1.92-.37-3.07-.1-.37,.06-.71,.22-.93,0,0,.01,0,.02,0,.03,0,.09,0,.15-.01,.11-.01,.23-.02,.34-.02,.16,0,.29,.02,.4,.08,.68,.32,1.43,.56,2.45,.77l.49,.09c.41,.08,.73,.43,.74,.81,0,.36-.07,.73-.23,1.09-.23,.52-.24,1.07-.26,1.61v.13c0,.07,.01,.31,.34,.35,.31,.04,.61,.07,.94,.07,1.75,0,3.52-.01,5.27-.09,.16,0,.32-.01,.48-.01,.18,0,.35,0,.52,.04-.21,.28-.37,.58-.52,.87l-.15,.29c-.11,.2-.3,.25-.6,.32-.07,.02-.15,.03-.22,.05-.14,.04-.29,.05-.43,.05h-.38c-1.62,0-3.25,0-4.87,0h-.15c-.56,0-.58,.47-.6,.69,0,.13,0,.26,0,.39,0,.13,0,.27,0,.4-.02,.28,.15,.5,.43,.55,.39,.08,.78,.14,1.18,.19,2.45,.32,4.99,.35,7.46,.41,.12,0,.16,.03,.17,.04,0,0,0,.04-.04,.11-.32,.58-.27,1.12-1.01,1.33-1.42,.4-2.88,.19-4.33,.14-.65-.02-1.33-.04-1.99-.1-.21-.02-.42-.02-.63-.02h-.74c-.26,0-.33,.17-.35,.24-.05,.19,.02,.37,.19,.48l.31,.2c3.9,2.5,8.55,5.63,13.42,4.99,.17-.02,.34-.05,.51-.08,.34-.06,.69-.1,1.04-.11,.14,0,.15,.03,.16,.05,.06,.2-.03,.23-.05,.25-1.3,.59-2.2,1.78-2.94,2.96s-1.33,2-2.8,2c-1.62,0-2.9-1.28-4.04-2.28-.82-.72-1.61-1.46-2.37-2.24-.39-.4-.78-.8-1.14-1.22-.28-.33-.52-.78-.91-.99-.24-.26-.49-.52-.79-.74-.09-.06-.18-.09-.26-.09-.16,0-.33,.12-.34,.39-.1,2.33,.08,4.64,.08,6.97,0,.56-.05,1.15-.38,1.62-.28,.41-.65,.6-1.13,.6h-.25c-.22,0-.51,.02-.78,.18-.15,.09-.24,.22-.3,.32-.02,.03-.04,.06-.06,.09-.06,.08-.12,.12-.18,.12Z"/><path class="cls-1" d="M10.17,162.93c-.19,0-.49-.25-.53-.45-.11-.53-.14-1.09-.18-1.62v-.2c-.04-.47-.12-.94-.19-1.39l-.05-.32c-.03-.2-.06-.4-.08-.6-.04-.29-.07-.58-.13-.87l-.02-.14c-.09-.48-.18-.98-.34-1.46-.19-.54-.11-1.03,.23-1.49,.11-.15,.2-.32,.29-.49,.05-.1,.1-.2,.16-.29,.18-.28,.44-.42,.81-.42,.2,0,.3,.09,.46,.25,.06,.06,.12,.12,.19,.17,.08,.06,.15,.13,.29,.15,1.69,.3,3.51,.37,5.22,.32,.25,0,.45-.14,.6-.24,.21-.14,.4-.21,.58-.21,.23,0,.46,.12,.71,.35,.46,.44,.78,.98,1.03,1.46,.06,.11,.1,.24,.14,.39-.48,.16-.58,.6-.66,.95-.16,.7-.2,1.41-.24,2.1l-.02,.36c-.04,.72-.02,1.55-.22,2.24-.11,.4-.39,.63-.76,.77-.23,.09-.48,.15-.73,.21l-.23,.06c-.08,.02-.14,.03-.19,.03-.05,0-.09,0-.19-.21-.08-.16-.22-.23-.41-.23-.2,0-.37,0-.55,0-.89,0-1.79-.04-2.68,.02-.24,.01-.49,.06-.73,.11-.11,.02-.22,.04-.33,.06-.12,.02-.2,.1-.23,.14-.28,.29-.65,.39-1,.46h-.03Zm2.09-7.11c-.21,0-.4,.09-.53,.25-.12,.15-.17,.33-.13,.5,.07,.33,.09,.64,.08,.96-.02,.53-.01,1.08,.02,1.64l.02,.29c.03,.59,.04,.88,.7,.88h.42c.57-.02,1.14-.08,1.69-.13,.23-.02,.45-.04,.68-.06,.33-.03,.73-.41,.79-.73,.1-.6,.21-1.3,.19-2.01v-.12c0-.1,0-.2,0-.3-.02-.3-.07-.91-.86-.94-.19,0-.38-.03-.57-.05-.12-.01-.23-.03-.35-.04-.33-.03-.67-.04-1-.06-.36-.01-.72-.03-1.09-.06h-.07Z"/></g><g><path class="cls-1" d="M19.01,126.04c-1.37,0-2.63-.35-3.56-.98-.16-.11-.32-.23-.48-.35-.17-.12-.33-.25-.5-.36-.4-.27-.82-.4-1.28-.4-.34,0-.69,.07-1.08,.22-.22,.08-.38,.14-.54,.14-.08,0-.13-.03-.22-.1-.05-.06-.05-.09,.02-.18,.29-.4,.71-.72,1.27-.96,.39-.17,.83-.22,1.21-.25,.19-.01,.37-.02,.56-.02,.26,0,.53,.01,.79,.04,.36,.04,.71,.05,1.05,.05,2.56,0,4.77-1.13,6.57-2.89,.45-.45,.85-.98,1.17-1.57,.03-.06,.03-.13,0-.2-.03-.06-.09-.11-.16-.12l-.18-.03c-.13-.02-.25-.05-.37-.08-.13-.03-.28-.05-.44-.05s-.31,.02-.46,.03l-.23,.02c-1.64,.12-3.27,.14-4.9,.31-.49,.05-.98,.1-1.47,.16-.69,.09-1.42,.18-2.15,.35-.26,.06-.53,.11-.8,.15-.29,.05-.59,.1-.88,.17l-.11,.03c-.36,.09-.74,.18-1.08,.38-.14,.08-.27,.16-.41,.23-.36,.2-.72,.4-1.06,.66-.01,0-.09,.03-.2,.03-.15,0-.26-.04-.29-.05-.72-.61-.61-2.02,0-2.75,.53-.64,1.15-1.01,1.92-1.14,.17-.03,.34-.06,.51-.06,.19,0,.34,.04,.47,.13,.5,.33,1.04,.37,1.45,.37,.15,0,.3,0,.44-.01l.38-.02c2.95-.14,5.88-.77,8.83-.78,.36,0,.64-.06,.91-.11,.76-.15,1.03-.68,1.27-1.36,.02-.06,.01-.13-.02-.19-.03-.06-.09-.09-.16-.1-.43-.06-.82-.09-1.19-.09-.17,0-.33,0-.5,.02-.11,0-.23,.01-.34,.01-1.23,0-2.47,.06-3.7,.18-1.11,.1-2.35,.48-3.46,.29-.1-.02-.21-.06-.32-.12-.08-.04-.12-.1-.14-.16-.02-.07,0-.16,.07-.25,.15-.23,.35-.41,.57-.6l.13-.12c.31-.28,.68-.54,1.13-.78,.26-.14,.53-.21,.83-.21,.15,0,.32,.02,.48,.06,.64,.15,1.31,.07,1.97,.04,1.15-.04,2.29-.09,3.44-.13,.19,0,.43-.01,.55-.23,.2-.36,.23-.71,.08-1-.14-.25-.48-.31-.67-.33-1.1-.07-2.21-.12-3.32-.05s-2.12,.34-3.19,.49c-.08,.01-.15,.02-.23,.02-.31,0-.61-.1-.87-.28-.01,0-.03-.03-.04-.07,0-.06,.01-.17,.1-.28,.39-.49,.87-.91,1.42-1.24,.19-.12,.43-.13,.71-.14h.13c.14,0,.29,0,.43,.01,.12,0,.25,.01,.37,.01,.44,0,.88,.06,1.31,.11,.22,.03,.44,.05,.66,.07,.32,.03,.64,.04,.96,.04,.19,0,.38,0,.57-.01,.4-.01,.78-.03,1.16-.13,.18-.04,.36-.08,.49-.25,.14-.17,.16-.42,.05-.65-.32-.68-1.89-.44-2.51-.46-1.58-.05-3.27-.17-4.83,.1-1.13,.14-2.18,.63-3.29,.76-.16,.02-.32,.04-.48,.06-.06,.01-.13,.02-.2,.02-.06,0-.11,0-.15-.03-.26-.11-.26-.54-.19-.79,.13-.47,.48-.79,.85-1.12l.23-.21c.23-.21,.51-.39,.85-.52,.11-.04,.22-.06,.31-.06,.09,0,.17,.02,.24,.05,.47,.21,.92,.31,1.38,.31,1.27,0,2.53-.1,3.79-.07,0,0,.39,0,.39,0,.44,0,.75-.07,1.02-.23,.05-.03,.09-.08,.1-.13,.01-.06,0-.12-.02-.17-.14-.23-.36-.34-.51-.42-.24-.12-.46-.27-.69-.43-.56-.38-.99-.59-1.22-1.27-.02-.07-.05-.15-.03-.23,.02-.1,.11-.16,.19-.22,.28-.21,1.54-.94,1.54-1.38,.15-.22,.38-.37,.71-.46,.08,0,.15,.04,.23,.08,.41,.22,.5,.57,.59,1.01,.04,.2,.04,.41,.04,.64,0,.93,.16,1.97,.81,2.67,.05,.06,.11,.11,.16,.17,.12,.14,.28,.15,.38,.15,4,.39,8-.11,11.99,.14,.3,.02,3.9,.03,3.87,.23-.03,.33-.53,.52-.62,.88-.08,.31-.45,.53-.75,.53h-.22c-.58,0-1.16-.03-1.74-.06l-.75-.04c-.33-.02-.67-.04-1-.04h-.55c-.42,.01-.85,.02-1.28,.06-.07,0-.14,0-.21,0-.08,0-.5-.01-.5-.01h-.55c-.74,0-1.47,0-2.21,.01h-.65c-.3,0-.63,.3-.64,.59-.03,.43,.38,.52,.53,.55,1.04,.23,2.1,.19,3.16,.2,1.24,.01,2.53-.07,3.77,.06,.21,.02,.43,.05,.65,.05,.12,0,.17,.03,.21,.07,.12,.13,.51,.62,.3,1.14-.08,.2-.19,.24-.32,.24-.39-.03-.73-.03-1.07-.03-.27,0-.53,0-.8-.02-1.78-.09-3.62-.18-5.4,0-.18,.02-.36,.04-.54,.05-.24,.02-.38,.18-.43,.47-.05,.29,.04,.49,.26,.61,.27,.14,.55,.17,.81,.2l.16,.02c.68,.08,1.36,.09,2.03,.09,.37,0,.74,0,1.11,.02,.69,.03,1.34,.05,1.98,.1,.28,.02,.56,.03,.85,.03,.38,0,.76-.01,1.15-.03h.12c.24,0,.46,.03,.67,.11,.22,.08,.33,.2,.36,.41,.02,.14,.07,.26,.11,.39,.06,.15,.11,.3,.11,.47,0,.03,0,.06-.02,.09-.03,.04-.08,.04-.13,.03-1.36-.06-2.72-.12-4.07-.17-1.53-.05-3.12-.01-4.66,.16-.19,.02-.37,.04-.56,.06-.06,0-.13,.01-.21,.04l-.09,.02c-.17,.04-.46,.11-.49,.4-.03,.27,.16,.5,.3,.67,.33,.4,.77,.47,1.17,.53,.09,.01,.19,.03,.28,.05,1.8,.38,3.7,.44,5.53,.58,2.32,.18,4.67,.42,6.99,.28,.58-.03,1.16-.12,1.74-.22,.41-.07,.82-.15,1.24-.23,.3-.06,.61-.12,.91-.17h.09s.01,.07-.03,.19c-.04,.1-.1,.2-.18,.28-.24,.25-.32,.6-.39,.93-.07,.3-.14,.59-.31,.81-1.1,1.4-2.78,1.7-3.99,1.7-.63,0-1.27-.08-1.91-.23-.74-.18-1.48-.39-2.21-.59-2.63-.75-5.55-1.51-8.3-1.3-.4,.03-.67,.26-.9,.5-.79,.83-1.21,1.76-1.73,2.75-1.19,2.26-2.88,4.15-5.46,4.73-.54,.12-1.11,.18-1.69,.18Z"/><path class="cls-1" d="M39.15,126.47c-.17,0-.34-.04-.52-.08-.1-.02-.2-.04-.3-.06-1.04-.17-2.06-.52-3.05-.86-.91-.31-1.75-.66-2.39-.94l-.59-.25c-1.06-.44-2.26-.94-3.09-1.66-.53-.46-.83-1.04-.82-1.59,0-.64,.49-1.45,1.18-1.59,.14-.03,.28-.04,.42-.04,.31,0,.62,.07,.94,.21,.61,.27,1.17,.66,1.71,1.03,.19,.13,.39,.27,.59,.4,.62,.41,1.26,.79,1.91,1.17,.99,.58,1.98,1.11,3.08,1.69,1.03,.55,2.03,.9,3.06,1.08l.22,.04c.29,.06,.59,.11,.91,.11h.09c.09,0,.09,.03,.09,.04,0,.09-.04,.17-.14,.24-.19,.12-.41,.16-.67,.19-.52,.06-.91,.23-1.23,.52-.22,.21-.51,.24-.84,.28-.09,.01-.18,.02-.26,.03-.03,0-.07,0-.1,0-.12,.01-.17,.01-.22,.01Z"/><path class="cls-1" d="M30.21,105.41c-.19,0-.37-.07-.56-.15-.05-.02-.1-.04-.15-.06,0-.03,0-.05,0-.05,0-.1,0-.14,.03-.21,.41-.73,.65-1.53,.73-2.45,.01-.15,.06-.31,.11-.47,.02-.05,.12-.1,.26-.1,.05,0,.09,0,.14,.01,.31,.06,.58,.24,.85,.43,.16,.11,.31,.21,.48,.3,.35,.19,.67,.29,.99,.33,.09,0,.18,.04,.27,.07,.06,.02,.13,.04,.19,.06,.1,.03,.18,.1,.23,.22,.08,.2,.05,.46-.06,.65-.2,.32-.44,.57-.73,.77-.45,.3-.97,.42-1.46,.51-.49,.09-.9,.14-1.29,.15h-.02Z"/></g><g><path class="cls-1" d="M26.76,81c-.31,0-.61-.05-.92-.17-.96-.38-1.67-1.4-2.42-2.08-.14-.13-.28-.25-.43-.36-.05-.04-.1-.09-.03-.21,.17,0,.37-.02,.57-.02,.38,0,.77,.06,1.14,.17,.84,.25,1.67-.03,2.04-.85,.3-.68,.41-1.41,.47-1.97,.07-.61,.09-1.29,.08-2.05,.02-.78-.03-1.48-.14-2.13-.07-.41-.51-.77-.94-.77-1.33,.08-2.73-.05-4.04,.18-.14,.02-.27,.05-.41,.06-.21,.02-.42,.07-.63,.11-.3,.06-.59,.12-.87,.12-.05,0-.11,0-.16,0-.15-.01-.3-.09-.43-.23-.03-.03-.03-.06,.06-.23,.31-.59,.69-1.05,1.14-1.38,.06-.04,.14-.06,.24-.06,.07,0,.15,.01,.22,.02,.12,.02,.24,.05,.36,.08,.26,.06,.53,.13,.81,.13,.81-.03,1.63-.02,2.44-.07,.33-.02,.67-.04,1-.1,.09-.02,.17-.03,.26-.04,.13-.02,.26-.04,.39-.06,.34-.07,.53-.35,.52-.73-.01-.51-.31-.68-.56-.74-.21-.05-.44-.07-.7-.07s-.51,.02-.76,.05l-.17,.02c-.13,.01-.26,.01-.38,.02-.2,0-.39,0-.59,.04-1.01,.16-2.05,.08-3.06,.29l-.13,.03c-.26,.06-.52,.11-.8,.14-.09,0-.18,.01-.27,.01-.16,0-.31-.02-.44-.05-.2-.06-.23-.11-.23-.33-.01-.32,.13-.61,.44-.92,.28-.28,.6-.57,1-.69,.24-.07,.43-.1,.6-.1s.33,.04,.45,.11c1.08,.62,2.58,.15,3.75,.09,.49-.03,.99-.05,1.49-.17,.22-.05,.35-.23,.34-.46-.02-.44-.33-.74-.8-.79-.75-.07-1.51-.06-2.27-.02-.16,0-2.04,.11-2.04,.32l-.44,.12c-.11,.03-.22,.04-.35,.04-.14,0-.28-.02-.41-.04-.11-.02-.17-.11-.19-.15-.04-.09-.04-.2,.01-.28,.31-.48,.6-.83,.92-1.1,.08-.07,.19-.13,.3-.18,.1-.05,.21-.11,.3-.18,.7,.31,1.58,.16,2.32,.16,.51,0,1-.04,1.47-.08,.28-.02,.57-.05,.85-.07,.18-.01,.26-.12,.29-.17,.11-.14,.17-.29,.18-.48,.02-.25,.01-.53-.16-.72-.16-.18-.42-.2-.62-.2-.05,0-.1,0-.16,0l-.6,.04c-.34,.02-.69,.04-1.03,.06-1.67,.06-3.33,.3-4.99,.35-.11,0-.22,0-.34,.02-.5,.04-.64,.43-.75,.71-.25,.66-.37,1.29-.37,1.99,0,.49-.04,.98-.08,1.47-.02,.25-.04,.51-.06,.76,0,.17-.02,.33-.02,.5,0,.18-.01,.37-.02,.55-.01,.21-.03,.43-.05,.64-.03,.38-.07,.75-.08,1.13,0,.36-.05,.73-.09,1.09-.02,.2-.04,.39-.06,.59-.06,.7-.2,1.38-.42,2.02-.56,1.67-1.66,3.29-3.12,4.31-1.35,.94-3.74,1.46-4.76-.21-.03-.05-.06-.09-.08-.14-.22-.37-.45-.76-.92-1.02-.08-.04-.12-.1-.14-.17-.01-.06,.01-.13,.06-.19,.03,0,.1,0,.16,0,.2,0,.39-.06,.55-.12,.17-.06,.34-.11,.52-.16,.33-.1,.68-.2,1-.35,.38-.18,.74-.41,1.08-.64l.13-.08c.65-.42,1.19-.95,1.67-1.46,.6-.63,1.09-1.36,1.51-2.23,.18-.37,.33-.78,.47-1.31,.12-.44,.26-1.01,.31-1.6,.07-.76,.12-1.5,.04-2.25l-.02-.17c-.06-.56-.12-1.11-.19-1.66-.08-.6-.23-1.29-.72-1.87-.13-.16-.19-.33-.17-.52,.03-.24,.19-.5,.44-.7,.43-.33,.8-.74,1.14-1.25,.32-.48,.63-.67,1.06-.67h.1c.29,.02,.46,.1,.59,.25,.44,.53,1.2,.59,1.85,.68,1.09,.16,2.2,.13,3.3,.02,.2-.02,.39-.03,.59-.04,.16,0,.32-.02,.49-.03,.45-.04,.9-.08,1.35-.15,.17-.02,.37-.13,.4-.52,.04-.49-.64-1.79,.07-1.88,.15-.02,.3-.03,.45-.03,.3,0,.59,.04,.86,.11l.18,.05c.6,.16,1.17,.31,1.66,.65,.29,.2,.5,.34,.58,.58,.06,.17,.06,.25,0,.34-.22,.31-.21,.54-.16,.69,.05,.15,.2,.35,.6,.46,.14,.04,.3,.06,.49,.06,.1,0,.2,0,.29-.01h.11c.32-.02,.64-.05,.97-.09,2.5-.27,5.03-.58,7.54-.71h.19c.49-.03,.98-.06,1.46-.1,.05,0,.11-.01,.16-.02,.07-.01,.13-.02,.2-.02,.05,0,.1,0,.14,.02,.1,.04,.14,.08,.14,.1,0,.02-.01,.05-.06,.1-.27,.28-.39,.61-.5,.93-.03,.09-.06,.18-.1,.27-.04,.11-.04,.22-.04,.3,0,.43-.29,.75-.68,.75-.07,0-.14,0-.21-.03-.49-.12-.98-.15-1.46-.17h-.11c-1.09-.06-2.18-.08-3.01-.09h-.14c-1.32,0-2.64,0-3.95,.12-.23,.02-.46,.04-.69,.06-.19,.01-.39,.05-.59,.11-.23,.07-.39,.22-.48,.44-.08,.23-.07,.44,.04,.6,.11,.15,.29,.24,.51,.24,.76,0,1.67,0,2.59-.06,.2-.01,.39-.02,.59-.02,.22,0,.45,0,.67,.01,.23,0,.46,.01,.69,.01,.23,0,.51,0,.68-.25,.13-.2,.31-.29,.56-.29,.11,0,.23,.02,.39,.05,.6,.13,1.17,.35,1.75,.59,.2,.08,.34,.23,.41,.43,.07,.2,.04,.43-.08,.63-.21,.35-.29,.78-.22,1.23,.05,.32,.25,.53,.56,.59,1.84,.32,4,.28,5.81-.23l.11-.02s.06,0,.08,.02c-.02,0-.03,.04-.04,.06-.18,.42-.83,.79-1.16,1.12-.58,.57-1.27,1.21-2.1,1.41-.98,.24-1.62-.53-2.55-.53-.71,0-.61,1.05-.57,1.53,.03,.36-.15,.59-.46,.88-.08,.07-.17,.14-.27,.2l-.14,.1c-.05,.04-.09,.1-.09,.17,0,.07,.02,.13,.07,.17,.13,.11,.25,.23,.37,.35,.34,.35,.55,.92,.14,1.3-.85,.81-2.1,1.08-3.23,1.19-.54,.05-1.1,.08-1.65,.05-.14,0-1.28-.09-.95-.4,.4-.37,.91-.56,1.37-.85,.67-.42,1.33-.87,1.92-1.41,.11-.1,.19-.28,.18-.43,0-.13-.11-.25-.31-.25,0,0-.08,0-.09,0-.26,.02-.5,.02-.74,.02-1.33,0-2.66,.03-3.99,.04-.52,0-.71,.18-.75,.69-.18,2.3-.07,4.64-.13,6.95-.02,.99-.4,1.54-1.24,2.06-.6,.37-1.27,.66-1.95,.67Zm3.61-13.49c-.25,.05-.3,.23-.31,.33l-.02,.21c-.02,.19-.04,.37-.03,.56,.01,.26,.18,.33,.32,.34,.94,.08,1.88,.15,2.82,.16,.64,0,1.94,.19,2.38-.41,.16-.22,.2-.51,.11-.8-.06-.21-.19-.33-.39-.37-.59-.14-1.32,0-1.93,.02-.89,.01-1.84,.07-2.72-.02-.04,0-.08,0-.13,0-.01,0-.1,0-.11,0Zm0-2.81c-.07,0-.27,0-.4,.14-.09,.1-.13,.23-.11,.4v.12c.04,.51,.12,.72,.77,.73h.22c1.43,.06,2.86-.09,4.29-.09,.05,0,.09,0,.14,0,.12-.02,.5-.06,.59-.43,.16-.71-.95-.81-1.4-.82-1.34-.02-2.69,0-4.03-.05,0,0-.05,0-.05,0Z"/><path class="cls-1" d="M40.32,79.9c-.37-.01-.73-.02-1.08-.09-.35-.06-.7-.17-1.03-.28l-.55-.17c-.85-.26-1.73-.53-2.57-.86l-.16-.06c-.85-.33-1.73-.68-2.42-1.29-.08-.07-.15-.13-.23-.2-.16-.13-.32-.26-.45-.42-.44-.51-.26-1.05-.04-1.41,.2-.32,.51-.41,.96-.45,.33-.01,.63,.09,.95,.2,.16,.05,.31,.1,.47,.14,.29,.07,.54,.22,.81,.38l.24,.14c.15,.08,.3,.16,.44,.24,.22,.11,.43,.23,.64,.35,.52,.32,1.07,.56,1.6,.8,.4,.18,.81,.36,1.2,.56,.49,.26,1.02,.46,1.53,.65,0,0,.32,.12,.32,.12,.48,.18,.97,.33,1.47,.45,.34,.08,.76,.25,1.13,.31-.33,.16-.69,.1-1.04,.16-.38,.07-.73,.25-1.02,.5-.18,.15-.39,.23-.62,.24-.04,0-.41-.01-.56-.02Z"/><path class="cls-1" d="M17.76,78.64c-.1,0-.41,0-.43-.14,0-.03,0-.06,.02-.09,.13-.36,.3-.68,.35-1.07,.06-.45,.08-.98,.57-1.17,.17-.06,.35-.08,.52-.1,1.01-.11,2.03-.25,3.03-.44,.59-.11,1.09-.22,1.55-.34,.41-.11,.88-.23,1.32-.43,.16-.07,.31-.16,.46-.26,.11-.07,.19-.12,.29-.14,0,0,.11,0,.11,0,0,0,.02,.02,.01,.1-.01,.15-.11,.28-.22,.42l-.05,.07c-.6,.81-1.3,1.48-2.07,1.98-1.32,.86-3.04,1.43-4.63,1.5-.13,0-.24,.04-.36,.06-.16,.04-.32,.05-.48,.04Z"/><path class="cls-1" d="M22.8,74.04c-.62,0-1.51,.17-2.06-.19-.86-.57,.84-1.86,1.32-2.1,.05-.03,.11-.04,.17-.04,.17,0,.36,.13,.37,.36,.02,.23,.12,.4,.31,.53,.44,.29,.97,.62,1.58,.83,.08,.03,.12,.08,.12,.15,0,.03,0,.1-.22,.18-.47,.18-.98,.25-1.33,.28,0,0-.27,0-.27,0Z"/></g></g></g></svg>