<?xml version="1.0" encoding="UTF-8"?><svg id="_レイヤー_2" xmlns="http://www.w3.org/2000/svg" viewBox="0 0 52.94 183.26"><defs><style>.cls-1{fill:#fff;}</style></defs><g id="_レイヤー_1-2"><g><path class="cls-1" d="M26.47,183.26c-14.6,0-26.47-11.88-26.47-26.47,0-8.69,4.23-16.76,11.34-21.72-7.12-4.96-11.34-13.02-11.34-21.72s4.23-16.76,11.34-21.72c-7.12-4.96-11.34-13.02-11.34-21.72s4.23-16.76,11.34-21.72C4.23,43.23,0,35.17,0,26.47,0,11.88,11.88,0,26.47,0s26.47,11.88,26.47,26.47c0,8.69-4.23,16.76-11.34,21.72,7.12,4.96,11.34,13.02,11.34,21.72s-4.23,16.76-11.34,21.72c7.12,4.96,11.34,13.03,11.34,21.72s-4.23,16.76-11.34,21.72c7.12,4.96,11.34,13.03,11.34,21.72,0,14.6-11.88,26.47-26.47,26.47ZM26.47,1C12.43,1,1,12.43,1,26.47c0,8.6,4.3,16.57,11.51,21.3,.14,.09,.23,.25,.23,.42s-.08,.33-.23,.42c-7.21,4.73-11.51,12.7-11.51,21.3s4.3,16.57,11.51,21.3c.14,.09,.23,.25,.23,.42s-.08,.33-.23,.42c-7.21,4.73-11.51,12.7-11.51,21.3s4.3,16.57,11.51,21.3c.14,.09,.23,.25,.23,.42s-.08,.33-.23,.42c-7.21,4.73-11.51,12.7-11.51,21.3,0,14.05,11.43,25.47,25.47,25.47s25.47-11.43,25.47-25.47c0-8.6-4.3-16.57-11.51-21.3-.14-.09-.23-.25-.23-.42s.08-.33,.23-.42c7.21-4.73,11.51-12.7,11.51-21.3s-4.3-16.57-11.51-21.3c-.14-.09-.23-.25-.23-.42s.08-.33,.23-.42c7.21-4.73,11.51-12.7,11.51-21.3s-4.3-16.57-11.51-21.3c-.14-.09-.23-.25-.23-.42s.08-.33,.23-.42c7.21-4.73,11.51-12.7,11.51-21.3C51.94,12.43,40.52,1,26.47,1Z"/><g><path class="cls-1" d="M28.78,18.16c-.12,0-.26-.03-.43-.09-.68-.26-1.26-.55-1.74-.87-.6-.41-.94-.78-1.03-1.1-.09-.32-.07-.6,.06-.85,.08-.18,.2-.3,.39-.37,.14-.06,.29-.09,.44-.09,.05,0,.1,0,.15,0,.2,.03,.41,.09,.62,.19,.2,.1,.35,.24,.45,.41,.21,.37,.42,.73,.62,1.07,.2,.35,.45,.65,.75,.89,.22,.19,.25,.38,.11,.6-.09,.13-.21,.19-.38,.19h0Z"/><path class="cls-1" d="M34.3,17.11c-.63,0-.77-.1-.8-.17-.05-.1,.03-.24,.24-.41,.4-.29,.7-.54,.9-.74,.2-.2,.41-.45,.62-.74,.25-.39,.55-.58,.91-.58,.23,0,.49,.08,.77,.24,.4,.28,.63,.59,.67,.91,.04,.32-.09,.58-.39,.78-.29,.21-.72,.38-1.29,.51-.57,.13-1.12,.2-1.62,.2Z"/><path class="cls-1" d="M14.85,20.79c-.38,0-.76-.04-1.12-.12-.82-.19-1-.4-1.01-.54-.01-.21,.21-.37,.65-.5,.27-.08,.55-.14,.83-.2,.96-.22,1.95-.45,2.69-1.18,1.08-1.06,1.02-2.4,.96-3.69v-.09c-.02-.15-.03-.33,.04-.44,.11-.18,.37-.26,.81-.26,.13,0,.25,0,.36,.01,.09,0,.17,0,.24,0,1.02,0,1.44,.01,1.75,.02,.19,0,.35,0,.58,0,.1,0,.14,.02,.15,.02,0,0,0,0-.01,0-.04,0-.14,.05-.22,.09-.14,.07-.29,.14-.4,.23-.28,.22-.32,.67-.35,1l-.02,.15c-.05,.46-.09,.9-.25,1.33-.06,.15-.06,.27,0,.37,.06,.08,.16,.19,.33,.33l1.63,1.23c.24,.21,.46,.38,.66,.5,.19,.12,.4,.28,.61,.49,.36,.28,.54,.52,.52,.69,0,.1-.09,.18-.23,.25-.18,.08-.36,.13-.52,.13-.08,0-.16-.01-.23-.03-.23-.06-.6-.24-1.1-.53-.37-.21-.71-.42-1.03-.62-.15-.1-.32-.28-.49-.47-.17-.19-.35-.38-.53-.52-.11-.07-.21-.1-.29-.1-.11,0-.2,.05-.27,.16-1.19,1.4-3.03,2.28-4.78,2.28h0Z"/><path class="cls-1" d="M21.85,17.07c-.63,0-.77-.1-.8-.17-.05-.1,.03-.24,.24-.41,.39-.29,.7-.54,.9-.74,.2-.2,.41-.45,.62-.74,.25-.39,.55-.58,.91-.58,.23,0,.49,.08,.77,.24,.4,.28,.63,.59,.67,.91,.04,.32-.09,.58-.39,.78-.29,.21-.72,.38-1.29,.51-.58,.13-1.12,.2-1.62,.2Z"/><path class="cls-1" d="M16.21,17.84c-.12,0-.26-.03-.42-.09-.68-.26-1.26-.55-1.74-.87-.6-.41-.94-.78-1.03-1.1-.09-.32-.07-.6,.06-.85,.08-.18,.2-.3,.39-.37,.14-.06,.29-.09,.44-.09,.05,0,.1,0,.15,0,.2,.03,.41,.09,.62,.19,.2,.1,.35,.24,.45,.41,.21,.37,.42,.73,.62,1.07,.2,.35,.45,.65,.75,.89,.22,.19,.25,.38,.11,.6-.09,.13-.21,.19-.38,.19h0Z"/><path class="cls-1" d="M11.23,28.69c-.18,0-.42-.03-.55-.19-.07-.08-.11-.19-.14-.3-.09-.25-.15-.5-.21-.78-.19-.9-.21-1.85-.21-2.74,0-.16,0-.35-.02-.54-.03-.66-.06-1.4,.16-1.92,.14-.34,.37-.66,.68-.98,.13-.13,.3-.19,.5-.19,.38,0,.88,.21,1.47,.46l.16,.07c.38,.17,.86,.25,1.47,.25,.43,0,.87-.04,1.26-.08l.29-.03c.51-.04,1.02-.1,1.53-.16,.65-.08,1.33-.15,1.99-.2,1.1-.07,2.22-.08,3.31-.09,.5,0,1.01,0,1.51-.02h0c.1,0,.16-.03,.19-.08,.04-.06,.03-.14-.02-.24-.02-.03-.02-.06,0-.1,.14-.28,1.25-.52,1.72-.62,.15-.03,.26-.06,.31-.07,1.38-.44,2.37-1.12,2.93-2.01,.33-.53,.53-1.17,.59-1.85,.03-.37-.02-.74-.07-1.1-.03-.26-.07-.53-.07-.79,0-.21,.02-.37,.16-.49,.25-.23,.74-.25,1.09-.25,.18,0,.35,0,.51,.01,.14,0,.26,.01,.37,.01h.36c1.14,0,1.26,.11,1.27,.14,0,.02-.01,.08-.29,.25-.61,.38-.95,1.88-.8,2.56,.08,.38,.42,.55,.72,.7l.14,.07c.57,.3,1.21,.64,1.81,1.01,.37,.22,.77,.49,1.19,.79,.42,.3,.57,.42,1.18,.89,.17,.12,.33,.25,.32,.35,0,.07-.09,.14-.26,.23-.25,.13-.53,.2-.83,.2-.15,0-.3-.02-.45-.05-.63-.14-1-.34-1.46-.6-.19-.11-.39-.22-.62-.34-.5-.25-.95-.53-1.5-.87-.05-.03-.11-.07-.17-.11-.2-.14-.41-.28-.63-.28-.15,0-.28,.07-.4,.2-.9,1.01-2.18,1.54-3.42,2.05l-.12,.05c-.23,.09-.3,.14-.28,.21s.1,.1,.35,.1c1.71,0,4.17,.03,5.44,.11,1.26,.08,2.49,.2,3.68,.36,.26,.04,.45,.06,.61,.06,.26,0,.47-.05,.87-.21,.14-.06,.29-.13,.45-.21,.41-.2,.87-.42,1.26-.42,.05,0,.1,0,.15,.01,.41,.06,.86,.39,1.07,.77,.18,.33,.18,.82,.18,1.25,0,.12,0,.23,0,.33,.05,1.36-.05,2.52-.31,3.57-.13,.53-.35,.97-.66,1.31-.15,.18-.34,.31-.55,.38-.14,.05-.28,.08-.41,.08-.07,0-.13,0-.19-.02-.37-.07-.51-.22-.48-.48,.02-.15,.05-.29,.08-.43,.06-.26,.12-.51,.09-.83-.08-.92-.15-1.83-.21-2.79,0-.13-.02-.28-.08-.42-.19-.38-.74-.39-1.18-.4-.13,0-.25,0-.35-.02-1.82-.16-3.16-.27-5.05-.35-1.91-.08-3.86-.12-5.79-.12s-3.85,.04-5.69,.12c-1.85,.08-3.59,.2-5.17,.36-1.03,.14-1.71,.28-2.1,.44-.37,.15-.82,.39-1.06,.87-.32,.64-.28,1.3-.24,1.93,.03,.47,.06,.95-.05,1.42-.09,.37-.39,.6-.94,.71-.12,.03-.25,.04-.37,.04Z"/><path class="cls-1" d="M18.32,37.29c-.12,0-.24,0-.37-.02-.36-.02-.7-.25-1.01-.66-.32-.42-.5-.9-.55-1.45-.02-.35-.06-.74-.11-1.17-.05-.43-.09-.77-.14-1.03-.11-.49-.12-.88-.02-1.14s.35-.55,.73-.85c.22-.17,.51-.26,.86-.27h.09c.32,0,.61,.05,.88,.17,.28,.11,.5,.16,.67,.16,.04,0,.07,0,.1,0,.39-.05,.89-.09,1.48-.11,.6-.03,1.24-.04,1.91-.04,.26,0,.43-.13,.51-.38,.05-.15,.08-.31,.11-.46l.07-.45c.02-.17-.01-.28-.08-.36-.05-.06-.13-.09-.22-.09-.12-.02-.25-.02-.39-.02-.07,0-.14,0-.21,0-.07,0-.14,0-.2,0-.13,0-.26,0-.38-.02,0,0,0,0,0,0-.25,0-.5,.09-.74,.28-.14,.08-.38,.12-.74,.12-.14,0-.31,0-.49-.02-.36-.02-.68-.12-.94-.29-.25-.17-.4-.39-.45-.68l-.16-1.17c-.06-.43-.11-.77-.16-1.02-.21-.99,.06-1.6,.8-1.87,.27-.07,.59-.11,.94-.11s.64,.06,.87,.18c.31,.13,.56,.2,.73,.2,.45-.02,1.05-.05,1.82-.08,.77-.02,1.54-.04,2.31-.04s1.47,0,2.1,.02c.62,.01,1.03,.03,1.22,.06,.4,.06,.72,.1,.94,.1,.04,0,.07,0,.1,0,.09,0,.18-.02,.27-.04,.42-.08,.63-.25,1.04-.6,.09-.08,.21-.12,.34-.12,.47,0,1.11,.49,1.44,1.09,.22,.41,.17,.48,.05,.62-.06,.07-.13,.16-.19,.29-.04,.26-.08,.54-.11,.87-.04,.38-.09,.83-.16,1.36-.07,.56-.29,.94-.65,1.13-.23,.12-.47,.18-.71,.18-.15,0-.31-.02-.46-.07-.37-.13-.7-.2-.98-.23-.27-.02-.55-.04-.83-.04h-2.73c-.15,0-.26,.02-.33,.06-.07,.05-.14,.16-.22,.35-.05,.12-.11,.25-.19,.39-.08,.14-.16,.27-.23,.4-.07,.14-.08,.24-.03,.31,.05,.08,.14,.11,.3,.11,.56,0,1.11,0,1.65,.02l1.45,.04c.43,.01,.8,.03,1.12,.06,.31,.03,.54,.05,.68,.08,.46,.06,.84,.09,1.13,.09,.1,0,.19,0,.27,0h.1c.51-.12,1.12-.39,1.6-.61,.27-.12,.5-.23,.68-.29,.03-.01,.06-.02,.1-.02,.53,0,1.37,1.19,1.63,1.81,.15,.36,.06,.56-.09,.86-.05,.1-.1,.21-.15,.34l-.02,.1c-.05,.13-.1,.35-.14,.67-.05,.32-.09,.72-.14,1.19-.05,.52-.15,.9-.31,1.15-.34,.49-.68,.79-1.02,.9-.12,.04-.26,.06-.4,.06-.26,0-.58-.06-.93-.19-.4-.13-.74-.22-1.03-.27-.19-.03-.41-.05-.66-.05-.13,0-.26,0-.4,.01-.49,.02-1.18,.04-2.05,.04s-1.82,0-2.84-.02c-1.02-.01-2.04-.04-3.07-.08-1.02-.04-1.93-.08-2.7-.13h0c-.33,0-.54,.06-.64,.17-.27,.35-.73,.53-1.37,.53Zm1.94-4.6c-.42,0-.51,.22-.51,.4v.62c0,.22,.01,.43,.04,.63,0,.33,.18,.51,.51,.51,.72,.02,1.78,.04,2.82,.06,1.04,.01,2.07,.02,3.1,.02h4.52c.41,0,.75-.09,1.01-.27,.27-.19,.42-.43,.45-.72,.05-.45,0-.73-.12-.86-.13-.12-.36-.21-.7-.26-1.19-.13-2.74-.2-4.62-.21h-.82c-1.75,0-3.71,.03-5.69,.09h0Zm5.5-4.92c1.23,0,2.32,.03,3.26,.08,.05,0,.1,0,.15,0,.24,0,.42-.06,.53-.18,.12-.14,.3-.51,.37-.9,.05-.2,0-.43-.13-.62-.16-.22-.41-.35-.71-.38-.93-.05-1.96-.08-3.07-.08s-2.46,.03-3.98,.08c-.27,.03-.45,.07-.54,.14-.1,.08-.15,.23-.15,.48,0,.34,.04,1.44,.59,1.44,1.23-.05,2.46-.08,3.69-.08Z"/><path class="cls-1" d="M24.44,68.5c-.1,0-.17-.03-.22-.09-.1-.11-.08-.32,.05-.62,.1-.29,.25-.5,.46-.62,.16-.09,.37-.14,.64-.14,.25,0,.53,.04,.8,.08,.25,.04,.5,.07,.71,.07,.15,0,.29,0,.43-.01,.17,0,.35-.01,.52-.01,.4,0,.9,.03,1.29,.29,.18,.12,.25,.18,.28,.21,.01,.02,.05,.08,.04,.28-.01,.29-.3,.44-.88,.44-.26,0-.53-.03-.73-.05-.09-.01-.16-.02-.22-.02h-.1c-.4-.04-.82-.06-1.24-.06-.46,0-.86,.04-1.23,.11-.06,.01-.14,.04-.21,.06l-.09,.03c-.09,.03-.2,.06-.3,.06h0Z"/><path class="cls-1" d="M26.02,152.9s.03-.03,.04-.04c.39-.47,.79-.7,1.4-.7,.82,0,1.62,0,2.39-.02,.77-.01,1.55-.02,2.35-.02s1.64,0,2.55,.02c.9,.01,1.91,.02,3.02,.02,.69,.03,1.16-.07,1.41-.28,.25-.21,.39-.54,.42-.99,.03-.24-.05-.42-.24-.56-.19-.13-.6-.27-1.23-.4-1.27-.26-2.73-.43-4.38-.5-1.64-.07-3.24-.03-4.77,.1-1.03,.09-.16-1.71,.37-1.91,.34-.13,.4-.21,.15-.57-.55-.79-2.08-1.42-3.01-1.54-.5-.07-.9,.02-1.24,.4-.47,.54-.53,1.38-.69,2.04-.56,2.47-1.84,4.93-3.74,6.63-.28,.25-.58,.49-.89,.72-.24,.17-.61,.34-.77-.02-.09-.2-.06-.45-.04-.67,.08-.69,.19-1.22,.32-1.59,.17-.5,.27-.99,.02-1.47-.34-.64-.82-1.27-1.54-1.34-.46-.04-1.07,.62-1.5,.71-.21,.04-.49,.05-.84,.02-.64-.05-1.26-.09-1.87-.1-.43,0-.86,0-1.28,.01-.38,0-.88,.16-1.24-.02-.35-.17-.46-.85-.82-1.01-.38-.17-.9-.21-1.27-.06-1.05,.42-1.23,1.39-1.12,2.45,.22,0,.65,6.59,.74,7.26,.06,.43,.23,.85,.59,1.12,.37,.28,.78-.06,1.47-.35,.88-.4,1.57-.48,2.53-.48,.81,0,2.02,.31,2.76,.69,.16,.08,.32,.13,.5,.16,.17,.03,.44,.01,.82-.04,1.3-.19,1.41-2.02,1.47-3.02,.03-.4,.21-.54,.56-.44,.78,.24,1.68-.02,2.38-.39,1.72-.91,3.02-2.37,4.25-3.83Zm-9.82,2.61c-.08,.49-.19,.92-.32,1.29-.19,.53-.69,.81-1.51,.84-.21,.03-.5,.05-.86,.06-.36,.01-.78,0-1.25-.02-.29-.03-.48-.09-.56-.18-.08-.09-.13-.3-.16-.62-.05-.48-.09-1.01-.1-1.59-.01-.58-.03-1.06-.06-1.43-.03-.37,0-.61,.1-.72,.09-.11,.32-.17,.7-.2,.69-.05,1.27-.08,1.75-.08s.97,.03,1.47,.08c.61,.05,.91,.52,.91,1.39,0,.29-.04,.68-.12,1.17Z"/><path class="cls-1" d="M19.24,80.5c-.26,0-.52-.01-.78-.03-.3-.03-.58-.1-.83-.23-.73-.36-1.15-.75-1.25-1.17-.07-.3,.02-.63,.28-.97,.93-1.4,1.07-3.14,1.13-4.94,.03-.73,.07-2.1-.21-2.9-.08-.22-.23-.27-.33-.27-.05,0-.12,.01-.18,.04-.7,.26-1.34,.63-1.96,.99-1.1,.63-2.13,1.22-3.44,1.29-.08,0-.17,0-.25,0-.54,0-1.06-.1-1.53-.31-.37-.16-.72-.39-1.04-.68-.09-.08-.19-.18-.29-.29-.3-.3-.65-.65-1.03-.85-.04-.02-.04-.06-.03-.07,0-.02,.02-.05,.06-.05,1.1-.13,2.19-.37,3.25-.61,.65-.15,1.32-.3,1.98-.42,1.78-.33,4.09-.82,6.22-1.77,.34-.15,.79-.32,1.22-.47,.64-.24,1.25-.46,1.55-.65,.47-.31,.5-.39,.5-.45,0-.09-.09-.14-.54-.14h-.34c-1.81,0-4.84,0-6.76,.6-.32,.1-.66,.15-1.01,.15-.11,0-.21,0-.32-.01-.46-.04-.75-.16-.87-.35-.12-.17-.12-.38,0-.64,.08-.18,.27-.28,.54-.41,.12-.06,.26-.14,.41-.23,.54-.31,1.05-.45,1.65-.45,.35,0,.71,.05,1.09,.09,.23,.03,.47,.06,.73,.08,.81,.07,1.64,.11,2.45,.11,1.87,0,3.61-.2,5.16-.58,.24-.06,.36-.17,.36-.33v-.6c0-.1-.04-.26-.3-.26h-2.29c-.6,0-1.17,.01-1.69,.04-.62,.03-1.24,.09-1.84,.16-.55,.06-1.1,.11-1.65,.15h-.17c-.16,.02-.35,.04-.54,.04-.44,0-.73-.08-.9-.25-.14-.14-.15-.33-.03-.57,.36-.72,1.03-1.06,2.11-1.06,.46,0,.95,.06,1.33,.11,.74,.09,1.56,.14,2.44,.14,1.05,0,2.17-.07,3.32-.2h0c.25,0,.29-.16,.29-.26,0-.13,.01-.23,.04-.3v-.26c0-.1-.04-.26-.29-.26h-1.34c-1.02,.03-2.06,.04-3.08,.04s-2,.03-2.93,.08c-.69,.05-1.28,.11-1.75,.16-.48,.05-.99,.15-1.52,.28-.37,.11-.69,.16-.95,.16-.36,0-.62-.1-.78-.3-.15-.19-.14-.44,0-.75,.15-.32,.47-.66,.94-.99,.36-.29,.84-.48,1.43-.59,.21-.04,.42-.05,.65-.05,.51,0,.99,.09,1.51,.18,.28,.05,.56,.1,.85,.14,.95,.12,1.96,.17,3.2,.17,.42,0,.52-.07,.56-.12,.02-.03,.03-.07,.03-.11-.02-.08-.1-.15-.28-.24-.24-.11-.44-.21-.61-.32-.09-.05-.26-.1-.44-.16-.17-.05-.37-.11-.43-.16-.43-.35-.52-.72-.27-1.14,.25-.42,.8-.66,1.62-.71,.09-.01,.18-.02,.26-.02,.34,0,.65,.08,.94,.25,.36,.2,.6,.53,.73,.96,.03,.16,.04,.31,.04,.47,0,.33,.01,.64,.36,.87,.32,.21,.82,.3,1.6,.3,.39,0,.8-.02,1.16-.05,.29-.02,.55-.03,.76-.03,.26,0,.6,0,.96-.01,.43,0,.89-.01,1.31-.01,.24,0,.46,0,.66,0h.09c.23,0,.64-.02,.87-.2,.3-.23,.24-.58,.19-.92-.03-.17-.06-.35-.03-.51,.07-.47,.34-1.04,.88-1.24,.13-.05,.28-.07,.46-.07,.33,0,.74,.09,1.23,.25,.88,.31,1.35,.65,1.41,1.01,.06,.34-.83,.68-1.42,.91-.16,.05-.32,.11-.48,.18-.16,.07-.33,.16-.49,.26-.07,.05-.28,.19-.2,.34,.04,.06,.15,.13,.67,.13,.63,.02,1.27,.03,1.91,.04,1.29,.02,2.63,.04,3.94,.12,.31,.01,.52,.09,.63,.22,.08,.1,.11,.24,.07,.42-.07,.48-.43,.71-1.1,.71h-10.1c-.3,0-.39,.18-.42,.33v.53c0,.22,.14,.26,.22,.26,1.01,.05,2.47,.1,3.75,.14,1.29,.04,2.8,.1,4.55,.18,.33,.03,.55,.08,.64,.15,.09,.06,.1,.21,.06,.42-.07,.43-.43,.63-1.1,.63-1.35-.03-2.7-.05-4.06-.06-1.35-.01-2.82-.02-3.78-.02-.29,0-.34,.16-.34,.26v.6c0,.11,.04,.3,.34,.3,.93,.02,1.96,.09,2.95,.17,.85,.06,1.73,.13,2.53,.16,.7,.02,1.41,.03,2.11,.03,1.07,0,2.18,0,3.26,.09,.3,.01,.51,.09,.62,.22,.09,.11,.12,.27,.08,.46-.05,.19-.17,.37-.36,.52-.16,.13-.36,.19-.61,.19-.04,0-.09,0-.13,0-.29-.03-.68-.05-1.18-.06l-1.61-.04c-.58-.01-1.19-.02-1.83-.02-.32,0-.77,0-1.21,0-.42,0-.83,0-1.11,0s-.43,.04-.46,.14c-.02,.09,.04,.21,.59,.49,1.73,.84,3.54,1.51,5.09,2.06l.61,.22c1.3,.46,2.64,.94,4.04,1.21,.92,.18,1.86,.24,2.76,.3,.47,.03,.94,.06,1.42,.11,.07,0,.13,.1,.13,.16,0,.04-.02,.05-.04,.05-.43,.07-1.02,.44-1.7,.88-.72,.46-1.54,.99-2.26,1.17-.46,.12-.92,.18-1.38,.18-1.96,0-3.65-1.07-5.22-2.16-.11-.08-.21-.12-.3-.12-.15,0-.25,.1-.31,.31-.24,.88-.26,2.72,.24,3.48,.08,.12,.19,.24,.33,.35,.33,.2,.45,.46,.38,.8-.14,.61-.82,.67-1.42,.72-.17,.02-.34,.03-.48,.06-.49,.09-.96,.18-1.41,.26-.24,.05-.35,.11-.37,.2-.01,.1,.1,.19,.35,.31,1.79,.72,3.33,1.28,5.06,1.68,.48,.11,.99,.24,1.48,.43,.7,.27,.85,.42,.86,.51,0,.04-.02,.08-.09,.12-.68,.45-1.62,.75-2.35,.75-.15,0-.29-.01-.42-.04-1.25-.24-2.5-.59-3.7-.93l-.31-.09c-1.43-.4-2.88-.83-4.29-1.27-.22-.06-.38-.08-.49-.08-.12,0-.28,.07-.51,.21-.97,.53-2.12,1.02-3.41,1.47-1.91,.66-3.54,.99-4.98,.99Zm5.68-6.12c-1.01,0-1.77,0-2.29,.02-.52,.01-.99,.03-1.41,.06-.48,.03-.93,.06-1.14,.52-.03,.06-.05,.13-.07,.21-.13,.55-.53,2.24,.53,2.67,.22,.09,.49,.13,.83,.13,.43,0,.89-.07,1.26-.12l.27-.04c.79-.11,1.57-.28,2.29-.45,.49-.1,.67-.18,.69-.28,0-.05-.02-.1-.09-.15l-.2-.12c-.34-.19-.69-.39-.85-.73-.22-.46,.04-.92,.35-1.18,.29-.26,.33-.36,.29-.43-.04-.08-.17-.11-.45-.11Zm2.42-.04c-.17,0-.46,.02-.48,.15-.02,.1,.12,.16,.18,.18,.38,.19,.76,.36,1.13,.52l.25,.1c.53,.22,1.04,.44,1.6,.44,.18,0,.36-.02,.55-.06,.02,0,1.74-.42,2.18-.9,.02-.02,.04-.05,.05-.07,.08-.11,.09-.21,.05-.28-.06-.12-.24-.17-.56-.17-.2,0-.41,.02-.55,.04-.06,0-.1,.01-.13,.01-.44,.01-.87,.03-1.31,.03h-.3c-.25,0-.52,0-.8,0-.57,0-1.19,0-1.87,.03h0Zm-6.13-2.07c-.32,0-.5,.16-.53,.45-.03,.15,0,.27,.07,.35,.08,.1,.23,.15,.43,.15,.61-.03,1.31-.05,2.11-.06,.79-.01,1.59-.02,2.39-.02s1.54,0,2.23,.02c.69,.01,1.22,.02,1.59,.02,.25,.02,.48,.03,.67,.03,.29,0,.52-.03,.68-.07,.27-.08,.46-.24,.57-.47,.05-.12,.05-.22,0-.29-.07-.1-.21-.15-.46-.15-1.52-.04-2.97-.06-4.31-.06-.33,0-.66,0-.98,0-1.6,.01-3.1,.05-4.46,.1h0Zm0-1.91c-.17,0-.29,.04-.37,.13-.07,.08-.1,.19-.09,.33,.03,.15,.07,.24,.12,.29,.05,.05,.17,.08,.38,.08,.69,0,1.47,0,2.35-.02l5.27-.08c.83-.01,1.56-.02,2.17-.02,.33,0,.5-.1,.5-.3-.03-.19-.14-.32-.31-.41-.17-.08-.48-.12-.94-.12h-2.09c-.78,0-1.59,0-2.41,.02l-2.43,.04c-.8,.01-1.51,.03-2.15,.06h0Zm9.5-1.12c.63,0,1.34-.03,1.94-.44,.07-.05,.09-.11,.08-.16-.02-.28-.76-.78-2.33-1.57l-.13-.06c-.29-.15-.58-.33-.86-.51-.49-.31-.99-.63-1.55-.8-.33-.1-.67-.15-1.02-.15-1.23,0-2.37,.63-3.48,1.23-.18,.1-.36,.2-.53,.29-.06,.03-.16,.08-.29,.14-.46,.22-1.31,.63-1.79,.99-.3,.23-.41,.41-.36,.56,.08,.25,.4,.37,.97,.37,.23,0,.46-.02,.66-.03,.13-.01,.25-.02,.32-.02,.84,0,1.68,.02,2.52,.04,.83,0,1.67,.03,2.49,.05,.82,.03,1.66,.05,2.49,.05h.16s.69,0,.69,0Z"/><path class="cls-1" d="M29.23,124.49c-.51,0-1.01-.07-1.5-.21-1.83-.51-3.5-1.92-4.59-3.87-.02-.04-.06-.06-.1-.06h0s-.08,.02-.1,.06c-.09,.16-.25,.23-.49,.23s-.5-.08-.68-.14l-2.84-1.08c-.06-.02-.13-.05-.19-.09-.17-.08-.35-.17-.55-.17-.32,.02-.59,.24-.8,.42-.05,.04-.09,.08-.14,.11-.19,.15-.38,.31-.57,.47-.35,.29-.71,.59-1.1,.84-.86,.55-1.74,.94-2.6,1.15-.53,.13-1.05,.19-1.54,.19-.94,0-2.23-.24-3.04-1.36-.13-.17-.26-.42-.17-.62,.09-.2,.37-.28,.63-.32l.17-.03c2.07-.34,4.21-.69,5.77-2.07,.13-.12,.3-.3,.26-.53-.04-.19-.21-.31-.32-.37-.94-.6-1.9-1.27-2.38-2.24-.57-1.18-.35-2.45-.13-3.69l.09-.5s0-.07-.03-.1c-.02-.02-.05-.04-.08-.04,0,0-.01,0-.02,0-.33,.05-.67,.13-.97,.21-.26,.06-.5,.12-.7,.15-.14,.02-.29,.03-.45,.04-.31,.02-.64,.04-.92,.15-.17,.07-.3,.16-.44,.25-.22,.15-.47,.31-.69,.31h0c-.09,0-.17-.03-.25-.09-.11-.08-.14-.25-.15-.42-.12-1.26,.27-2.76,1.43-3.07,.14-.04,.3-.06,.46-.06,.38,0,.77,.1,1.15,.19,.11,.03,.22,.06,.33,.08,.3,.07,.58,.1,.83,.1,.51,0,.92-.14,1.2-.43,.33-.33,.45-.8,.54-1.19l1.46-5.99c.07-.27,.14-.58,.34-.79,.12-.13,.34-.2,.64-.2,.42,0,.93,.13,1.27,.25,.72,.26,1.2,.73,1.33,1.31,.17,.78-.28,1.54-.73,2.27l-.11,.18c-.71,1.19-1.23,2.48-1.54,3.82,0,.04,0,.07,.02,.1,.02,.03,.05,.04,.09,.04,0,0,1.81-.12,1.81-.12,.18-.01,.42-.03,.6-.18,.2-.17,.24-.43,.28-.67,.01-.07,.02-.14,.04-.2,.11-.51,.57-.92,1.08-.98,.04,0,.09,0,.14,0,.48,0,.94,.28,1.14,.7,.03,.06,.06,.13,.08,.19,.07,.17,.13,.34,.27,.47,.15,.15,.35,.22,.6,.22,.19,0,.39-.04,.58-.08,.19-.04,.38-.08,.56-.08,.16,0,.29,.03,.4,.1,.17,.11,.23,.28,.25,.41,.04,.25-.04,.53-.2,.71-.3,.35-.8,.49-1.25,.58-.28,.05-.56,.11-.77,.29-.24,.21-.33,.53-.4,.78-.3,1.11-.67,2.17-1.03,3.2-.36,1.03-.73,2.1-1.04,3.22-.03,.11-.08,.28,0,.43,.07,.14,.2,.22,.34,.27,.17,.07,.37,.15,.57,.23,.65,.26,1.4,.56,1.92,.87,.65,.37,1.2,1.13,1,1.85-.01,.05,0,.11,.06,.13,1.02,.54,2.08,1.09,3.25,1.28,.24,.04,.49,.06,.73,.06,1.42,0,2.56-.65,3.12-1.79,.75-1.51,.98-3.61,.72-6.43-.02-.25-.07-.53-.27-.71-.18-.16-.42-.18-.65-.18-2.31,.02-4.59,.56-6.63,1.58-.31,.15-.58,.29-.86,.3h0c-.29,0-.57-.13-.64-.38-.04-.16,0-.33,.05-.49,.32-1.13,.79-2.31,1.82-2.58,.07-.02,.14-.03,.23-.03,.22,0,.46,.05,.7,.1,.16,.03,.32,.06,.46,.08,.7,.07,1.42,.11,2.13,.11,1.05,0,2.09-.08,3.09-.24,.03,0,.06-.02,.08-.05,.02-.03,.02-.06,.02-.09-.32-1.33-1.7-2.32-2.96-3.15-.09-.06-.52-.36-.39-.61,.06-.12,.22-.17,.36-.21,.3-.08,.64-.12,1-.12,.82,0,1.55,.2,2.03,.36,.13,.05,.27,.11,.41,.17,.3,.14,.61,.28,.92,.28,.2,0,.38-.06,.55-.17,.37-.25,.62-.69,.79-1.04,.07-.14,.13-.27,.2-.41,.12-.25,.24-.5,.38-.75l.04-.08c.15-.27,.32-.57,.24-.91-.07-.32-.46-.41-.59-.44-.76-.18-1.56-.27-2.35-.27-1.28,0-2.54,.23-3.73,.67-.48,.18-.91,.44-1.32,.7-.22,.14-.44,.27-.68,.4-.29,.16-.72,.37-1.09,.37-.23,0-.41-.08-.54-.25-.26-.33-.05-1.43,.47-2.5,.52-1.06,1.16-1.75,1.65-1.75,.12,0,.22,.04,.33,.11,.11,.08,.21,.16,.3,.23,.27,.21,.5,.4,.83,.47,.08,0,.1,0,.12,0,.58-.02,1.16-.11,1.71-.2l.22-.04c.84-.13,1.72-.23,2.61-.29,.66-.04,1.34-.06,2.02-.06,1.03,0,2.09,.05,3.15,.15,.9,.08,1.4,.39,1.62,1,.31,.86-.24,1.82-1.63,2.87l-3.74,2.83c-.14,.11-.41,.31-.42,.6,0,.17,.07,.32,.14,.44,.08,.15,.14,.31,.19,.45,.13,.35,.25,.67,.66,.85,.3,.12,.62,.12,.92,.12h.22c3.23,.08,5.36,.14,7.74,.34,.21,.02,.42,.04,.63,.06,.41,.04,.82,.08,1.23,.1h.07c.05,0,.11,0,.18,0,.08,0,.16,0,.24,0,.23,0,.38,.02,.47,.07-.06,.04-.17,.1-.22,.13-.07,.03-.09,.05-.11,.07-.28,.23-.41,.59-.54,.94-.1,.28-.21,.56-.38,.77-.73,.86-1.7,1.28-2.98,1.28-1.36,0-2.82-.47-4.11-.89-.31-.1-.6-.2-.89-.28-.08-.02-.17-.06-.26-.09-.27-.1-.62-.23-.92-.23-.17,0-.32,.04-.43,.12-.28,.2-.3,.57-.28,.94,.16,2.87,.14,5.84-1.08,8.14-.86,1.61-2.52,2.57-4.44,2.57Zm-10.71-14.96c-.06,0-.14,0-.22,.03-.42,.05-.86,.11-1.32,.18l-1.25,.18c-.17,.04-.29,.11-.36,.24-.1,.16-.23,.36-.35,.81-.22,.75-.3,1.43-.24,2.03,.09,1.02,.73,1.48,1.46,2.01l.26,.19c.16,.12,.3,.22,.44,.22,.21,0,.31-.21,.37-.36,.37-.71,.68-1.49,.94-2.31,.25-.81,.5-1.65,.64-2.69,.04-.16,.03-.29-.05-.39-.07-.08-.17-.13-.31-.13Z"/><path class="cls-1" d="M36.5,169.71c-1.31,0-2.41-.27-3.8-.61-.32-.08-.65-.16-1-.24-1.13-.26-2.09-.51-2.86-.73-.76-.22-1.39-.42-1.86-.59-.47-.17-.91-.35-1.3-.53-1.25-.64-1.95-1.56-2.06-2.75-.15-1.53,.7-2.87,1.45-3.73,.7-.82,1.8-1.95,3.02-2.74,.51-.33,.69-.64,.54-.93-.12-.22-.38-.34-.77-.34-.09,0-.18,0-.28,.02-.35,.03-.67,.07-.96,.12-.29,.05-.62,.13-.97,.24-.14,.05-.27,.08-.39,.08-.27,0-.48-.14-.6-.38-.13-.29-.12-.75,.2-1.13,.43-.5,1.17-1.05,1.77-1.13,.06,0,.12-.01,.19-.01,.36,0,.74,.11,1.11,.22,.24,.07,.48,.14,.72,.19,.3,.05,.61,.08,.92,.08,.41,0,.83-.04,1.24-.13,.25-.05,.52-.17,.8-.3,.37-.17,.76-.34,1.1-.34,.04,0,.07,0,.11,0,.27,.03,.67,.79,.86,1.15,.06,.11,.1,.2,.14,.26,.28,.48,.56,1.09,.17,1.59-.4,.51-1.14,.82-1.74,1.07-1.69,.71-3.41,1.63-4.63,3.47-.39,.56-.45,1.16-.17,1.76,.28,.6,.84,1.03,1.66,1.28,.54,.16,1.26,.29,2.15,.38,1.05,.11,1.99,.16,2.85,.16,2.63,0,4.9-.5,7.84-1.71,1.08-.45,1.79-.81,2.17-1.11,.08-.08,.16-.13,.25-.18,.31-.25,.57-.51,.77-.73,.12-.13,.27-.29,.35-.34,0,.01,0,.04,0,.06,.01,.28-.16,.56-.4,.96-.26,.43-.62,1.02-.91,1.89-1.06,3.24-2.95,5.04-5.77,5.52-.68,.12-1.31,.17-1.91,.17h0Z"/></g></g></g></svg>