<?xml version="1.0" encoding="UTF-8"?><svg id="_レイヤー_2" xmlns="http://www.w3.org/2000/svg" viewBox="0 0 119.54 11.13"><defs><style>.cls-1{fill:#e9503a;}</style></defs><g id="_レイヤー_1-2"><g><path class="cls-1" d="M10.39,2.23c-.78,.14-1.56,.25-2.34,.32-.78,.07-1.65,.12-2.62,.15l1.46,.46c-.44,.67-.82,1.37-1.12,2.08-.31,.71-.54,1.39-.7,2.06-.16,.66-.25,1.27-.27,1.83s.04,1.03,.18,1.41l-3.45,.59c.02-.66,.11-1.36,.29-2.1,.18-.74,.41-1.48,.69-2.21,.28-.74,.6-1.46,.95-2.16,.35-.7,.7-1.35,1.06-1.94-.82,0-1.58-.03-2.3-.1-.71-.06-1.46-.16-2.22-.28L1.05,.76c1.14,.24,2.41,.37,3.82,.39,1.4,.02,3.08-.07,5.02-.28,.29-.03,.49-.05,.59-.07,.1-.02,.19-.03,.26-.03h.51l-.84,1.48Z"/><path class="cls-1" d="M24.23,5.21c0,.41-.1,.75-.29,1.01-.2,.27-.57,.5-1.11,.68-.54,.19-1.3,.36-2.26,.5-.96,.14-2.21,.29-3.74,.46,.03,.28,.17,.59,.42,.92,.25,.33,.57,.59,.96,.79,.49-.08,.96-.17,1.39-.25,.43-.08,.86-.18,1.26-.27,.41-.1,.82-.21,1.24-.34,.42-.13,.86-.27,1.32-.44l-.08,.57c-.02,.1-.05,.19-.09,.26-.04,.08-.15,.16-.32,.24-.17,.08-.43,.19-.77,.31-.34,.12-.82,.27-1.43,.45-.63,.2-1.27,.36-1.92,.49-.65,.13-1.17,.19-1.56,.19-.36,0-.73-.07-1.11-.2-.38-.13-.73-.3-1.05-.5-.32-.2-.57-.41-.77-.64-.2-.23-.29-.45-.29-.66,0-.2,.03-.38,.08-.56s.14-.38,.27-.6c.13-.22,.31-.49,.55-.8,.24-.31,.54-.7,.89-1.16,.44-.53,1.17-.98,2.18-1.34s2.29-.54,3.84-.54c.88,0,1.5,.1,1.85,.29,.35,.2,.52,.58,.52,1.14Zm-2.6-.63l-2.68,.27c-.34,.37-.65,.71-.93,1.04-.28,.33-.58,.72-.91,1.17,.97-.07,1.75-.15,2.35-.23,.6-.08,1.05-.19,1.37-.32,.31-.13,.53-.27,.64-.44,.11-.17,.17-.37,.17-.61v-.88Z"/><path class="cls-1" d="M35.72,4.03c-.14,.23-.25,.42-.36,.58-.1,.16-.2,.32-.28,.46-.09,.15-.17,.3-.26,.45-.08,.16-.18,.33-.28,.53l-1.92-.19c-.19,.08-.39,.23-.6,.43-.21,.2-.41,.44-.6,.71-.19,.27-.36,.55-.51,.84s-.26,.58-.33,.84c-.14,.51-.26,.92-.38,1.23-.12,.32-.24,.56-.36,.74s-.24,.29-.36,.36-.24,.09-.36,.09c-.1,0-.24-.07-.42-.2-.18-.13-.35-.29-.52-.46-.17-.17-.32-.36-.45-.55-.13-.19-.19-.35-.19-.47,0-.24,.06-.46,.18-.65,.12-.2,.35-.46,.69-.8,.14-.13,.23-.29,.29-.5,.06-.2,.09-.51,.09-.92,0-.6-.02-1.13-.05-1.57-.03-.44-.08-.8-.13-1.07l2.6-.53c.08,.94,0,1.85-.25,2.74,.39-.51,.74-.92,1.06-1.25,.32-.33,.61-.59,.88-.79,.27-.2,.53-.34,.77-.42,.24-.08,.48-.13,.71-.13,.15,0,.35,.04,.6,.13,.25,.08,.49,.2,.73,.36Z"/><path class="cls-1" d="M49.38,5.97c.14,.21,.2,.37,.18,.46-.02,.1-.1,.22-.25,.36-.34,.3-.61,.54-.8,.73-.2,.19-.34,.34-.43,.46-.09,.12-.15,.21-.18,.29-.03,.07-.04,.13-.04,.17,0,.34,.07,.71,.22,1.13,.14,.41,.35,.76,.62,1.04l-2.22,.27c-.22-.24-.39-.5-.51-.79-.12-.29-.2-.66-.23-1.11-.66,.38-1.24,.7-1.72,.95-.49,.25-.91,.45-1.26,.6s-.67,.25-.95,.31c-.27,.06-.54,.08-.79,.08s-.53-.05-.83-.15-.57-.22-.8-.38c-.24-.15-.44-.32-.6-.51s-.24-.36-.24-.53c0-.29,.18-.62,.54-.97,.36-.35,.88-.71,1.57-1.08,.69-.37,1.54-.73,2.57-1.09s2.2-.69,3.52-1c-.71-.2-1.57-.29-2.55-.26-.99,.02-2.09,.17-3.32,.45l.18-.95c1.04-.28,2.06-.44,3.08-.47s1.88,.01,2.59,.14c.41,.07,.74,.15,1,.24,.26,.09,.48,.21,.66,.36,.19,.15,.36,.32,.51,.52,.15,.2,.32,.44,.51,.72Zm-2.96,.11c-1.65,.52-2.9,1.06-3.75,1.61-.85,.56-1.45,1.14-1.79,1.74l1,.44c.65-.21,1.31-.48,2-.8s1.31-.67,1.85-1.05c.08-.2,.23-.42,.42-.67,.2-.25,.49-.59,.88-1.01l-.61-.25Z"/><path class="cls-1" d="M68.83,4.64c.14,.14,.19,.3,.17,.49s-.18,.5-.47,.95c-.75,1.22-1.17,2.64-1.28,4.24l-2.88,.53c.03-.37,.11-.76,.23-1.19s.28-.86,.47-1.31c.2-.44,.42-.88,.69-1.32,.26-.44,.56-.84,.88-1.22l-.56-.44c-.41,.01-.86,.15-1.35,.4-.49,.25-.97,.56-1.42,.93-.45,.37-.85,.76-1.19,1.19-.34,.43-.55,.83-.64,1.21-.15,.66-.33,1.1-.54,1.33s-.45,.34-.74,.34c-.17,0-.35-.06-.55-.17-.2-.11-.38-.25-.55-.42s-.31-.34-.42-.52c-.11-.18-.17-.33-.17-.45,0-.11,.05-.26,.17-.43,.11-.18,.36-.44,.75-.79,.37-.32,.67-.64,.88-.96s.41-.71,.6-1.17l-.64-.59c-1.28,.3-2.29,.74-3.03,1.34-.74,.6-1.25,1.38-1.52,2.35-.12,.42-.22,.76-.31,1-.09,.25-.18,.44-.28,.57s-.22,.22-.34,.26-.29,.06-.5,.06c-.15,0-.32-.06-.51-.17s-.37-.25-.55-.4-.33-.31-.45-.47c-.12-.16-.18-.3-.18-.41,0-.13,.03-.27,.1-.42,.07-.15,.22-.33,.46-.53,.24-.22,.43-.44,.57-.64,.14-.2,.26-.45,.33-.74,.08-.29,.12-.65,.13-1.08,0-.43-.01-.98-.06-1.66l2.5-.51v.67c0,.32-.02,.61-.05,.85s-.08,.51-.15,.79c.48-.37,.97-.69,1.48-.97s1-.52,1.48-.71c.48-.19,.92-.33,1.34-.43,.42-.1,.77-.15,1.06-.15,.12,0,.26,.03,.43,.08,.17,.06,.33,.13,.49,.21,.15,.08,.28,.17,.38,.26,.1,.09,.15,.18,.15,.26,0,.18,0,.37-.03,.56-.02,.19-.07,.37-.15,.54,.37-.28,.77-.54,1.19-.79,.42-.25,.82-.46,1.21-.63,.39-.17,.77-.31,1.12-.41,.36-.1,.68-.15,.97-.15,.14,0,.31,.06,.51,.17s.45,.33,.74,.65Z"/><path class="cls-1" d="M82.9,5.97c.14,.21,.2,.37,.18,.46-.02,.1-.1,.22-.25,.36-.34,.3-.61,.54-.8,.73-.2,.19-.34,.34-.43,.46-.09,.12-.15,.21-.18,.29-.03,.07-.04,.13-.04,.17,0,.34,.07,.71,.22,1.13,.14,.41,.35,.76,.62,1.04l-2.22,.27c-.22-.24-.39-.5-.51-.79-.12-.29-.2-.66-.23-1.11-.66,.38-1.24,.7-1.72,.95-.49,.25-.91,.45-1.26,.6s-.67,.25-.95,.31c-.27,.06-.54,.08-.79,.08s-.53-.05-.83-.15-.57-.22-.8-.38c-.24-.15-.44-.32-.6-.51s-.24-.36-.24-.53c0-.29,.18-.62,.54-.97,.36-.35,.88-.71,1.57-1.08,.69-.37,1.54-.73,2.57-1.09s2.2-.69,3.52-1c-.71-.2-1.57-.29-2.55-.26-.99,.02-2.09,.17-3.32,.45l.18-.95c1.04-.28,2.06-.44,3.08-.47s1.88,.01,2.59,.14c.41,.07,.74,.15,1,.24,.26,.09,.48,.21,.66,.36,.19,.15,.36,.32,.51,.52,.15,.2,.32,.44,.51,.72Zm-2.96,.11c-1.65,.52-2.9,1.06-3.75,1.61-.85,.56-1.45,1.14-1.79,1.74l1,.44c.65-.21,1.31-.48,2-.8s1.31-.67,1.85-1.05c.08-.2,.23-.42,.42-.67,.2-.25,.49-.59,.88-1.01l-.61-.25Z"/><path class="cls-1" d="M94.19,6.54l-.51-1.94-1.92,.34c-.25,.28-.5,.58-.74,.9s-.46,.63-.66,.95c-.21,.32-.38,.61-.54,.88-.15,.27-.26,.5-.33,.69-.05,.13-.05,.24,0,.35,.05,.11,.2,.26,.46,.47,.22,.2,.42,.31,.6,.33,.18,.02,.48,0,.91-.05,.22-.03,.44-.07,.66-.12,.22-.05,.48-.12,.78-.21,.3-.09,.66-.21,1.08-.37,.42-.15,.95-.35,1.58-.59l-.15,.63c-.03,.15-.1,.27-.2,.36-.1,.08-.28,.18-.54,.27-.54,.2-1.08,.38-1.62,.55-.54,.17-1.04,.32-1.51,.44-.47,.13-.89,.22-1.26,.29s-.66,.11-.87,.11c-.31,0-.64-.07-1-.21-.36-.14-.69-.31-.98-.51-.3-.2-.54-.41-.74-.64-.2-.23-.29-.43-.29-.6,0-.29,.11-.66,.33-1.11,.22-.44,.5-.88,.84-1.32,.34-.44,.72-.83,1.14-1.18,.42-.35,.82-.59,1.21-.72,.71-.24,1.39-.42,2.03-.56,.64-.13,1.34-.2,2.11-.2,.54,0,.96,.04,1.24,.11,.28,.07,.47,.16,.58,.27,.37,.38,.67,1.08,.89,2.11l-2.58,.27Z"/><path class="cls-1" d="M110.04,5.57c-.26,.49-.47,.94-.64,1.35-.17,.41-.32,.8-.45,1.18-.13,.38-.23,.76-.32,1.14-.09,.38-.16,.77-.23,1.18l-2.78,.55c.27-1.5,1.09-3.24,2.45-5.21l-.82-.46c-.75,.25-1.4,.52-1.94,.81s-1.01,.6-1.39,.94c-.38,.34-.69,.71-.92,1.12s-.4,.86-.52,1.37c-.14,.55-.29,.92-.46,1.13-.17,.2-.39,.31-.66,.31-.14,0-.37-.06-.7-.18s-.64-.28-.93-.47c-.29-.2-.43-.4-.43-.62s.2-.52,.59-.92c.19-.18,.34-.35,.47-.5,.13-.15,.23-.3,.32-.45,.08-.15,.16-.32,.22-.5s.12-.39,.19-.64c.12-.46,.28-.97,.47-1.52,.2-.55,.41-1.09,.65-1.61,.24-.53,.48-1,.71-1.43,.24-.43,.45-.75,.64-.96,.1-.1,.31-.21,.63-.35,.31-.13,.67-.26,1.06-.38,.39-.12,.78-.22,1.16-.31s.69-.13,.93-.13c.22,0,.35,.04,.38,.13,.03,.08-.04,.2-.23,.36-.48,.41-.9,.8-1.26,1.17-.37,.37-.71,.78-1.03,1.22-.32,.44-.64,.94-.96,1.5-.32,.56-.66,1.22-1.03,1.99,.6-.41,1.19-.76,1.79-1.05s1.14-.54,1.65-.74c.5-.2,.94-.34,1.3-.43s.62-.14,.75-.14c.2,0,.4,.04,.57,.13,.18,.08,.4,.24,.65,.46,.19,.17,.29,.31,.31,.43,.02,.12-.04,.3-.18,.54Z"/><path class="cls-1" d="M118.47,4.2c-.82,1.01-1.42,2.05-1.8,3.12-.38,1.07-.62,2.16-.7,3.27l-2.96,.51c.17-1.19,.44-2.3,.8-3.32,.37-1.02,.89-2.05,1.57-3.09l3.09-.48Zm1.07-1.26c-.68,.11-1.25,.17-1.71,.17-.54,0-1-.06-1.37-.19-.37-.13-.55-.3-.55-.53,0-.14,.07-.28,.22-.41,.14-.13,.33-.26,.55-.37,.22-.11,.47-.2,.75-.27,.28-.07,.55-.11,.8-.11,.22,0,.39,.02,.51,.07,.12,.05,.18,.17,.18,.37v.34c0,.11,.06,.26,.17,.43s.26,.34,.45,.5Z"/></g></g></svg>