<?xml version="1.0" encoding="UTF-8"?><svg id="_レイヤー_2" xmlns="http://www.w3.org/2000/svg" viewBox="0 0 169.09 265.64"><defs><style>.cls-1{fill:#e9503a;}</style></defs><g id="_レイヤー_1-2"><g><g><path class="cls-1" d="M83.34,265.64c-39.6,0-71.82-32.21-71.82-71.81V118.1c0-39.6,32.22-71.81,71.82-71.81s71.81,32.21,71.81,71.81v75.73c0,39.6-32.21,71.81-71.81,71.81Zm0-212.79c-35.98,0-65.24,29.27-65.24,65.24v75.73c0,35.97,29.27,65.24,65.24,65.24s65.24-29.27,65.24-65.24V118.1c0-35.97-29.27-65.24-65.24-65.24Z"/><g><path class="cls-1" d="M86.56,65.86c0,.65-.13,3.59-.13,4.24,0,1.09,.79,1.74,2.63,1.74,1.45,0,7.89,.33,9.21,.33,4.34,0,27.36,.65,29.47,.65,7.5,0,8.29,0,10.39,1.63-1.05,1.41-4.87,6.08-11.71,6.08-1.58,0-4.61-.43-5.39-.54-5.79-.76-32.36-2.39-38.42-2.39-8.95,0-15.92,.22-27.5,1.41-5.53,.54-6.84,4.35-6.84,7.39,0,2.72-1.05,23.58-1.18,24.66-2.37,14.56-2.63,16.08-2.76,16.84-2.24,7.82-4.74,16.62-11.18,21.62-.66,.44-6.05,2.06-6.97,2.06-.26,0-3.16-.98-3.16-1.52,0-.11,6.18-6.52,6.71-7.39,5.13-8.15,6.84-10.76,9.6-22.81,1.18-5.32,3.03-19.23,3.03-23.9,0-14.45-1.18-14.45-3.55-14.56-4.74-.11-5.13-.22-5.13-1.52,0-.98,1.05-4.46,1.58-5.65,.92-2.39,3.16-2.39,3.55-2.39,.92,0,6.71,2.17,7.37,2.17,1.97,0,10.92-.54,13.55-.98,2.37-.33,4.47-.54,9.08-.65,9.87-.32,10.13-.43,10.13-2.17,0-.98-.66-6.19-1.45-7.17-.39-.44-2.89-1.52-2.89-1.96,0-1.19,2.63-3.37,5.26-3.37,3.16,0,9.21,1.52,9.21,3.48,0,.44-.4,1.2-.53,1.63-1.71,1.2-1.97,1.63-1.97,3.04Zm36.97,33.68c2.63,.11,3.42,.11,5.39-.11l.79,.54c-2.5,5.54-6.71,6.52-8.03,6.52-.53,0-9.74-.87-11.05-.98-3.16-.11-17.37-1.41-20.39-1.41-4.74,0-6.32,3.48-6.45,4.13-.39,1.74-.53,9.78-.66,11.08,.92,.98,1.71,1.52,2.89,1.52,.53,0,2.5-.22,2.89-.22,1.18,0,17.89,.98,21.18,1.3,.92-.98,2.11-1.96,3.82-1.96,1.97,0,6.32,1.85,6.32,3.15,0,.76-2.11,3.59-2.24,4.24-1.05,3.15-1.32,12.6-1.32,16.51q0,.65,.66,1.63c.39,.44,.79,1.2,.79,2.5,0,1.74-.66,4.24-3.95,4.24-.79,0-4.47,.11-5.13,.11-.39,0-2.5-.43-2.89-.43-5.79,0-31.44-.22-36.57-.22-1.58,0-5.53,.22-6.97,.33-.66,.11-3.29,1.3-3.82,1.3-2.37,0-2.76-4.02-2.76-4.89,0-.65,.53-3.26,.53-3.8,0-.33-.26-2.72-.26-3.04,0-.98-.13-4.78-.13-5.98,0-.98-.53-5.11-.53-5.87,0-1.52,0-1.63-.13-1.96-.39-.76-1.71-1.63-2.24-2.39,.79-1.52,2.5-4.56,4.08-4.56,.26,0,4.34,.98,4.87,1.09,2.1-.11,12.89-.65,13.42-.76,1.84-.43,2.24-2.06,2.24-5.21v-20.86c0-.54-.39-3.04-.39-3.48,0-1.96,0-4.56-1.58-5.21-1.71-.76-1.84-.87-2.11-1.96,1.18-.54,1.45-.76,3.82-2.06,.39-.22,1.05-.44,1.71-.44s6.58,2.5,6.71,2.5c.53,.43,.79,.87,.79,1.41,0,1.09-.92,2.17-1.84,3.04-.13,1.2-.92,6.63-.92,7.71,0,2.28,2.5,2.5,3.95,2.5,2.5,0,13.42-.33,15.66-.22l19.87,.65Zm-60.78,44.54c.39,1.3,1.97,1.41,3.03,1.41,2.89,0,16.58-.54,18.42-.54,1.58,0,8.16,.11,9.47,.11,1.84,0,10.26,.54,11.97,.54,4.6,0,6.05-.76,6.05-9.78,0-.87-.13-6.84-.92-7.28-.66-.44-3.03-.98-3.95-1.09-1.32-.11-19.47-.65-21.58-.65-1.71,0-9.21,.32-10.79,.32-3.68,0-7.5,0-10.92,1.2-.79,.22-1.18,.44-1.32,.98-.13,.43-.39,4.46-.39,4.78,0,.22,.79,9.56,.92,10Z"/><path class="cls-1" d="M30.12,180.4c12.63-7.61,18.29-16.84,18.29-16.95,0-1.2-.92-2.28-1.71-3.26,1.18-1.09,1.84-1.09,2.24-1.09,2.89,0,3.29,0,4.08,.65,2.1,1.63,2.63,2.06,2.63,3.04,0,.76-.26,1.2-3.29,5.32,1.97,2.72,7.76,6.74,11.71,8.91,7.24,4.02,7.37,4.13,7.37,5.54,0,1.3-2.24,2.61-4.08,2.61-2.5,0-5.66-2.61-9.74-6.63-4.47-4.35-4.87-4.78-7.89-7.17-1.58,.98-7.37,7.39-8.03,8.04-6.45,5.32-11.84,9.89-16.31,9.89-.53,0-4.47,0-6.71-3.37,1.71-.98,9.87-4.67,11.45-5.54Zm-6.05,26.07c.66,.43,2.11,1.41,3.42,1.41,1.18,0,11.58-1.3,13.81-1.52,4.34-.33,5.79-.54,5.79-2.72,0-1.09-.13-5.11-.39-6.19-9.74-.33-11.31,.33-13.42,2.06-3.82-.76-4.87-1.2-4.87-3.8,0-1.41,.13-3.8,2.24-4.13,.66,.76,1.18,1.09,2.37,1.09,1.45,0,9.47-.76,10.53-.76,2.1,0,3.16,0,3.16-1.41,0-4.02-1.58-5.11-3.68-6.41,1.18-.65,3.42-1.96,4.74-1.96,1.97,0,6.84,1.19,6.84,3.04,0,.44-1.05,2.93-1.32,4.13-.13,.43-.13,.98-.13,2.06,4.74,.33,9.74,.33,14.6,.11,.13,.22,1.45,.76,1.58,.87,.39,.22,.39,.44,.39,.54,0,1.41-3.68,4.46-7.5,4.46-1.32,0-7.1-.11-8.29-.11-1.58,0-1.97,.22-1.97,1.63,0,.76-.13,4.67-.13,4.89,0,2.06,1.97,2.17,4.21,2.28,1.58,0,8.03,.65,9.34,.65,5.92,0,6.58,0,6.97,.22s.53,.54,.53,.87c0,1.85-3.55,4.67-8.29,4.67-.79,0-15.79-.54-18.81-.54-2.37,0-16.84,.65-18.29,1.63-.39,.33-1.84,1.52-2.24,1.74-.53,.33-1.18,.33-2.89,.11,0-1.2-.13-1.52-.39-1.96-.13-.22-.92-1.52-.92-1.85,0-.65,1.45-3.69,1.71-4.24,.53-.87,.79-.87,1.32-.87Zm10.79,16.19c.4,0,11.18-.76,11.84-.76,1.71,0,9.21,.54,10.79,.54,1.18,0,1.97-.87,2.63-1.85,2.5-.22,7.76,1.2,7.76,3.37,0,.87-2.63,3.8-2.76,4.46-.13,.87-.79,8.58-.79,9.67,0,.65,.66,3.91,.66,4.56s-.66,1.74-1.32,2.71c-2.89,.76-3.68,.98-9.08,.98-2.1,0-11.58-.33-13.42-.33-.92,0-4.47,0-9.08,.87-1.84-1.74-2.5-4.67-2.5-5.43,0-.22,.66-1.41,.79-1.63,.26-.76,.26-1.3,.26-2.28,0-1.85,0-7.93-.39-9.23-.26-.43-1.97-2.28-1.97-2.82,0-1.09,2.37-3.26,3.03-3.91,1.84,.87,2.76,1.09,3.55,1.09Zm13.95,17.38c9.87,0,10.52,0,10.52-5.11,0-6.63-.26-6.84-12.1-6.84-6.45,0-9.74,.76-10.39,1.09-.66,.22-1.05,4.78-1.05,5,0,4.56,0,6.08,4.61,6.08,1.32,0,7.24-.22,8.42-.22Zm84.59,12.93c-4.47-.98-4.6-4.24-4.87-9.89,0-1.52-.79-13.8-1.05-14.23-.66-1.63-9.74-1.74-11.45-1.74-3.95,0-5.79,.11-7.63,.33-.13,3.8,0,15.54,0,18.79,0,1.2-1.45,5.98-4.47,5.98-1.05,0-1.45-.54-1.71-1.2-.53-1.85-.53-6.41-.66-8.8,0-1.41,.26-7.39,.26-8.69,0-2.61,0-5,.13-5.97-18.02-.54-18.16,.54-18.55,4.13-1.05,10.86-1.58,15.32-1.97,16.62-.79,2.28-2.89,3.59-4.34,3.59-1.32,0-1.84-1.63-1.84-2.39,0-1.2,1.18-6.41,1.32-7.5,.53-5.65,3.29-34.01,3.29-42.59,0-5.97-.26-6.3-3.95-8.47,1.05-1.74,1.58-2.39,3.68-4.56,.66,.22,3.82,1.2,4.47,1.2,.92,0,5-.54,5.92-.54,1.58-.11,12.37-.76,13.16-.76,0-1.09,.4-5.87,.4-6.84,0-1.85-1.84-1.85-3.03-1.85-19.21,0-21.71,.87-22.1,1.09-.79,.22-3.68,2.5-4.47,2.5-.26,0-1.32,0-1.58-.87-1.32-2.82-1.45-3.15-2.5-4.13,1.32-2.61,1.97-3.37,3.55-4.78,1.05,.76,1.97,1.41,3.42,1.41,.26,0,9.87-.76,11.71-.76,3.81,0,8.68,0,12.5-.22,1.18-.11,2.1-.33,2.1-2.61,0-7.39-1.18-7.93-4.08-9.23,0-1.85,.53-2.17,5.13-4.56,4.47,1.09,4.87,1.2,8.42,4.35-2.89,4.02-2.89,4.45-3.29,11.95,.53,0,1.97,.22,2.5,.22,4.34,0,8.68,.22,13.02,.43,1.84-2.06,2.5-6.41,2.5-6.95,0-1.3-3.16-3.91-3.95-3.91,.53-1.63,.92-2.5,1.84-2.5s4.21,1.52,5,1.63c.66,.11,3.55,.54,4.08,.87,.66,.33,1.97,1.09,1.97,1.85,0,1.63-1.32,3.26-2.11,4.02-.53,.76-2.63,4.35-3.03,5.11,1.05,0,6.05,.33,7.1,.33,4.47,.22,5,.22,6.45,1.3-.53,1.3-1.05,2.72-1.84,3.15-.39,.11-6.18,1.96-8.68,1.96-3.55,0-19.34-1.3-22.5-1.3-.92,0-2.1,.22-2.63,.33,0,.98-.39,5-.39,5.87,0,2.28,1.45,2.28,2.1,2.28,1.05,0,5.92,.11,6.84,.11s6.71,.65,7.24,.65c1.32-.33,3.42-1.41,4.47-1.96,1.32,.76,1.58,.87,4.34,1.74,.79,.54,1.71,1.41,1.71,2.17s-.39,1.09-1.71,2.61c-1.58,1.52-1.71,3.91-1.71,4.78,0,1.52,.39,8.04,.39,9.34,0,8.91,0,9.99,.92,18.9,.26,2.17,.66,12.17,.79,14.23,.13,1.63,1.05,9.56,1.05,11.52,0,.76,0,1.09-.66,2.17l-1.05,.33Zm-46.18-31.62c2.24,0,12.76-.22,14.87-.11,.26-2.39,.66-9.34,.26-12.49-3.29,.11-14.6,.33-16.18,1.09-1.58,.65-1.58,1.09-1.71,3.04-.13,.87-.39,4.56-.39,5.32s.13,1.2,.53,2.61c1.45,.54,1.97,.54,2.63,.54Zm15.66-28.79c-2.89-.22-9.08,0-12.1,.22-3.82,.33-5.79,.43-5.79,3.48,0,.87-.13,4.67-.13,5.43,0,.65,0,1.63,2.63,1.63,1.05,0,5.26-.22,6.18-.22,.53,0,4.08,.22,4.74,.22,1.32,0,3.29-.32,4.34-.43,.13-6.63,.13-7.39,.13-10.32Zm10,10.54c2.5,0,10.52,0,11.71-.33,1.84-.43,2.1-1.52,2.1-5.21,0-4.45,0-5.32-17.76-5.21-.26,2.06-.53,8.58-.53,10.54,1.71,.11,3.29,.22,4.47,.22Zm5.79,17.93c7.63,0,8.55,0,8.55-1.85,0-.54,0-8.37-.13-8.58-.39-1.96-6.45-1.96-10-1.96-2.5,0-6.71,.33-8.42,.33-.26,1.2-.26,1.74-.26,2.17,0,1.52,.13,8.15,.13,9.56,2.24,.22,4.6,.33,10.13,.33Z"/></g></g><g><g><path class="cls-1" d="M48.03,12.48c-1.24-.4-2.27-.73-3.09-.97-.83-.24-1.53-.44-2.11-.57-.58-.14-1.08-.23-1.51-.27-.42-.04-.84-.06-1.26-.06-.88,0-1.68,.17-2.41,.51-.73,.34-1.4,.82-1.99,1.44,.18,.19,.38,.37,.6,.53,.22,.16,.52,.34,.91,.54,.39,.2,.88,.44,1.49,.7,.61,.27,1.38,.6,2.34,1,1.08,.45,1.96,.83,2.65,1.17s1.22,.63,1.6,.91,.66,.53,.81,.77c.15,.23,.23,.48,.23,.73,0,.62-.3,1.25-.91,1.9-.61,.65-1.4,1.24-2.38,1.79-.98,.54-2.09,.99-3.32,1.34-1.24,.35-2.49,.53-3.75,.53-.59,0-1.24-.04-1.93-.13s-1.41-.21-2.14-.37c-.73-.16-1.46-.35-2.18-.57-.72-.22-1.4-.47-2.05-.75l2.2-2.49c1.57,.55,3.03,.99,4.37,1.32,1.34,.33,2.52,.49,3.55,.49,2.14,0,3.9-.69,5.29-2.07-1.31-.7-2.59-1.32-3.83-1.87-1.24-.54-2.37-1.03-3.4-1.45-.7-.28-1.27-.54-1.74-.78-.46-.24-.84-.49-1.14-.75-.3-.25-.5-.52-.62-.78-.12-.27-.17-.57-.17-.91,0-.45,.28-.96,.83-1.53s1.28-1.11,2.16-1.61c.89-.5,1.9-.92,3.03-1.26,1.13-.34,2.27-.51,3.4-.51,1.52,0,2.96,.13,4.33,.38,1.36,.25,2.86,.71,4.48,1.37l-2.36,2.3Z"/><path class="cls-1" d="M80.44,8.46c-2.27,2.68-3.9,5.08-4.91,7.21-1,2.13-1.53,3.99-1.58,5.58-.03,.49-.03,.88,0,1.18,.03,.3,.06,.68,.12,1.15l-4.87,.89c0-1.34,.13-2.68,.39-4.04,.26-1.35,.68-2.66,1.28-3.94-1.47,0-2.85,.07-4.13,.21-1.29,.14-2.41,.32-3.36,.56-.44,.96-.9,1.87-1.39,2.74-.49,.87-.99,1.64-1.49,2.3s-1,1.19-1.49,1.58c-.49,.39-.94,.59-1.35,.59-.31,0-.6-.09-.87-.27s-.51-.41-.71-.69c-.21-.28-.37-.57-.48-.89-.12-.32-.17-.62-.17-.89,0-.19,.1-.44,.29-.73s.44-.62,.75-.97c.31-.35,.68-.7,1.1-1.05,.42-.35,.87-.67,1.33-.97,.26-.17,.51-.46,.75-.86,.24-.4,.46-.95,.66-1.64s.35-1.54,.46-2.54c.12-1,.17-2.17,.17-3.51l4.87-.8c-.13,1.02-.37,2.17-.71,3.45s-.74,2.52-1.18,3.73c1-.3,2.12-.55,3.34-.77,1.22-.21,2.72-.43,4.5-.64,.26-.51,.5-.98,.73-1.4,.23-.43,.46-.83,.7-1.21s.48-.76,.73-1.13c.26-.37,.54-.78,.85-1.23l5.68-.99Z"/><path class="cls-1" d="M105.75,13.44c0,1-.26,1.97-.79,2.9-.53,.94-1.21,1.81-2.05,2.63-.84,.82-1.78,1.57-2.82,2.27s-2.08,1.29-3.11,1.79-2.01,.89-2.94,1.16c-.93,.28-1.69,.42-2.28,.42-.52,0-1.18-.18-1.99-.53s-1.59-.8-2.34-1.36c-.75-.55-1.39-1.16-1.93-1.82-.54-.66-.81-1.3-.81-1.91,0-.96,.25-1.95,.75-2.97,.5-1.02,1.21-2,2.12-2.94,.91-.94,1.99-1.79,3.23-2.57s2.59-1.41,4.06-1.9l3.05,.99,5.02-.83c.23,0,.51,.11,.83,.33,.32,.22,.63,.54,.93,.94,.3,.4,.55,.89,.75,1.47,.21,.57,.31,1.21,.31,1.92Zm-5.18,1.12c0-.38-.03-.73-.08-1.05-.05-.32-.14-.64-.27-.96-.13-.32-.3-.66-.52-1.02-.22-.36-.51-.78-.87-1.24l-1.16,.13c-1.54,.64-2.83,1.31-3.86,2.01-1.03,.7-1.87,1.46-2.51,2.28-.64,.82-1.1,1.7-1.37,2.65s-.41,1.98-.41,3.11c0,.15,.03,.29,.08,.43s.17,.3,.35,.49c.18,.19,.43,.42,.73,.67,.31,.26,.72,.57,1.24,.96,1.08-.57,2.14-1.18,3.19-1.82,1.04-.64,1.97-1.31,2.78-2.03,.81-.71,1.46-1.45,1.95-2.22,.49-.77,.73-1.56,.73-2.39Z"/><path class="cls-1" d="M131.56,11.33c0,.92-.3,1.8-.91,2.65s-1.4,1.6-2.38,2.25c-.98,.65-2.07,1.17-3.28,1.56-1.21,.39-2.42,.59-3.63,.59-.49,0-.97-.16-1.43-.48-.46-.32-.7-.69-.7-1.12,0-.21,.17-.37,.5-.48s.8-.1,1.39,.03c.28,.06,.66,.13,1.14,.21,.48,.08,1.06,.13,1.76,.18,1.08-.68,1.89-1.43,2.43-2.25,.54-.82,.88-1.77,1-2.86l-1.82-.7c-1.93,.62-3.7,1.79-5.31,3.51-1.61,1.72-2.9,3.87-3.88,6.45-.31,.81-.57,1.45-.79,1.93s-.42,.85-.62,1.12c-.19,.27-.39,.44-.58,.53-.19,.08-.41,.13-.64,.13-.33,0-.71-.13-1.12-.38-.41-.25-.9-.68-1.47-1.28-.21-.19-.35-.38-.42-.57s-.07-.42,.02-.69c.09-.27,.28-.59,.58-.97s.73-.86,1.29-1.44c.39-.38,.71-.71,.97-.97,.26-.27,.47-.51,.64-.73,.17-.22,.3-.42,.41-.61,.1-.18,.19-.39,.27-.62,.26-.66,.46-1.24,.62-1.75s.27-1.02,.35-1.53c.08-.51,.12-1.04,.12-1.6s-.01-1.19-.04-1.91l4.87-.96c-.31,.87-.57,1.64-.79,2.31-.22,.67-.44,1.39-.68,2.15,.77-.83,1.49-1.52,2.14-2.07,.66-.55,1.26-.99,1.82-1.32,.55-.33,1.07-.57,1.55-.72,.48-.15,.92-.22,1.33-.22,.7,0,1.36,.08,2.01,.24,.64,.16,1.2,.37,1.68,.62,.48,.26,.86,.54,1.16,.86,.3,.32,.44,.63,.44,.92Z"/></g><rect class="cls-1" x="140.59" y="15.74" width="37.19" height="2" transform="translate(67.27 147.78) rotate(-60.96)"/><rect class="cls-1" x="9.5" y="-.87" width="2" height="38.83" transform="translate(-7.82 7.65) rotate(-29.74)"/></g></g></g></svg>