<?xml version="1.0" encoding="UTF-8"?><svg id="_レイヤー_2" xmlns="http://www.w3.org/2000/svg" viewBox="0 0 32.93 32.93"><defs><style>.cls-1{fill:#e9503a;}</style></defs><g id="_レイヤー_1-2"><g><path class="cls-1" d="M16.41,2.97c4.4-.02,4.92,0,6.65,.07,1.61,.07,2.48,.33,3.06,.55,.77,.3,1.32,.65,1.9,1.22,.58,.57,.94,1.12,1.24,1.89,.23,.58,.5,1.45,.58,3.05,.09,1.74,.11,2.26,.12,6.65,.02,4.4,0,4.92-.07,6.65-.07,1.61-.33,2.48-.55,3.06-.3,.77-.65,1.32-1.22,1.9-.57,.58-1.12,.94-1.89,1.24-.58,.23-1.45,.5-3.05,.58-1.74,.09-2.26,.11-6.65,.12-4.4,.02-4.92,0-6.65-.07-1.61-.07-2.48-.33-3.06-.55-.77-.3-1.32-.65-1.9-1.22-.58-.57-.94-1.12-1.24-1.89-.23-.58-.5-1.45-.58-3.05-.09-1.74-.11-2.26-.12-6.65-.02-4.4,0-4.92,.07-6.65,.07-1.61,.33-2.48,.55-3.06,.3-.77,.65-1.32,1.22-1.9,.57-.58,1.12-.94,1.89-1.24,.58-.23,1.45-.5,3.05-.58,1.74-.09,2.26-.11,6.65-.12m-.01-2.97c-4.47,.02-5.03,.04-6.79,.13-1.75,.09-2.95,.37-3.99,.78-1.08,.43-2,.99-2.91,1.91-.91,.92-1.47,1.84-1.89,2.92C.42,6.8,.15,8,.08,9.75,0,11.5-.01,12.06,0,16.54c.02,4.47,.04,5.03,.13,6.79,.09,1.75,.37,2.95,.78,3.99,.43,1.08,.99,2,1.91,2.91,.92,.91,1.84,1.47,2.92,1.89,1.05,.4,2.25,.68,4,.75,1.76,.07,2.32,.09,6.79,.07,4.47-.02,5.03-.04,6.79-.13,1.75-.09,2.95-.37,3.99-.78,1.08-.43,2-.99,2.91-1.91,.91-.92,1.47-1.84,1.89-2.92,.4-1.05,.68-2.25,.75-4,.07-1.76,.09-2.32,.07-6.79-.02-4.47-.04-5.03-.13-6.79-.09-1.75-.37-2.95-.78-3.99-.43-1.08-.99-2-1.91-2.91-.92-.91-1.84-1.47-2.92-1.89-1.05-.4-2.25-.68-4-.75C21.43,0,20.87-.01,16.4,0h0Z"/><path class="cls-1" d="M16.43,8.01c-4.67,.02-8.44,3.82-8.42,8.49,.02,4.67,3.82,8.44,8.49,8.42,4.67-.02,8.44-3.82,8.42-8.49-.02-4.67-3.82-8.44-8.49-8.42Zm.06,13.94c-3.03,.01-5.5-2.43-5.51-5.46-.01-3.03,2.43-5.5,5.46-5.51,3.03-.01,5.5,2.43,5.51,5.46,.01,3.03-2.43,5.5-5.46,5.51Z"/><circle class="cls-1" cx="25.22" cy="7.64" r="1.98"/></g></g></svg>