<?xml version="1.0" encoding="UTF-8"?><svg id="_レイヤー_2" xmlns="http://www.w3.org/2000/svg" viewBox="0 0 94.63 87.94"><defs><style>.cls-1{fill:#fff;}.cls-2{fill:#fcd037;}</style></defs><g id="_レイヤー_1-2"><g><path class="cls-2" d="M54.88,4.83c7.15-.03,7.99,0,10.82,.11,2.61,.11,4.03,.54,4.97,.9,1.25,.48,2.15,1.06,3.09,1.99,.94,.93,1.52,1.82,2.01,3.07,.37,.94,.81,2.36,.94,4.97,.14,2.82,.17,3.67,.2,10.81,.03,7.15,0,7.99-.11,10.82-.11,2.61-.54,4.03-.9,4.97-.48,1.25-1.06,2.15-1.99,3.09-.93,.94-1.82,1.52-3.07,2.01-.94,.37-2.36,.81-4.97,.94-2.82,.14-3.67,.17-10.81,.2-7.15,.03-7.99,0-10.82-.11-2.61-.11-4.03-.54-4.97-.9-1.25-.48-2.15-1.06-3.09-1.99-.94-.93-1.52-1.82-2.01-3.07-.37-.94-.81-2.36-.94-4.97-.14-2.82-.17-3.67-.2-10.81-.03-7.15,0-7.99,.11-10.82,.11-2.61,.54-4.03,.9-4.97,.48-1.25,1.06-2.15,1.99-3.09,.93-.94,1.82-1.52,3.07-2.01,.94-.37,2.36-.81,4.97-.94,2.82-.14,3.67-.17,10.81-.2m-.02-4.82c-7.27,.03-8.18,.06-11.03,.21-2.85,.14-4.79,.6-6.49,1.27-1.76,.69-3.25,1.61-4.73,3.11-1.48,1.49-2.39,2.99-3.07,4.75-.65,1.71-1.1,3.65-1.22,6.5-.12,2.86-.15,3.77-.12,11.04,.03,7.27,.06,8.18,.21,11.03,.14,2.85,.6,4.79,1.27,6.49,.69,1.76,1.61,3.25,3.11,4.73,1.49,1.48,2.99,2.39,4.75,3.07,1.71,.65,3.65,1.1,6.5,1.22,2.86,.12,3.77,.15,11.04,.12,7.27-.03,8.18-.06,11.03-.21,2.85-.14,4.79-.6,6.49-1.27,1.76-.69,3.25-1.61,4.73-3.11,1.48-1.49,2.39-2.99,3.07-4.75,.65-1.71,1.1-3.65,1.22-6.5,.12-2.86,.15-3.77,.12-11.04-.03-7.27-.06-8.18-.21-11.03-.14-2.85-.6-4.79-1.27-6.49-.69-1.76-1.61-3.25-3.11-4.73-1.49-1.48-2.99-2.39-4.75-3.07-1.71-.65-3.65-1.1-6.5-1.22-2.86-.12-3.77-.15-11.04-.12h0Z"/><path class="cls-2" d="M54.91,13.03c-7.59,.03-13.72,6.21-13.69,13.8,.03,7.59,6.21,13.72,13.8,13.69,7.59-.03,13.72-6.21,13.69-13.8-.03-7.59-6.21-13.72-13.8-13.69Zm.09,22.66c-4.93,.02-8.94-3.96-8.96-8.88-.02-4.93,3.96-8.94,8.88-8.96,4.93-.02,8.94,3.96,8.96,8.88,.02,4.93-3.96,8.94-8.88,8.96Z"/><circle class="cls-2" cx="69.2" cy="12.43" r="3.21"/></g><g><path class="cls-2" d="M8.59,74.42c-.81-.41-1.51-.7-2.09-.87-.59-.17-1.11-.25-1.57-.25-.4,0-.81,.29-1.24,.86,.32,.19,.65,.38,1,.56,.35,.18,.78,.4,1.29,.65,.52,.25,.94,.49,1.25,.7,.31,.21,.53,.42,.67,.63s.19,.42,.18,.63c-.02,.21-.09,.45-.21,.7-.21,.43-.42,.79-.64,1.07-.22,.29-.48,.51-.76,.68-.29,.17-.61,.28-.96,.35-.36,.06-.77,.09-1.25,.09-.67,0-1.34-.09-2.01-.26-.67-.17-1.42-.46-2.23-.86l.98-1.55c.67,.33,1.38,.6,2.14,.81,.76,.21,1.42,.31,1.97,.31,.41,0,.69-.03,.83-.1,.14-.06,.26-.21,.36-.43,.03-.08,.04-.15,.04-.21,0-.06-.05-.14-.13-.23-.08-.09-.21-.19-.38-.3-.17-.11-.42-.25-.74-.4-.65-.3-1.18-.58-1.59-.82-.41-.25-.74-.48-.98-.69-.24-.21-.4-.41-.5-.58-.09-.17-.14-.33-.14-.48,0-.19,.09-.43,.27-.73,.18-.29,.44-.58,.76-.86,.33-.28,.71-.52,1.15-.71s.93-.3,1.45-.3c.46,0,1.04,.09,1.75,.27s1.54,.5,2.49,.94l-1.14,1.36Z"/><path class="cls-2" d="M21.13,73.73c0,.46-.09,.84-.27,1.14-.18,.3-.53,.56-1.04,.77-.51,.21-1.21,.4-2.11,.56-.9,.16-2.06,.33-3.49,.52,.03,.32,.16,.66,.39,1.04,.23,.37,.53,.67,.89,.89,.46-.1,.89-.19,1.3-.29,.4-.09,.8-.2,1.18-.31,.38-.11,.77-.24,1.15-.38,.39-.14,.8-.31,1.23-.5l-.07,.64c-.02,.11-.04,.21-.08,.3-.04,.09-.14,.18-.3,.27-.16,.1-.4,.21-.71,.35s-.76,.31-1.33,.51c-.59,.22-1.18,.4-1.79,.55-.6,.14-1.09,.21-1.45,.21-.33,0-.68-.08-1.04-.23-.36-.15-.68-.34-.98-.56-.29-.22-.53-.46-.71-.73s-.27-.51-.27-.75c0-.22,.02-.43,.07-.63s.13-.42,.25-.68,.29-.56,.51-.9c.22-.35,.5-.79,.83-1.31,.41-.6,1.09-1.11,2.04-1.51,.94-.4,2.14-.61,3.58-.61,.83,0,1.4,.11,1.73,.33,.33,.22,.49,.65,.49,1.29Zm-2.43-.71l-2.5,.31c-.32,.41-.61,.81-.87,1.18s-.54,.81-.85,1.32c.91-.08,1.63-.17,2.19-.26,.55-.09,.98-.21,1.27-.36,.29-.14,.49-.31,.6-.5,.1-.19,.15-.42,.15-.69v-1Z"/><path class="cls-2" d="M32.54,73.73c0,.46-.09,.84-.27,1.14-.18,.3-.53,.56-1.04,.77-.51,.21-1.21,.4-2.11,.56-.9,.16-2.06,.33-3.49,.52,.03,.32,.16,.66,.39,1.04,.23,.37,.53,.67,.89,.89,.46-.1,.89-.19,1.3-.29,.4-.09,.8-.2,1.18-.31,.38-.11,.77-.24,1.15-.38,.39-.14,.8-.31,1.23-.5l-.07,.64c-.02,.11-.04,.21-.08,.3-.04,.09-.14,.18-.3,.27-.16,.1-.4,.21-.71,.35s-.76,.31-1.33,.51c-.59,.22-1.18,.4-1.79,.55-.6,.14-1.09,.21-1.45,.21-.33,0-.68-.08-1.04-.23-.36-.15-.68-.34-.98-.56-.29-.22-.53-.46-.71-.73s-.27-.51-.27-.75c0-.22,.02-.43,.07-.63s.13-.42,.25-.68,.29-.56,.51-.9c.22-.35,.5-.79,.83-1.31,.41-.6,1.09-1.11,2.04-1.51,.94-.4,2.14-.61,3.58-.61,.83,0,1.4,.11,1.73,.33,.33,.22,.49,.65,.49,1.29Zm-2.43-.71l-2.5,.31c-.32,.41-.61,.81-.87,1.18s-.54,.81-.85,1.32c.91-.08,1.63-.17,2.19-.26,.55-.09,.98-.21,1.27-.36,.29-.14,.49-.31,.6-.5,.1-.19,.15-.42,.15-.69v-1Z"/><path class="cls-2" d="M55.5,73.09c.13,.16,.18,.34,.15,.55-.02,.21-.17,.56-.44,1.07-.7,1.38-1.09,2.97-1.19,4.78l-2.69,.59c.03-.41,.1-.86,.21-1.34s.26-.98,.44-1.48c.18-.5,.4-1,.64-1.49,.25-.49,.52-.95,.82-1.38l-.52-.5c-.38,.02-.8,.17-1.26,.45-.46,.29-.9,.63-1.32,1.05-.42,.41-.79,.86-1.11,1.34-.32,.48-.52,.94-.59,1.37-.14,.75-.31,1.25-.5,1.5-.19,.25-.42,.38-.69,.38-.16,0-.33-.06-.51-.19-.18-.13-.35-.29-.51-.48s-.29-.38-.39-.58-.15-.37-.15-.51c0-.13,.05-.29,.15-.49,.1-.2,.34-.5,.7-.89,.35-.36,.62-.73,.82-1.08,.2-.36,.38-.8,.56-1.32l-.6-.67c-1.19,.33-2.13,.84-2.82,1.51-.69,.67-1.16,1.56-1.42,2.65-.11,.48-.21,.85-.29,1.13-.08,.28-.17,.49-.26,.64-.1,.15-.2,.25-.32,.3-.12,.05-.27,.07-.46,.07-.14,0-.3-.06-.48-.19s-.34-.28-.51-.45-.31-.35-.42-.54c-.11-.18-.17-.34-.17-.46,0-.14,.03-.3,.09-.48s.21-.37,.43-.6c.22-.25,.4-.5,.54-.73,.13-.23,.24-.51,.31-.83s.11-.73,.12-1.21c0-.48-.01-1.11-.06-1.87l2.33-.57v.76c0,.37-.02,.69-.05,.96-.03,.28-.08,.58-.14,.89,.44-.41,.9-.78,1.38-1.09,.48-.32,.94-.58,1.38-.8,.44-.21,.86-.38,1.25-.49s.72-.17,.99-.17c.11,0,.25,.03,.4,.1,.16,.06,.31,.14,.45,.24,.14,.1,.26,.2,.36,.3,.1,.1,.14,.2,.14,.3,0,.21,0,.42-.02,.63-.02,.21-.06,.42-.14,.61,.35-.32,.72-.61,1.11-.89,.39-.28,.77-.52,1.13-.71s.71-.35,1.05-.46c.33-.11,.63-.17,.9-.17,.13,0,.29,.06,.48,.19s.42,.37,.69,.74Z"/><path class="cls-2" d="M67.21,74.09c0,.54-.13,1.06-.38,1.56-.25,.5-.58,.98-.99,1.43-.4,.45-.86,.87-1.36,1.24-.5,.37-1,.69-1.5,.95s-.98,.47-1.43,.62c-.45,.15-.82,.23-1.11,.23-.33,0-.67-.08-1.01-.25-.34-.17-.65-.37-.94-.62-.29-.25-.52-.52-.69-.81-.17-.29-.26-.58-.26-.84,0-.52,.14-1.06,.42-1.61,.28-.55,.65-1.07,1.11-1.56,.46-.49,.98-.93,1.57-1.32s1.2-.69,1.83-.89l.81,.57c.49-.13,.89-.23,1.2-.31s.56-.14,.75-.18c.19-.04,.34-.06,.45-.07,.11,0,.21-.01,.31-.01,.4,0,.7,.17,.9,.52,.21,.35,.31,.8,.31,1.36Zm-2.76,.83c0-.22-.05-.47-.14-.74-.09-.27-.22-.54-.38-.81h-.52c-.49,.27-.93,.59-1.32,.96-.39,.37-.72,.76-1,1.17-.28,.41-.49,.81-.63,1.23-.14,.41-.21,.79-.21,1.14,0,.1,0,.18,.01,.26,0,.08,.03,.18,.06,.31l.52,.19c.49-.21,.96-.45,1.4-.73s.83-.58,1.15-.9,.58-.66,.77-1.01,.29-.71,.29-1.07Z"/><path class="cls-2" d="M76.97,72.4c-.13,.25-.24,.47-.33,.65-.09,.18-.18,.36-.26,.52-.08,.17-.16,.34-.24,.51-.08,.17-.17,.37-.26,.6l-1.79-.21c-.17,.1-.36,.26-.56,.49-.2,.23-.38,.5-.56,.8-.17,.3-.33,.62-.48,.95-.14,.33-.25,.65-.31,.95-.13,.57-.25,1.04-.36,1.39-.11,.36-.22,.63-.33,.83-.11,.2-.22,.33-.33,.4-.11,.07-.22,.11-.33,.11-.1,0-.23-.08-.39-.23-.17-.15-.33-.33-.49-.52-.16-.2-.3-.4-.42-.62-.12-.21-.18-.39-.18-.54,0-.27,.05-.52,.17-.74,.11-.22,.33-.52,.64-.9,.13-.14,.22-.33,.27-.56,.06-.23,.08-.58,.08-1.04,0-.68-.02-1.27-.05-1.77-.03-.5-.07-.9-.12-1.2l2.43-.59c.08,1.06,0,2.09-.24,3.09,.37-.57,.69-1.04,.99-1.42,.29-.37,.57-.67,.82-.89,.25-.22,.49-.38,.71-.48,.22-.1,.44-.14,.67-.14,.14,0,.33,.05,.56,.14,.23,.09,.46,.23,.68,.4Z"/><path class="cls-2" d="M88.13,73.73c0,.46-.09,.84-.27,1.14-.18,.3-.53,.56-1.04,.77-.51,.21-1.21,.4-2.11,.56-.9,.16-2.06,.33-3.49,.52,.03,.32,.16,.66,.39,1.04,.23,.37,.53,.67,.89,.89,.46-.1,.89-.19,1.3-.29,.4-.09,.8-.2,1.18-.31,.38-.11,.77-.24,1.15-.38,.39-.14,.8-.31,1.23-.5l-.07,.64c-.02,.11-.04,.21-.08,.3-.04,.09-.14,.18-.3,.27-.16,.1-.4,.21-.71,.35s-.76,.31-1.33,.51c-.59,.22-1.18,.4-1.79,.55-.6,.14-1.09,.21-1.45,.21-.33,0-.68-.08-1.04-.23-.36-.15-.68-.34-.98-.56-.29-.22-.53-.46-.71-.73s-.27-.51-.27-.75c0-.22,.02-.43,.07-.63s.13-.42,.25-.68,.29-.56,.51-.9c.22-.35,.5-.79,.83-1.31,.41-.6,1.09-1.11,2.04-1.51,.94-.4,2.14-.61,3.58-.61,.83,0,1.4,.11,1.73,.33,.33,.22,.49,.65,.49,1.29Zm-2.43-.71l-2.5,.31c-.32,.41-.61,.81-.87,1.18s-.54,.81-.85,1.32c.91-.08,1.63-.17,2.19-.26,.55-.09,.98-.21,1.27-.36,.29-.14,.49-.31,.6-.5,.1-.19,.15-.42,.15-.69v-1Z"/><path class="cls-2" d="M94.32,78.87c-.24,.22-.51,.39-.81,.51s-.59,.18-.88,.18c-.37,0-.69-.11-.99-.33-.29-.22-.44-.49-.44-.81,0-.22,.12-.44,.34-.67,.23-.22,.49-.33,.77-.33,.54,0,.94,.17,1.19,.52,.13,.16,.25,.3,.38,.42s.27,.21,.43,.27c.08,.03,.12,.06,.12,.08s-.04,.08-.12,.16Zm.24-9.54c.06,.22,.08,.57,.06,1.04-.02,.47-.1,1.08-.23,1.84-.05,.32-.13,.65-.24,1.01-.11,.36-.24,.71-.39,1.05-.15,.34-.33,.66-.52,.96-.2,.3-.41,.56-.63,.76-.24,.24-.31,.13-.21-.31,.06-.35,.1-.74,.11-1.17s-.01-.85-.06-1.26c-.05-.41-.12-.81-.21-1.19-.09-.38-.21-.71-.36-1-.17-.33-.28-.63-.32-.9-.04-.27-.04-.53,.01-.79,.09-.48,.55-.71,1.38-.71,.97,0,1.51,.22,1.62,.67Z"/></g><g><path class="cls-1" d="M8.59,67.33c-.81-.41-1.51-.7-2.09-.87-.59-.17-1.11-.25-1.57-.25-.4,0-.81,.29-1.24,.86,.32,.19,.65,.38,1,.56,.35,.18,.78,.4,1.29,.65,.52,.25,.94,.49,1.25,.7,.31,.21,.53,.42,.67,.63s.19,.42,.18,.63c-.02,.21-.09,.45-.21,.7-.21,.43-.42,.79-.64,1.07-.22,.29-.48,.51-.76,.68-.29,.17-.61,.28-.96,.35-.36,.06-.77,.09-1.25,.09-.67,0-1.34-.09-2.01-.26-.67-.17-1.42-.46-2.23-.86l.98-1.55c.67,.33,1.38,.6,2.14,.81,.76,.21,1.42,.31,1.97,.31,.41,0,.69-.03,.83-.1,.14-.06,.26-.21,.36-.43,.03-.08,.04-.15,.04-.21,0-.06-.05-.14-.13-.23-.08-.09-.21-.19-.38-.3-.17-.11-.42-.25-.74-.4-.65-.3-1.18-.58-1.59-.82-.41-.25-.74-.48-.98-.69-.24-.21-.4-.41-.5-.58-.09-.17-.14-.33-.14-.48,0-.19,.09-.43,.27-.73,.18-.29,.44-.58,.76-.86,.33-.28,.71-.52,1.15-.71s.93-.3,1.45-.3c.46,0,1.04,.09,1.75,.27s1.54,.5,2.49,.94l-1.14,1.36Z"/><path class="cls-1" d="M21.13,66.64c0,.46-.09,.84-.27,1.14-.18,.3-.53,.56-1.04,.77-.51,.21-1.21,.4-2.11,.56-.9,.16-2.06,.33-3.49,.52,.03,.32,.16,.66,.39,1.04,.23,.37,.53,.67,.89,.89,.46-.1,.89-.19,1.3-.29,.4-.09,.8-.2,1.18-.31,.38-.11,.77-.24,1.15-.38,.39-.14,.8-.31,1.23-.5l-.07,.64c-.02,.11-.04,.21-.08,.3-.04,.09-.14,.18-.3,.27-.16,.1-.4,.21-.71,.35s-.76,.31-1.33,.51c-.59,.22-1.18,.4-1.79,.55-.6,.14-1.09,.21-1.45,.21-.33,0-.68-.08-1.04-.23-.36-.15-.68-.34-.98-.56-.29-.22-.53-.46-.71-.73s-.27-.51-.27-.75c0-.22,.02-.43,.07-.63s.13-.42,.25-.68,.29-.56,.51-.9c.22-.35,.5-.79,.83-1.31,.41-.6,1.09-1.11,2.04-1.51,.94-.4,2.14-.61,3.58-.61,.83,0,1.4,.11,1.73,.33,.33,.22,.49,.65,.49,1.29Zm-2.43-.71l-2.5,.31c-.32,.41-.61,.81-.87,1.18s-.54,.81-.85,1.32c.91-.08,1.63-.17,2.19-.26,.55-.09,.98-.21,1.27-.36,.29-.14,.49-.31,.6-.5,.1-.19,.15-.42,.15-.69v-1Z"/><path class="cls-1" d="M32.54,66.64c0,.46-.09,.84-.27,1.14-.18,.3-.53,.56-1.04,.77-.51,.21-1.21,.4-2.11,.56-.9,.16-2.06,.33-3.49,.52,.03,.32,.16,.66,.39,1.04,.23,.37,.53,.67,.89,.89,.46-.1,.89-.19,1.3-.29,.4-.09,.8-.2,1.18-.31,.38-.11,.77-.24,1.15-.38,.39-.14,.8-.31,1.23-.5l-.07,.64c-.02,.11-.04,.21-.08,.3-.04,.09-.14,.18-.3,.27-.16,.1-.4,.21-.71,.35s-.76,.31-1.33,.51c-.59,.22-1.18,.4-1.79,.55-.6,.14-1.09,.21-1.45,.21-.33,0-.68-.08-1.04-.23-.36-.15-.68-.34-.98-.56-.29-.22-.53-.46-.71-.73s-.27-.51-.27-.75c0-.22,.02-.43,.07-.63s.13-.42,.25-.68,.29-.56,.51-.9c.22-.35,.5-.79,.83-1.31,.41-.6,1.09-1.11,2.04-1.51,.94-.4,2.14-.61,3.58-.61,.83,0,1.4,.11,1.73,.33,.33,.22,.49,.65,.49,1.29Zm-2.43-.71l-2.5,.31c-.32,.41-.61,.81-.87,1.18s-.54,.81-.85,1.32c.91-.08,1.63-.17,2.19-.26,.55-.09,.98-.21,1.27-.36,.29-.14,.49-.31,.6-.5,.1-.19,.15-.42,.15-.69v-1Z"/><path class="cls-1" d="M55.5,66c.13,.16,.18,.34,.15,.55-.02,.21-.17,.56-.44,1.07-.7,1.38-1.09,2.97-1.19,4.78l-2.69,.59c.03-.41,.1-.86,.21-1.34s.26-.98,.44-1.48c.18-.5,.4-1,.64-1.49,.25-.49,.52-.95,.82-1.38l-.52-.5c-.38,.02-.8,.17-1.26,.45-.46,.29-.9,.63-1.32,1.05-.42,.41-.79,.86-1.11,1.34-.32,.48-.52,.94-.59,1.37-.14,.75-.31,1.25-.5,1.5-.19,.25-.42,.38-.69,.38-.16,0-.33-.06-.51-.19-.18-.13-.35-.29-.51-.48s-.29-.38-.39-.58-.15-.37-.15-.51c0-.13,.05-.29,.15-.49,.1-.2,.34-.5,.7-.89,.35-.36,.62-.73,.82-1.08,.2-.36,.38-.8,.56-1.32l-.6-.67c-1.19,.33-2.13,.84-2.82,1.51-.69,.67-1.16,1.56-1.42,2.65-.11,.48-.21,.85-.29,1.13-.08,.28-.17,.49-.26,.64-.1,.15-.2,.25-.32,.3-.12,.05-.27,.07-.46,.07-.14,0-.3-.06-.48-.19s-.34-.28-.51-.45-.31-.35-.42-.54c-.11-.18-.17-.34-.17-.46,0-.14,.03-.3,.09-.48s.21-.37,.43-.6c.22-.25,.4-.5,.54-.73,.13-.23,.24-.51,.31-.83s.11-.73,.12-1.21c0-.48-.01-1.11-.06-1.87l2.33-.57v.76c0,.37-.02,.69-.05,.96-.03,.28-.08,.58-.14,.89,.44-.41,.9-.78,1.38-1.09,.48-.32,.94-.58,1.38-.8,.44-.21,.86-.38,1.25-.49s.72-.17,.99-.17c.11,0,.25,.03,.4,.1,.16,.06,.31,.14,.45,.24,.14,.1,.26,.2,.36,.3,.1,.1,.14,.2,.14,.3,0,.21,0,.42-.02,.63-.02,.21-.06,.42-.14,.61,.35-.32,.72-.61,1.11-.89,.39-.28,.77-.52,1.13-.71s.71-.35,1.05-.46c.33-.11,.63-.17,.9-.17,.13,0,.29,.06,.48,.19s.42,.37,.69,.74Z"/><path class="cls-1" d="M67.21,67c0,.54-.13,1.06-.38,1.56-.25,.5-.58,.98-.99,1.43-.4,.45-.86,.87-1.36,1.24-.5,.37-1,.69-1.5,.95s-.98,.47-1.43,.62c-.45,.15-.82,.23-1.11,.23-.33,0-.67-.08-1.01-.25-.34-.17-.65-.37-.94-.62-.29-.25-.52-.52-.69-.81-.17-.29-.26-.58-.26-.84,0-.52,.14-1.06,.42-1.61,.28-.55,.65-1.07,1.11-1.56,.46-.49,.98-.93,1.57-1.32s1.2-.69,1.83-.89l.81,.57c.49-.13,.89-.23,1.2-.31s.56-.14,.75-.18c.19-.04,.34-.06,.45-.07,.11,0,.21-.01,.31-.01,.4,0,.7,.17,.9,.52,.21,.35,.31,.8,.31,1.36Zm-2.76,.83c0-.22-.05-.47-.14-.74-.09-.27-.22-.54-.38-.81h-.52c-.49,.27-.93,.59-1.32,.96-.39,.37-.72,.76-1,1.17-.28,.41-.49,.81-.63,1.23-.14,.41-.21,.79-.21,1.14,0,.1,0,.18,.01,.26,0,.08,.03,.18,.06,.31l.52,.19c.49-.21,.96-.45,1.4-.73s.83-.58,1.15-.9,.58-.66,.77-1.01,.29-.71,.29-1.07Z"/><path class="cls-1" d="M76.97,65.31c-.13,.25-.24,.47-.33,.65-.09,.18-.18,.36-.26,.52-.08,.17-.16,.34-.24,.51-.08,.17-.17,.37-.26,.6l-1.79-.21c-.17,.1-.36,.26-.56,.49-.2,.23-.38,.5-.56,.8-.17,.3-.33,.62-.48,.95-.14,.33-.25,.65-.31,.95-.13,.57-.25,1.04-.36,1.39-.11,.36-.22,.63-.33,.83-.11,.2-.22,.33-.33,.4-.11,.07-.22,.11-.33,.11-.1,0-.23-.08-.39-.23-.17-.15-.33-.33-.49-.52-.16-.2-.3-.4-.42-.62-.12-.21-.18-.39-.18-.54,0-.27,.05-.52,.17-.74,.11-.22,.33-.52,.64-.9,.13-.14,.22-.33,.27-.56,.06-.23,.08-.58,.08-1.04,0-.68-.02-1.27-.05-1.77-.03-.5-.07-.9-.12-1.2l2.43-.59c.08,1.06,0,2.09-.24,3.09,.37-.57,.69-1.04,.99-1.42,.29-.37,.57-.67,.82-.89,.25-.22,.49-.38,.71-.48,.22-.1,.44-.14,.67-.14,.14,0,.33,.05,.56,.14,.23,.09,.46,.23,.68,.4Z"/><path class="cls-1" d="M88.13,66.64c0,.46-.09,.84-.27,1.14-.18,.3-.53,.56-1.04,.77-.51,.21-1.21,.4-2.11,.56-.9,.16-2.06,.33-3.49,.52,.03,.32,.16,.66,.39,1.04,.23,.37,.53,.67,.89,.89,.46-.1,.89-.19,1.3-.29,.4-.09,.8-.2,1.18-.31,.38-.11,.77-.24,1.15-.38,.39-.14,.8-.31,1.23-.5l-.07,.64c-.02,.11-.04,.21-.08,.3-.04,.09-.14,.18-.3,.27-.16,.1-.4,.21-.71,.35s-.76,.31-1.33,.51c-.59,.22-1.18,.4-1.79,.55-.6,.14-1.09,.21-1.45,.21-.33,0-.68-.08-1.04-.23-.36-.15-.68-.34-.98-.56-.29-.22-.53-.46-.71-.73s-.27-.51-.27-.75c0-.22,.02-.43,.07-.63s.13-.42,.25-.68,.29-.56,.51-.9c.22-.35,.5-.79,.83-1.31,.41-.6,1.09-1.11,2.04-1.51,.94-.4,2.14-.61,3.58-.61,.83,0,1.4,.11,1.73,.33,.33,.22,.49,.65,.49,1.29Zm-2.43-.71l-2.5,.31c-.32,.41-.61,.81-.87,1.18s-.54,.81-.85,1.32c.91-.08,1.63-.17,2.19-.26,.55-.09,.98-.21,1.27-.36,.29-.14,.49-.31,.6-.5,.1-.19,.15-.42,.15-.69v-1Z"/><path class="cls-1" d="M94.32,71.78c-.24,.22-.51,.39-.81,.51s-.59,.18-.88,.18c-.37,0-.69-.11-.99-.33-.29-.22-.44-.49-.44-.81,0-.22,.12-.44,.34-.67,.23-.22,.49-.33,.77-.33,.54,0,.94,.17,1.19,.52,.13,.16,.25,.3,.38,.42s.27,.21,.43,.27c.08,.03,.12,.06,.12,.08s-.04,.08-.12,.16Zm.24-9.54c.06,.22,.08,.57,.06,1.04-.02,.47-.1,1.08-.23,1.84-.05,.32-.13,.65-.24,1.01-.11,.36-.24,.71-.39,1.05-.15,.34-.33,.66-.52,.96-.2,.3-.41,.56-.63,.76-.24,.24-.31,.13-.21-.31,.06-.35,.1-.74,.11-1.17s-.01-.85-.06-1.26c-.05-.41-.12-.81-.21-1.19-.09-.38-.21-.71-.36-1-.17-.33-.28-.63-.32-.9-.04-.27-.04-.53,.01-.79,.09-.48,.55-.71,1.38-.71,.97,0,1.51,.22,1.62,.67Z"/></g><g><path class="cls-1" d="M8.59,81.96c-.81-.41-1.51-.7-2.09-.87-.59-.17-1.11-.25-1.57-.25-.4,0-.81,.29-1.24,.86,.32,.19,.65,.38,1,.56,.35,.18,.78,.4,1.29,.65,.52,.25,.94,.49,1.25,.7,.31,.21,.53,.42,.67,.63s.19,.42,.18,.63c-.02,.21-.09,.45-.21,.7-.21,.43-.42,.79-.64,1.07-.22,.29-.48,.51-.76,.68-.29,.17-.61,.28-.96,.35-.36,.06-.77,.09-1.25,.09-.67,0-1.34-.09-2.01-.26-.67-.17-1.42-.46-2.23-.86l.98-1.55c.67,.33,1.38,.6,2.14,.81,.76,.21,1.42,.31,1.97,.31,.41,0,.69-.03,.83-.1,.14-.06,.26-.21,.36-.43,.03-.08,.04-.15,.04-.21,0-.06-.05-.14-.13-.23-.08-.09-.21-.19-.38-.3-.17-.11-.42-.25-.74-.4-.65-.3-1.18-.58-1.59-.82-.41-.25-.74-.48-.98-.69-.24-.21-.4-.41-.5-.58-.09-.17-.14-.33-.14-.48,0-.19,.09-.43,.27-.73,.18-.29,.44-.58,.76-.86,.33-.28,.71-.52,1.15-.71s.93-.3,1.45-.3c.46,0,1.04,.09,1.75,.27s1.54,.5,2.49,.94l-1.14,1.36Z"/><path class="cls-1" d="M21.13,81.27c0,.46-.09,.84-.27,1.14-.18,.3-.53,.56-1.04,.77-.51,.21-1.21,.4-2.11,.56-.9,.16-2.06,.33-3.49,.52,.03,.32,.16,.66,.39,1.04,.23,.37,.53,.67,.89,.89,.46-.1,.89-.19,1.3-.29,.4-.09,.8-.2,1.18-.31,.38-.11,.77-.24,1.15-.38,.39-.14,.8-.31,1.23-.5l-.07,.64c-.02,.11-.04,.21-.08,.3-.04,.09-.14,.18-.3,.27-.16,.1-.4,.21-.71,.35s-.76,.31-1.33,.51c-.59,.22-1.18,.4-1.79,.55-.6,.14-1.09,.21-1.45,.21-.33,0-.68-.08-1.04-.23-.36-.15-.68-.34-.98-.56-.29-.22-.53-.46-.71-.73s-.27-.51-.27-.75c0-.22,.02-.43,.07-.63s.13-.42,.25-.68,.29-.56,.51-.9c.22-.35,.5-.79,.83-1.31,.41-.6,1.09-1.11,2.04-1.51,.94-.4,2.14-.61,3.58-.61,.83,0,1.4,.11,1.73,.33,.33,.22,.49,.65,.49,1.29Zm-2.43-.71l-2.5,.31c-.32,.41-.61,.81-.87,1.18s-.54,.81-.85,1.32c.91-.08,1.63-.17,2.19-.26,.55-.09,.98-.21,1.27-.36,.29-.14,.49-.31,.6-.5,.1-.19,.15-.42,.15-.69v-1Z"/><path class="cls-1" d="M32.54,81.27c0,.46-.09,.84-.27,1.14-.18,.3-.53,.56-1.04,.77-.51,.21-1.21,.4-2.11,.56-.9,.16-2.06,.33-3.49,.52,.03,.32,.16,.66,.39,1.04,.23,.37,.53,.67,.89,.89,.46-.1,.89-.19,1.3-.29,.4-.09,.8-.2,1.18-.31,.38-.11,.77-.24,1.15-.38,.39-.14,.8-.31,1.23-.5l-.07,.64c-.02,.11-.04,.21-.08,.3-.04,.09-.14,.18-.3,.27-.16,.1-.4,.21-.71,.35s-.76,.31-1.33,.51c-.59,.22-1.18,.4-1.79,.55-.6,.14-1.09,.21-1.45,.21-.33,0-.68-.08-1.04-.23-.36-.15-.68-.34-.98-.56-.29-.22-.53-.46-.71-.73s-.27-.51-.27-.75c0-.22,.02-.43,.07-.63s.13-.42,.25-.68,.29-.56,.51-.9c.22-.35,.5-.79,.83-1.31,.41-.6,1.09-1.11,2.04-1.51,.94-.4,2.14-.61,3.58-.61,.83,0,1.4,.11,1.73,.33,.33,.22,.49,.65,.49,1.29Zm-2.43-.71l-2.5,.31c-.32,.41-.61,.81-.87,1.18s-.54,.81-.85,1.32c.91-.08,1.63-.17,2.19-.26,.55-.09,.98-.21,1.27-.36,.29-.14,.49-.31,.6-.5,.1-.19,.15-.42,.15-.69v-1Z"/><path class="cls-1" d="M55.5,80.63c.13,.16,.18,.34,.15,.55-.02,.21-.17,.56-.44,1.07-.7,1.38-1.09,2.97-1.19,4.78l-2.69,.59c.03-.41,.1-.86,.21-1.34s.26-.98,.44-1.48c.18-.5,.4-1,.64-1.49,.25-.49,.52-.95,.82-1.38l-.52-.5c-.38,.02-.8,.17-1.26,.45-.46,.29-.9,.63-1.32,1.05-.42,.41-.79,.86-1.11,1.34-.32,.48-.52,.94-.59,1.37-.14,.75-.31,1.25-.5,1.5-.19,.25-.42,.38-.69,.38-.16,0-.33-.06-.51-.19-.18-.13-.35-.29-.51-.48s-.29-.38-.39-.58-.15-.37-.15-.51c0-.13,.05-.29,.15-.49,.1-.2,.34-.5,.7-.89,.35-.36,.62-.73,.82-1.08,.2-.36,.38-.8,.56-1.32l-.6-.67c-1.19,.33-2.13,.84-2.82,1.51-.69,.67-1.16,1.56-1.42,2.65-.11,.48-.21,.85-.29,1.13-.08,.28-.17,.49-.26,.64-.1,.15-.2,.25-.32,.3-.12,.05-.27,.07-.46,.07-.14,0-.3-.06-.48-.19s-.34-.28-.51-.45-.31-.35-.42-.54c-.11-.18-.17-.34-.17-.46,0-.14,.03-.3,.09-.48s.21-.37,.43-.6c.22-.25,.4-.5,.54-.73,.13-.23,.24-.51,.31-.83s.11-.73,.12-1.21c0-.48-.01-1.11-.06-1.87l2.33-.57v.76c0,.37-.02,.69-.05,.96-.03,.28-.08,.58-.14,.89,.44-.41,.9-.78,1.38-1.09,.48-.32,.94-.58,1.38-.8,.44-.21,.86-.38,1.25-.49s.72-.17,.99-.17c.11,0,.25,.03,.4,.1,.16,.06,.31,.14,.45,.24,.14,.1,.26,.2,.36,.3,.1,.1,.14,.2,.14,.3,0,.21,0,.42-.02,.63-.02,.21-.06,.42-.14,.61,.35-.32,.72-.61,1.11-.89,.39-.28,.77-.52,1.13-.71s.71-.35,1.05-.46c.33-.11,.63-.17,.9-.17,.13,0,.29,.06,.48,.19s.42,.37,.69,.74Z"/><path class="cls-1" d="M67.21,81.63c0,.54-.13,1.06-.38,1.56-.25,.5-.58,.98-.99,1.43-.4,.45-.86,.87-1.36,1.24-.5,.37-1,.69-1.5,.95s-.98,.47-1.43,.62c-.45,.15-.82,.23-1.11,.23-.33,0-.67-.08-1.01-.25-.34-.17-.65-.37-.94-.62-.29-.25-.52-.52-.69-.81-.17-.29-.26-.58-.26-.84,0-.52,.14-1.06,.42-1.61,.28-.55,.65-1.07,1.11-1.56,.46-.49,.98-.93,1.57-1.32s1.2-.69,1.83-.89l.81,.57c.49-.13,.89-.23,1.2-.31s.56-.14,.75-.18c.19-.04,.34-.06,.45-.07,.11,0,.21-.01,.31-.01,.4,0,.7,.17,.9,.52,.21,.35,.31,.8,.31,1.36Zm-2.76,.83c0-.22-.05-.47-.14-.74-.09-.27-.22-.54-.38-.81h-.52c-.49,.27-.93,.59-1.32,.96-.39,.37-.72,.76-1,1.17-.28,.41-.49,.81-.63,1.23-.14,.41-.21,.79-.21,1.14,0,.1,0,.18,.01,.26,0,.08,.03,.18,.06,.31l.52,.19c.49-.21,.96-.45,1.4-.73s.83-.58,1.15-.9,.58-.66,.77-1.01,.29-.71,.29-1.07Z"/><path class="cls-1" d="M76.97,79.94c-.13,.25-.24,.47-.33,.65-.09,.18-.18,.36-.26,.52-.08,.17-.16,.34-.24,.51-.08,.17-.17,.37-.26,.6l-1.79-.21c-.17,.1-.36,.26-.56,.49-.2,.23-.38,.5-.56,.8-.17,.3-.33,.62-.48,.95-.14,.33-.25,.65-.31,.95-.13,.57-.25,1.04-.36,1.39-.11,.36-.22,.63-.33,.83-.11,.2-.22,.33-.33,.4-.11,.07-.22,.11-.33,.11-.1,0-.23-.08-.39-.23-.17-.15-.33-.33-.49-.52-.16-.2-.3-.4-.42-.62-.12-.21-.18-.39-.18-.54,0-.27,.05-.52,.17-.74,.11-.22,.33-.52,.64-.9,.13-.14,.22-.33,.27-.56,.06-.23,.08-.58,.08-1.04,0-.68-.02-1.27-.05-1.77-.03-.5-.07-.9-.12-1.2l2.43-.59c.08,1.06,0,2.09-.24,3.09,.37-.57,.69-1.04,.99-1.42,.29-.37,.57-.67,.82-.89,.25-.22,.49-.38,.71-.48,.22-.1,.44-.14,.67-.14,.14,0,.33,.05,.56,.14,.23,.09,.46,.23,.68,.4Z"/><path class="cls-1" d="M88.13,81.27c0,.46-.09,.84-.27,1.14-.18,.3-.53,.56-1.04,.77-.51,.21-1.21,.4-2.11,.56-.9,.16-2.06,.33-3.49,.52,.03,.32,.16,.66,.39,1.04,.23,.37,.53,.67,.89,.89,.46-.1,.89-.19,1.3-.29,.4-.09,.8-.2,1.18-.31,.38-.11,.77-.24,1.15-.38,.39-.14,.8-.31,1.23-.5l-.07,.64c-.02,.11-.04,.21-.08,.3-.04,.09-.14,.18-.3,.27-.16,.1-.4,.21-.71,.35s-.76,.31-1.33,.51c-.59,.22-1.18,.4-1.79,.55-.6,.14-1.09,.21-1.45,.21-.33,0-.68-.08-1.04-.23-.36-.15-.68-.34-.98-.56-.29-.22-.53-.46-.71-.73s-.27-.51-.27-.75c0-.22,.02-.43,.07-.63s.13-.42,.25-.68,.29-.56,.51-.9c.22-.35,.5-.79,.83-1.31,.41-.6,1.09-1.11,2.04-1.51,.94-.4,2.14-.61,3.58-.61,.83,0,1.4,.11,1.73,.33,.33,.22,.49,.65,.49,1.29Zm-2.43-.71l-2.5,.31c-.32,.41-.61,.81-.87,1.18s-.54,.81-.85,1.32c.91-.08,1.63-.17,2.19-.26,.55-.09,.98-.21,1.27-.36,.29-.14,.49-.31,.6-.5,.1-.19,.15-.42,.15-.69v-1Z"/><path class="cls-1" d="M94.32,86.41c-.24,.22-.51,.39-.81,.51s-.59,.18-.88,.18c-.37,0-.69-.11-.99-.33-.29-.22-.44-.49-.44-.81,0-.22,.12-.44,.34-.67,.23-.22,.49-.33,.77-.33,.54,0,.94,.17,1.19,.52,.13,.16,.25,.3,.38,.42s.27,.21,.43,.27c.08,.03,.12,.06,.12,.08s-.04,.08-.12,.16Zm.24-9.54c.06,.22,.08,.57,.06,1.04-.02,.47-.1,1.08-.23,1.84-.05,.32-.13,.65-.24,1.01-.11,.36-.24,.71-.39,1.05-.15,.34-.33,.66-.52,.96-.2,.3-.41,.56-.63,.76-.24,.24-.31,.13-.21-.31,.06-.35,.1-.74,.11-1.17s-.01-.85-.06-1.26c-.05-.41-.12-.81-.21-1.19-.09-.38-.21-.71-.36-1-.17-.33-.28-.63-.32-.9-.04-.27-.04-.53,.01-.79,.09-.48,.55-.71,1.38-.71,.97,0,1.51,.22,1.62,.67Z"/></g></g></svg>