<?xml version="1.0" encoding="UTF-8"?><svg id="_レイヤー_2" xmlns="http://www.w3.org/2000/svg" viewBox="0 0 25.34 38.7"><defs><style>.cls-1{fill:#e9503a;}</style></defs><g id="_レイヤー_1-2"><g><g><path class="cls-1" d="M3.55,13.15c-.02-.18,.04-.4,.04-.48,0-1.65-.06-3.3-.19-4.93-.02-.28-.09-.58-.09-.87,0-.15,.04-.25,.28-.25,.26,0,.51,.02,.75,.02,.56,0,1.11,.03,1.68,.03,.72,0,1.24,0,1.94-.03,.13,0,.64-.05,.75-.05,.24,.02,.19,.25,.19,.4,0,.6-.09,1.18-.13,1.77-.11,1.42-.15,2.83-.15,4.25,0,.23-.02,.47-.41,.47-.45,0-.87-.03-1.32-.03h-1.94c-.38,0-.77,.03-1.13,.03-.17,0-.28-.08-.28-.32Zm3.22-1.45c.09-1.13,.06-2.27,.13-3.4-.49-.02-.98-.02-1.47,0,.04,1.13,.04,2.27,.09,3.4h1.26Zm6.63,6.93c0-.1,.02-.2,.04-.3,.09-.68,.17-1.35,.17-2.05h-1.9c-.02,.58-.04,1.15-.04,1.78,0,.23,.02,.38,.02,.5-.04,.2-.13,.23-.32,.25-.28,.03-1.3,0-1.58,0-.36,0-.43,.03-.43-.27,0-.1,.02-.18,.04-.27,.06-.32,.09-.65,.13-.97,.17-1.25,.24-2.35,.24-3.6,0-.92-.04-1.82-.09-2.77-.02-.2-.11-.73-.11-.87,0-.15,.13-.17,.28-.17,.19,0,.38,.02,.58,.03,.58,.03,1.13,.05,1.7,.05,.49,.02,1.02,0,1.51,0v-1.08c-1.11,.03-2.28,.08-3.22,.13-.28,.02-.58,.08-.85,.08-.24,0-.19-.2-.21-.33v-1.27c0-.12,.09-.23,.21-.23,.15,0,.34,.02,.49,.02,.32,0,.64,.02,.96,.02,1.07,0,1.77,0,2.6,.02-.02-.6,0-1.17-.06-1.73-.02-.22-.09-.35-.06-.52,.02-.17,.28-.15,.51-.15,.32-.02,1.11,0,1.45,0,.36,0,.66-.03,.66,.18,0,.12-.02,.32-.04,.43-.06,.48-.13,1.22-.17,1.8,.85-.02,1.92-.03,2.86-.03,.68,0,1.3-.03,1.79-.05,.45-.02,.83-.1,.94-.08,.17,0,.19,.03,.19,.1,0,.1-.06,.27-.13,.57-.09,.45-.19,1-.21,1.05-.04,.15-.09,.17-.28,.17-.38,0-.77-.05-1.15-.07-1.34-.07-2.73-.1-4.07-.1-.02,.35-.02,.72-.02,1.08,.58,0,1.07-.02,1.64-.02,.47-.02,.94-.02,1.41-.03,.28,0,.55-.05,.83-.05,.15,0,.19,.07,.19,.2,0,.42-.09,.83-.09,1.25,0,.77-.04,1.53,0,2.28,.04,.78,.04,1.58,.06,2.37,.02,.65,.11,.97,.15,1.62,.02,.33,.11,.7,.11,1.03,0,.27-.38,.17-.58,.17-.53,0-1.06,.03-1.6,.03-.15,0-.34-.05-.34-.17,0-.15,.04-.3,.06-.43,.02-.27,.04-.5,.04-.77,.02-.47,.02-.82,.02-1.2h-1.85c.02,.73,.04,1.2,.15,1.93,.02,.13,.04,.28,.04,.42,0,.22-.34,.2-.55,.22h-1.49c-.45,0-.64,0-.64-.22Zm.24-3.68l.02-1.02-1.9,.02c0,.35,0,.68-.02,1.02l1.9-.02Zm.02-2.4v-1.08c-.6,0-1.28,.02-1.9,.02v1.07h1.9Zm4.09,0v-1.08c-.68,0-1.28-.02-1.92-.02v1.1h1.92Zm0,2.4v-1.02h-1.9l.02,1.02h1.88Zm-.68-8.18c0-.13,.19-.33,.28-.43,.38-.43,.79-.88,1.13-1.35,.09-.12,.24-.35,.41-.35s.34,.17,.47,.27c.26,.2,.73,.65,1.07,1,.13,.13,.19,.28,.17,.35,0,.17-.13,.22-.32,.27-.6,.2-1.83,.42-2.47,.42-.15,0-.73,0-.73-.17Z"/><path class="cls-1" d="M3.55,28.15c-.02-.18,.04-.4,.04-.48,0-1.65-.06-3.3-.19-4.93-.02-.28-.09-.58-.09-.87,0-.15,.04-.25,.28-.25,.26,0,.51,.02,.75,.02,.56,0,1.11,.03,1.68,.03,.72,0,1.24,0,1.94-.03,.13,0,.64-.05,.75-.05,.24,.02,.19,.25,.19,.4,0,.6-.09,1.18-.13,1.77-.11,1.42-.15,2.83-.15,4.25,0,.23-.02,.47-.41,.47-.45,0-.87-.03-1.32-.03h-1.94c-.38,0-.77,.03-1.13,.03-.17,0-.28-.08-.28-.32Zm3.22-1.45c.09-1.13,.06-2.27,.13-3.4-.49-.02-.98-.02-1.47,0,.04,1.13,.04,2.27,.09,3.4h1.26Zm6.63,6.93c0-.1,.02-.2,.04-.3,.09-.68,.17-1.35,.17-2.05h-1.9c-.02,.58-.04,1.15-.04,1.78,0,.23,.02,.38,.02,.5-.04,.2-.13,.23-.32,.25-.28,.03-1.3,0-1.58,0-.36,0-.43,.03-.43-.27,0-.1,.02-.18,.04-.27,.06-.32,.09-.65,.13-.97,.17-1.25,.24-2.35,.24-3.6,0-.92-.04-1.82-.09-2.77-.02-.2-.11-.73-.11-.87,0-.15,.13-.17,.28-.17,.19,0,.38,.02,.58,.03,.58,.03,1.13,.05,1.7,.05,.49,.02,1.02,0,1.51,0v-1.08c-1.11,.03-2.28,.08-3.22,.13-.28,.02-.58,.08-.85,.08-.24,0-.19-.2-.21-.33v-1.27c0-.12,.09-.23,.21-.23,.15,0,.34,.02,.49,.02,.32,0,.64,.02,.96,.02,1.07,0,1.77,0,2.6,.02-.02-.6,0-1.17-.06-1.73-.02-.22-.09-.35-.06-.52,.02-.17,.28-.15,.51-.15,.32-.02,1.11,0,1.45,0,.36,0,.66-.03,.66,.18,0,.12-.02,.32-.04,.43-.06,.48-.13,1.22-.17,1.8,.85-.02,1.92-.03,2.86-.03,.68,0,1.3-.03,1.79-.05,.45-.02,.83-.1,.94-.08,.17,0,.19,.03,.19,.1,0,.1-.06,.27-.13,.57-.09,.45-.19,1-.21,1.05-.04,.15-.09,.17-.28,.17-.38,0-.77-.05-1.15-.07-1.34-.07-2.73-.1-4.07-.1-.02,.35-.02,.72-.02,1.08,.58,0,1.07-.02,1.64-.02,.47-.02,.94-.02,1.41-.03,.28,0,.55-.05,.83-.05,.15,0,.19,.07,.19,.2,0,.42-.09,.83-.09,1.25,0,.77-.04,1.53,0,2.28,.04,.78,.04,1.58,.06,2.37,.02,.65,.11,.97,.15,1.61,.02,.33,.11,.7,.11,1.03,0,.27-.38,.17-.58,.17-.53,0-1.06,.03-1.6,.03-.15,0-.34-.05-.34-.17,0-.15,.04-.3,.06-.43,.02-.27,.04-.5,.04-.77,.02-.47,.02-.82,.02-1.2h-1.85c.02,.73,.04,1.2,.15,1.93,.02,.13,.04,.28,.04,.42,0,.22-.34,.2-.55,.22h-1.49c-.45,0-.64,0-.64-.22Zm.24-3.68l.02-1.02-1.9,.02c0,.35,0,.68-.02,1.02l1.9-.02Zm.02-2.4v-1.08c-.6,0-1.28,.02-1.9,.02v1.07h1.9Zm4.09,0v-1.08c-.68,0-1.28-.02-1.92-.02v1.1h1.92Zm0,2.4v-1.02h-1.9l.02,1.02h1.88Zm-.68-8.18c0-.13,.19-.33,.28-.43,.38-.43,.79-.88,1.13-1.35,.09-.12,.24-.35,.41-.35s.34,.17,.47,.27c.26,.2,.73,.65,1.07,1,.13,.13,.19,.28,.17,.35,0,.17-.13,.22-.32,.27-.6,.2-1.83,.42-2.47,.42-.15,0-.73,0-.73-.17Z"/></g><path class="cls-1" d="M12.67,38.7c-6.99,0-12.67-5.68-12.67-12.67V12.67C0,5.68,5.68,0,12.67,0s12.67,5.68,12.67,12.67v13.36c0,6.99-5.68,12.67-12.67,12.67ZM12.67,1.16C6.32,1.16,1.16,6.32,1.16,12.67v13.36c0,6.35,5.16,11.51,11.51,11.51s11.51-5.16,11.51-11.51V12.67c0-6.35-5.16-11.51-11.51-11.51Z"/></g></g></svg>