<?xml version="1.0" encoding="UTF-8"?><svg id="_レイヤー_2" xmlns="http://www.w3.org/2000/svg" viewBox="0 0 283.15 227.49"><defs><style>.cls-1{fill:#e9503a;}.cls-2{fill:#fff;}</style></defs><g id="_レイヤー_1-2"><g><g><g><path class="cls-2" d="M95.85,226.09c-.67-.07-1.31-.34-1.88-.77-.44-.34-1.24-1.01-3.79-3.99-1.41-1.64-5.96-7.54-7.44-10.05-.1-.2-.07-.3,0-.4,1.11-1.41,3.55-4.09,4.73-5.26,1.91-1.91,3.32-3.12,5.59-3.32,.77-.07,.87-.2,.87-.44,0-.2-.13-.34-.91-.34-.33,0-2.81,.1-5.76,.1-2.11,0-2.58-.1-4.32-.1-.64,0-.87,.17-.87,.37,0,.3,.33,.37,.64,.4,1.17,.13,1.37,.37,1.37,.8,0,.67-.77,1.81-1.27,2.45-2.14,2.75-5.19,6.23-6.97,7.84v-2.14c0-3.55,.07-5.63,.13-6.7,.1-1.44,.4-2.11,2.18-2.24,.47-.03,.74-.1,.74-.4s-.3-.37-1.01-.37c-1.47,0-6.43,.1-6.63,.1s-4.32-.1-5.97-.1c-.8,0-.94,.14-.94,.37,0,.27,.3,.34,.87,.37,1.51,.07,1.91,.47,2.01,1.68,.1,1.07,.17,2.08,.17,7.3v5.9c0,2.48-.07,5.26-.17,6.67-.1,1.61-.5,2.28-2.01,2.28-.09,0-.17,0-.24,.01-.1-.02-.19-.03-.32-.04-1.91-.2-2.34-1.01-3.82-4.09-2.25-4.59-8.34-16.69-8.68-17.32-1.61-3.08-1.88-3.72-2.45-3.72-.54,0-1.24,1.2-2.58,3.85l-9.41,18.39c-1.41,2.38-1.98,2.88-3.08,2.92-.57,.03-.77,.17-.77,.4,0,.34,.44,.37,.94,.37,1.77,0,3.62-.1,4.32-.1,2.78,0,2.95,.1,5.02,.1,.54,0,.94-.03,.94-.37,0-.27-.24-.37-.87-.4-1.78-.1-1.98-.54-1.98-1.21,0-.5,.3-1.41,.64-2.24,.1-.27,.2-.3,.44-.3h7.77c.2,0,.27,.03,.3,.17l1.44,2.78c.1,.27,.07,.57-.3,.67-.3,.07-.57,.17-.57,.37s.07,.37,.7,.4c8.46,.45,16.99,.13,25.46,.13,.74,0,.9-.17,.9-.44,0-.23-.23-.3-.84-.33-1.74-.07-2.04-.87-2.18-2.11-.17-1.41-.17-5.19-.17-6.83v-2.24c.13,.3,.23,.6,.64,1.24,2.45,4.19,4.56,6.94,5.6,8.08,2.01,2.24,3.08,2.65,9.28,2.65h4.22c.7,0,1.04-.07,1.04-.4,0-.23-.17-.3-.77-.37Zm-46.06-7.57h-5.06c-.13,0-.17-.1-.13-.2l2.55-5.26c.07-.13,.13-.17,.2-.07l2.55,5.36s.07,.17-.1,.17Z"/><path class="cls-2" d="M160.35,201.53c-1.2,0-4.05,.1-4.99,.1-1.11,0-2.71-.1-5.03-.1-.64,0-.84,.1-.84,.3,0,.24,.23,.4,.8,.44,2.08,.1,2.25,.74,2.31,2.82,.03,1.07,.03,1.51,.03,6.16v3.75c0,5.9-.37,7.2-1.74,8.41-.84,.74-2.04,.81-2.61,.81-1.37,0-2.71-.37-3.62-1.61-.81-1.11-1.11-2.75-1.11-5.23v-6.13c0-5.23,.03-5.7,.13-6.77,.13-1.54,.5-2.04,1.91-2.18,.37-.03,.81-.07,.81-.47,0-.23-.17-.3-.87-.3-1.47,0-6.37,.1-6.8,.1-4.15,0-8.3,0-12.45,0-2.11,0-2.58-.1-4.32-.1-.64,0-.87,.17-.87,.37,0,.3,.34,.37,.64,.4,1.17,.13,1.37,.37,1.37,.8,0,.67-.77,1.81-1.27,2.45-2.14,2.75-5.19,6.23-6.97,7.84v-2.14c0-3.55,.07-5.63,.13-6.7,.1-1.44,.4-2.11,2.18-2.24,.47-.03,.74-.1,.74-.4s-.3-.37-1.01-.37c-1.47,0-6.43,.1-6.63,.1s-4.32-.1-5.96-.1c-.8,0-.94,.14-.94,.37,0,.27,.3,.34,.87,.37,1.51,.07,1.91,.47,2.01,1.68,.1,1.07,.17,2.08,.17,7.3v5.9c0,2.48-.07,5.26-.17,6.67-.1,1.61-.5,2.28-2.01,2.28-.54,0-.8,.07-.8,.37s.4,.4,.84,.4c1.17,0,5.8-.1,6-.1,.17,0,3.99,.1,6.87,.1,.74,0,.91-.17,.91-.44,0-.23-.24-.3-.84-.33-1.74-.07-2.04-.87-2.18-2.11-.17-1.41-.17-5.19-.17-6.83v-2.24c.13,.3,.23,.6,.64,1.24,2.45,4.19,4.56,6.94,5.6,8.08,2.01,2.24,3.08,2.65,9.28,2.65h4.22c.7,0,1.04-.07,1.04-.4,0-.23-.17-.3-.77-.37-.67-.07-1.31-.34-1.88-.77-.44-.34-1.24-1.01-3.78-3.99-1.41-1.64-5.97-7.54-7.44-10.05-.1-.2-.07-.3,0-.4,1.1-1.41,3.21-3.68,4.38-4.85,1.24-1.24,3.25-3.39,5.03-3.71,1.04-.18,2.48,.07,3.21,.91,.81,.94,.56,2.92,.51,4.09-.05,1.31-.02,2.62-.02,3.93v5.63c0,4.79,1.61,7.04,3.59,8.38,2.21,1.51,4.76,2.08,8.71,2.08,2.61,0,5.63-.77,7.54-2.21,3.52-2.65,3.82-6.63,3.82-10.32v-3.55c0-4.66,.03-5.33,.1-6.4,.1-1.98,.34-2.41,1.91-2.55,.6-.07,.7-.23,.7-.44,0-.27-.24-.34-.91-.34Z"/><path class="cls-2" d="M179.02,217.14c0,1.64,.03,5.33,.2,6.73,.13,1.24,.7,2.11,2.92,2.21,.64,.03,.9,.1,.9,.4,0,.27-.2,.37-.94,.37-2.88,0-7.74-.1-7.91-.1-.2,0-5.23,.1-6.4,.1-.54,0-.87-.03-.87-.37,0-.27,.34-.37,.81-.4,1.91-.1,2.24-.64,2.41-2.38,.13-1.41,.2-4.09,.2-6.57v-12.06c-1.11,0-2.81-.03-4.56,.07-1.74,.1-2.41,.37-2.98,2.35-.13,.47-.3,.6-.5,.6-.23,0-.33-.24-.27-.71,.3-2.04,.77-4.25,.87-5.66,.03-.54,.17-.67,.34-.67,.2,0,.44,.07,.7,.17,1.07,.3,2.18,.4,4.93,.4h15.34c.84,0,1.31-.03,1.94-.17,.54-.13,.84-.23,1.01-.23,.3,0,.33,.2,.33,.64,0,.4-.23,3.35-.23,5.66,0,.74-.13,1.01-.37,1.01-.27,0-.4-.2-.43-.81-.1-1.67-.74-2.31-2.21-2.48-1.14-.13-2.41-.17-5.23-.17v12.06Z"/><path class="cls-2" d="M212.09,217.14c0,1.64,.03,5.33,.2,6.73,.13,1.24,.7,2.11,2.92,2.21,.64,.03,.9,.1,.9,.4,0,.27-.2,.37-.94,.37-2.88,0-7.74-.1-7.91-.1-.2,0-5.23,.1-6.4,.1-.54,0-.87-.03-.87-.37,0-.27,.34-.37,.81-.4,1.91-.1,2.24-.64,2.41-2.38,.13-1.41,.2-4.09,.2-6.57v-12.06c-1.11,0-2.81-.03-4.56,.07-1.74,.1-2.41,.37-2.98,2.35-.13,.47-.3,.6-.5,.6-.23,0-.33-.24-.27-.71,.3-2.04,.77-4.25,.87-5.66,.03-.54,.17-.67,.34-.67,.2,0,.44,.07,.7,.17,1.07,.3,2.18,.4,4.93,.4h15.34c.84,0,1.31-.03,1.94-.17,.54-.13,.84-.23,1.01-.23,.3,0,.33,.2,.33,.64,0,.4-.23,3.35-.23,5.66,0,.74-.13,1.01-.37,1.01-.27,0-.4-.2-.43-.81-.1-1.67-.74-2.31-2.21-2.48-1.14-.13-2.41-.17-5.23-.17v12.06Z"/><path class="cls-2" d="M225.51,211.25c0-5.66-.03-6.1-.1-7-.17-1.37-.37-1.88-2.01-1.94-.54-.03-.84-.1-.84-.4,0-.27,.3-.37,.84-.37,2.58,0,4.12,.1,5.96,.1,.6,0,10.96,0,11.39-.03,1.51-.07,2.18-.13,2.55-.27,.3-.1,.44-.17,.6-.17s.2,.13,.2,.3-.13,.84-.23,1.88c-.1,1.24-.23,2.58-.23,4.42,0,.47-.07,.77-.4,.77-.23,0-.37-.14-.4-.71-.17-1.98-.9-2.58-2.88-2.75-1.41-.1-5.43-.17-5.73-.17-.23,0-.27,.07-.27,.23v6.07c0,.23,.07,.37,.27,.37,1.44,.07,3.45,.03,5.03,0,2.51-.07,3.12-.27,3.42-.74,.2-.33,.34-.4,.5-.4,.2,0,.23,.17,.23,.5,0,.54-.4,3.02-.4,5.23v1.24c0,.44-.13,.74-.4,.74s-.4-.2-.44-.74c-.07-1.27-.44-2.34-2.92-2.48-.7-.03-3.59-.1-5.03-.1-.17,0-.27,.07-.27,.24v2.14c0,1.14,0,1.81,.03,2.95,.07,2.71,.6,3.42,5.36,3.42,.7,0,2.14-.03,3.12-.44,1.14-.47,1.54-1.51,1.71-2.95,.03-.2,.17-.6,.47-.6,.23,0,.33,.2,.33,.64,0,1.47-.3,4.66-.67,5.86-.23,.74-.64,.87-1.81,.87-5.13,0-7.91-.2-13.24-.2-2.68,0-3.89,.1-5.8,.1-.6,0-.94-.03-.94-.4,0-.27,.24-.34,.81-.37,1.98-.13,2.04-.3,2.14-5.29,.03-1.41,.03-3.12,.03-3.65v-5.9Z"/><path class="cls-2" d="M249.69,211.45c0-4.89-.07-6.36-.13-7.44-.1-1.37-.54-1.67-2.11-1.74-.67-.03-.8-.17-.8-.4s.23-.34,.77-.34c2.65,0,5.19,.1,6.13,.1,1.11,0,4.66-.1,6.7-.1,.8,0,.87,.17,.87,.37,0,.17-.17,.37-.87,.4-1.47,.1-1.68,.5-1.78,2.18-.07,1.07-.1,2.75-.1,6.13v.7c0,.17,.1,.2,.2,.2h7.3c.1,0,.2-.03,.2-.2v-.7c0-4.56-.07-5.56-.13-6.63-.07-1.11-.3-1.57-1.54-1.67-.64-.07-.84-.2-.84-.4,0-.17,.03-.37,.87-.37,2.55,0,5.93,.1,6,.1,.17,0,4.52-.1,6.57-.1,.67,0,.81,.14,.81,.37,0,.2-.17,.37-.81,.4-1.77,.1-2.04,.87-2.11,2.04-.07,1.07-.13,1.67-.13,6.9v5.9c0,1.64,.03,5.5,.2,6.9,.13,1.24,.44,1.98,2.24,2.04,.4,.03,.77,.07,.77,.4,0,.27-.3,.37-.81,.37-3.22,0-7.04-.1-7.2-.1-.67,0-3.55,.1-5.8,.1-.67,0-.8-.13-.8-.37s.13-.37,.77-.4c1.21-.07,1.71-.47,1.81-1.84,.1-1.41,.13-3.02,.13-6.23v-2.28c0-.13-.1-.2-.2-.2h-7.3c-.1,0-.2,.03-.2,.2v3.75c0,2.21,.07,3.95,.13,4.69,.13,1.27,.33,1.81,2.21,1.91,.57,.03,.74,.17,.74,.4,0,.17-.1,.37-.77,.37-2.28,0-6.97-.1-7.14-.1-.1,0-4.96,.1-5.96,.1-.57,0-.87-.13-.87-.37,0-.27,.2-.37,.84-.4,1.74-.07,1.81-.57,1.94-2.08,.13-1.41,.2-3.65,.2-6.87v-5.7Z"/><path class="cls-2" d="M32.73,210.75c-.46,.76-1.14,1.36-2,1.73-.66,.28-1.28,.66-2,.82-.08,.02-.15,.08-.13,.17,.02,.13,.09,.24,.22,.3,.32,.15,.63,.34,.96,.45,.66,.23,1.28,.57,1.79,1,4.44,3.82,3.14,10.26-2.69,11.62-3.03,.7-6.36,.43-9.44,.38-3.83-.06-6.18-.38-10.69,.09-1.17,.12-1.96,.27-3.56,.09-.24-.03-1.2-.22-1.26-.48-.07-.28-.21-.56,.08-.84,1.01-1.01,3.23-1.17,4.24-2.17,2.17-2.15,1.88-5.66,1.92-8.47,.05-3.61-.05-8.29-1.76-11.55-.38-.73-1.11-1.08-1.74-1.51-.68-.47-1.23-1.05-1.77-1.66-.06-.07-.12-.16-.15-.25-.13-.33-.16-.69,.02-.98,.16-.27,.47-.08,.72-.04,1.47,.21,2.94,.51,4.42,.63,3.19,.24,6.44,.29,9.63,.17,3.84-.15,8.9-.42,11.82,2.57,1.72,1.76,2.42,4.22,1.9,6.61-.11,.48-.28,.93-.52,1.34Zm-7.71,9.87c.3-.48,.45-1.05,.41-1.66-.23-3.22-4.29-3.87-6.75-3.32-.14,.03-.22,.14-.2,.27,.06,.51,0,1.02,0,1.53,0,1.46,.03,2.92,.04,4.37,0,.25,.07,.33,.35,.36,1.33,.11,2.95,.2,4.24-.15,.8-.22,1.49-.73,1.9-1.4Zm-1.18-10.15c.93-1.05,.93-2.96,.14-4.06-1-1.38-3.47-1.69-5.02-1.48-.44,.06-.41,.17-.38,.49,.09,1.06,.03,2.13,.11,3.19,.06,.78,.01,1.58-.04,2.36-.02,.34,.08,.4,.39,.37,1.39-.12,3.09,.32,4.34-.48,.17-.11,.33-.25,.47-.4Z"/></g><g><g><path class="cls-2" d="M124.96,178.25c-3.47-.45-6.65-1.78-9.71-3.37-3.17-1.65-5.72-4.1-7.91-6.86-3.15-3.98-5.61-8.35-7.31-13.14-1.26-3.53-1.69-7.15-1.57-10.85,.13-3.88,.59-7.72,1.56-11.48,1.15-4.46,2.68-8.8,5.45-12.51,2.44-3.26,5.34-6.15,8.86-8.38,5.06-3.22,10.43-5.5,16.51-5.96,4.77-.36,9.53-.39,14.25,.59,3.92,.81,7.44,2.55,11,4.3,4.86,2.39,8,6.44,11.12,10.57,2.44,3.24,4.12,6.84,5.04,10.72,.48,2.02,.64,4.15,.64,6.28,0,2.28,.17,4.57-.08,6.83-.6,5.57-1.04,11.23-3.93,16.22-2.89,5.01-6.58,9.41-11.66,12.38-1.99,1.16-4.2,2.02-6.47,2.7-4.14,1.23-8.31,2.33-12.56,3.05-3.39,.58-6.82,.11-10.21-.48-1.01-.18-2.01-.41-3.02-.62Zm17.14-23.13c.28-2.73,.54-5.64,.68-8.57,.29-5.8,.67-11.59-.74-17.34-.73-2.95-1.68-5.71-4.4-7.48-.94-.61-1.99-1.27-3.11-.83-2.17,.84-3.93,2.28-4.89,4.42-.74,1.66-1.36,3.39-1.82,5.15-1.16,4.49-1.21,9.09-.99,13.68,.25,5.15,1.1,10.22,2.73,15.14,.8,2.41,1.64,4.8,4.58,5.67,1.86,.55,3.62,.1,4.71-1.52,1.68-2.49,2.36-5.34,3.25-8.33Z"/><path class="cls-2" d="M86.18,133.12c-1.36,2.21-3.4,3.96-5.96,5.02-1.97,.82-3.82,1.9-5.94,2.37-.24,.05-.45,.23-.4,.51,.07,.38,.27,.69,.66,.86,.95,.43,1.86,.98,2.85,1.31,1.96,.67,3.81,1.65,5.33,2.92,13.2,11.1,9.32,29.76-8.03,33.68-9.01,2.04-18.92,1.23-28.08,1.09-11.38-.18-18.37-1.13-31.79,.24-3.47,.35-5.83,.77-10.6,.25-.7-.08-3.57-.65-3.75-1.39-.2-.81-.62-1.61,.24-2.45,3.01-2.92,9.6-3.39,12.61-6.29,6.46-6.24,5.61-16.42,5.74-24.56,.16-10.48-.13-24.03-5.21-33.51-1.14-2.13-3.3-3.13-5.18-4.39-2.02-1.36-3.66-3.05-5.25-4.82-.19-.21-.35-.46-.45-.72-.38-.96-.46-2.01,.06-2.86,.48-.78,1.41-.23,2.14-.12,4.38,.62,8.74,1.5,13.13,1.83,9.49,.71,19.15,.86,28.65,.51,11.43-.42,26.47-1.19,35.15,7.49,5.1,5.09,7.2,12.24,5.63,19.18-.32,1.4-.84,2.7-1.56,3.87Zm-22.94,28.6c.88-1.4,1.35-3.05,1.22-4.81-.69-9.33-12.74-11.25-20.05-9.64-.42,.09-.64,.4-.6,.8,.18,1.48,.02,2.95,.01,4.42-.02,4.23,.09,8.46,.12,12.68,0,.73,.22,.97,1.04,1.04,3.94,.33,8.76,.59,12.6-.43,2.37-.63,4.43-2.1,5.66-4.06Zm-3.49-29.43c2.76-3.05,2.77-8.58,.42-11.76-2.96-4.02-10.32-4.9-14.93-4.29-1.3,.17-1.22,.5-1.14,1.41,.27,3.08,.08,6.17,.32,9.26,.17,2.27,.03,4.57-.12,6.84-.06,.99,.23,1.16,1.14,1.09,4.13-.34,9.2,.94,12.92-1.38,.52-.32,.98-.72,1.38-1.16Z"/><path class="cls-2" d="M124.96,87.96c-3.47-.45-6.65-1.78-9.71-3.37-3.17-1.65-5.72-4.1-7.91-6.86-3.15-3.98-5.61-8.35-7.31-13.14-1.26-3.53-1.69-7.15-1.57-10.85,.13-3.88,.59-7.72,1.56-11.48,1.15-4.46,2.68-8.8,5.45-12.51,2.44-3.26,5.34-6.15,8.86-8.38,5.06-3.22,10.43-5.5,16.51-5.96,4.77-.36,9.53-.39,14.25,.59,3.92,.81,7.44,2.55,11,4.3,4.86,2.39,8,6.44,11.12,10.57,2.44,3.24,4.12,6.84,5.04,10.72,.48,2.02,.64,4.15,.64,6.28,0,2.28,.17,4.57-.08,6.83-.6,5.57-1.04,11.23-3.93,16.22-2.89,5.01-6.58,9.41-11.66,12.38-1.99,1.16-4.2,2.02-6.47,2.7-4.14,1.23-8.31,2.33-12.56,3.05-3.39,.58-6.82,.11-10.21-.48-1.01-.18-2.01-.41-3.02-.62Zm17.14-23.13c.28-2.73,.54-5.64,.68-8.57,.29-5.8,.67-11.59-.74-17.34-.73-2.95-1.68-5.71-4.4-7.48-.94-.61-1.99-1.27-3.11-.83-2.17,.84-3.93,2.28-4.89,4.42-.74,1.66-1.36,3.39-1.82,5.15-1.16,4.49-1.21,9.09-.99,13.68,.25,5.15,1.1,10.22,2.73,15.14,.8,2.41,1.64,4.8,4.58,5.67,1.86,.55,3.62,.1,4.71-1.52,1.68-2.49,2.36-5.34,3.25-8.33Z"/><path class="cls-2" d="M208.42,87.96c-3.47-.45-6.65-1.78-9.71-3.37-3.17-1.65-5.72-4.1-7.91-6.86-3.15-3.98-5.61-8.35-7.31-13.14-1.26-3.53-1.69-7.15-1.57-10.85,.13-3.88,.59-7.72,1.56-11.48,1.15-4.46,2.68-8.8,5.45-12.51,2.44-3.26,5.34-6.15,8.86-8.38,5.06-3.22,10.43-5.5,16.51-5.96,4.77-.36,9.53-.39,14.25,.59,3.92,.81,7.44,2.55,11,4.3,4.86,2.39,8,6.44,11.12,10.57,2.44,3.24,4.12,6.84,5.04,10.72,.48,2.02,.64,4.15,.64,6.28,0,2.28,.17,4.57-.08,6.83-.6,5.57-1.04,11.23-3.93,16.22-2.89,5.01-6.58,9.41-11.66,12.38-1.99,1.16-4.2,2.02-6.47,2.7-4.14,1.23-8.31,2.33-12.56,3.05-3.39,.58-6.82,.11-10.21-.48-1.01-.18-2.01-.41-3.02-.62Zm17.14-23.13c.28-2.73,.54-5.64,.68-8.57,.29-5.8,.67-11.59-.74-17.34-.73-2.95-1.68-5.71-4.4-7.48-.94-.61-1.99-1.27-3.11-.83-2.17,.84-3.93,2.28-4.89,4.42-.74,1.66-1.36,3.39-1.82,5.15-1.16,4.49-1.21,9.09-.99,13.68,.25,5.15,1.1,10.22,2.73,15.14,.8,2.41,1.64,4.8,4.58,5.67,1.86,.55,3.62,.1,4.71-1.52,1.68-2.49,2.36-5.34,3.25-8.33Z"/><path class="cls-2" d="M86.18,42.83c-1.36,2.21-3.4,3.96-5.96,5.02-1.97,.82-3.82,1.9-5.94,2.37-.24,.05-.45,.23-.4,.51,.07,.38,.27,.69,.66,.86,.95,.43,1.86,.98,2.85,1.31,1.96,.67,3.81,1.65,5.33,2.92,13.2,11.1,9.32,29.76-8.03,33.68-9.01,2.04-18.92,1.23-28.08,1.09-11.38-.18-18.37-1.13-31.79,.24-3.47,.35-5.83,.77-10.6,.25-.7-.08-3.57-.65-3.75-1.39-.2-.81-.62-1.61,.24-2.45,3.01-2.92,9.6-3.39,12.61-6.29,6.46-6.24,5.61-16.42,5.74-24.56,.16-10.48-.13-24.03-5.21-33.51-1.14-2.13-3.3-3.13-5.18-4.39-2.02-1.36-3.66-3.05-5.25-4.82-.19-.21-.35-.46-.45-.72-.38-.96-.46-2.01,.06-2.86,.48-.78,1.41-.23,2.14-.12,4.38,.62,8.74,1.5,13.13,1.83,9.49,.71,19.15,.86,28.65,.51,11.43-.42,26.47-1.19,35.15,7.49,5.1,5.09,7.2,12.24,5.63,19.18-.32,1.4-.84,2.7-1.56,3.87Zm-22.94,28.6c.88-1.4,1.35-3.05,1.22-4.81-.69-9.33-12.74-11.25-20.05-9.64-.42,.09-.64,.4-.6,.8,.18,1.48,.02,2.95,.01,4.42-.02,4.23,.09,8.46,.12,12.68,0,.73,.22,.97,1.04,1.04,3.94,.33,8.76,.59,12.6-.43,2.37-.63,4.43-2.1,5.66-4.06Zm-3.49-29.43c2.76-3.05,2.77-8.58,.42-11.76-2.96-4.02-10.32-4.9-14.93-4.29-1.3,.17-1.22,.5-1.14,1.41,.27,3.08,.08,6.17,.32,9.26,.17,2.27,.03,4.57-.12,6.84-.06,.99,.23,1.16,1.14,1.09,4.13-.34,9.2,.94,12.92-1.38,.52-.32,.98-.72,1.38-1.16Z"/></g><g><path class="cls-2" d="M248.2,166.5v-18.86c0-6,3.1-11.27,7.79-14.31-.08-.49-.17-.97-.28-1.45-.92-3.88-2.6-7.49-5.04-10.72-3.12-4.14-6.25-8.18-11.12-10.57-3.56-1.75-7.08-3.49-11-4.3-4.72-.97-9.48-.94-14.25-.59-6.07,.45-11.45,2.74-16.51,5.96-3.51,2.24-6.42,5.12-8.86,8.38-2.77,3.7-4.3,8.05-5.45,12.51-.97,3.76-1.43,7.6-1.56,11.48-.12,3.7,.31,7.31,1.57,10.85,1.7,4.79,4.15,9.16,7.31,13.14,2.19,2.76,4.73,5.21,7.91,6.86,3.06,1.59,6.24,2.92,9.71,3.37,1.01,.21,2.01,.44,3.02,.62,3.38,.59,6.81,1.06,10.21,.48,4.25-.72,8.42-1.82,12.56-3.05,2.26-.67,4.48-1.53,6.47-2.7,2.95-1.73,5.43-3.95,7.56-6.48,0-.21-.03-.41-.03-.62Zm-21.96-19.95c-.14,2.93-.41,5.84-.68,8.57-.89,2.99-1.57,5.84-3.25,8.33-1.09,1.62-2.85,2.07-4.71,1.52-2.94-.87-3.79-3.26-4.58-5.67-1.62-4.91-2.48-9.99-2.73-15.14-.22-4.59-.17-9.2,.99-13.68,.45-1.76,1.08-3.49,1.82-5.15,.95-2.14,2.72-3.58,4.89-4.42,1.12-.44,2.17,.22,3.11,.83,2.72,1.77,3.68,4.53,4.4,7.48,1.41,5.75,1.03,11.54,.74,17.34Z"/><path class="cls-2" d="M265.26,184.38c-9.86,0-17.88-8.02-17.88-17.88v-18.86c0-9.86,8.02-17.88,17.88-17.88s17.88,8.02,17.88,17.88v18.86c0,9.86-8.02,17.88-17.88,17.88Zm0-52.99c-8.96,0-16.25,7.29-16.25,16.25v18.86c0,8.96,7.29,16.25,16.25,16.25s16.25-7.29,16.25-16.25v-18.86c0-8.96-7.29-16.25-16.25-16.25Z"/></g><g><path class="cls-2" d="M252.39,148.31c-.03-.26,.06-.56,.06-.68,0-2.33-.09-4.66-.27-6.97-.03-.4-.12-.82-.12-1.22,0-.21,.06-.35,.39-.35,.36,0,.72,.02,1.05,.02,.78,0,1.57,.05,2.38,.05,1.02,0,1.74,0,2.74-.05,.18,0,.9-.07,1.05-.07,.33,.02,.27,.35,.27,.56,0,.85-.12,1.67-.18,2.49-.15,2-.21,4-.21,6,0,.33-.03,.66-.57,.66-.63,0-1.23-.05-1.87-.05h-2.74c-.54,0-1.08,.05-1.59,.05-.24,0-.39-.12-.39-.45Zm4.54-2.05c.12-1.6,.09-3.2,.18-4.8-.69-.02-1.38-.02-2.08,0,.06,1.6,.06,3.2,.12,4.8h1.78Zm9.36,9.79c0-.14,.03-.28,.06-.42,.12-.97,.24-1.91,.24-2.9h-2.68c-.03,.82-.06,1.63-.06,2.52,0,.33,.03,.54,.03,.7-.06,.28-.18,.33-.45,.35-.39,.05-1.84,0-2.23,0-.51,0-.6,.05-.6-.38,0-.14,.03-.26,.06-.38,.09-.45,.12-.92,.18-1.37,.24-1.77,.33-3.32,.33-5.08,0-1.3-.06-2.57-.12-3.91-.03-.28-.15-1.03-.15-1.22,0-.21,.18-.23,.39-.23,.27,0,.54,.02,.81,.05,.81,.05,1.6,.07,2.41,.07,.69,.02,1.44,0,2.14,0v-1.53c-1.56,.05-3.22,.12-4.54,.19-.39,.02-.81,.12-1.2,.12-.33,0-.27-.28-.3-.47v-1.79c0-.16,.12-.33,.3-.33,.21,0,.48,.02,.69,.02,.45,0,.9,.02,1.35,.02,1.5,0,2.5,0,3.67,.02-.03-.85,0-1.65-.09-2.45-.03-.31-.12-.49-.09-.73,.03-.24,.39-.21,.72-.21,.45-.02,1.56,0,2.05,0,.51,0,.93-.05,.93,.26,0,.17-.03,.45-.06,.61-.09,.68-.18,1.72-.24,2.54,1.2-.02,2.71-.05,4.03-.05,.96,0,1.83-.05,2.53-.07,.63-.02,1.17-.14,1.32-.12,.24,0,.27,.05,.27,.14,0,.14-.09,.38-.18,.8-.12,.63-.27,1.41-.3,1.48-.06,.21-.12,.23-.39,.23-.54,0-1.08-.07-1.62-.09-1.9-.09-3.85-.14-5.75-.14-.03,.49-.03,1.01-.03,1.53,.81,0,1.5-.02,2.32-.02,.66-.02,1.32-.02,1.98-.05,.39,0,.78-.07,1.17-.07,.21,0,.27,.09,.27,.28,0,.59-.12,1.18-.12,1.77,0,1.08-.06,2.17,0,3.23,.06,1.11,.06,2.24,.09,3.34,.03,.92,.15,1.37,.21,2.28,.03,.47,.15,.99,.15,1.46,0,.38-.54,.23-.81,.23-.75,0-1.5,.05-2.26,.05-.21,0-.48-.07-.48-.23,0-.21,.06-.42,.09-.61,.03-.38,.06-.71,.06-1.08,.03-.66,.03-1.16,.03-1.7h-2.62c.03,1.04,.06,1.7,.21,2.73,.03,.19,.06,.4,.06,.59,0,.31-.48,.28-.78,.31h-2.1c-.63,0-.9,0-.9-.31Zm.33-5.2l.03-1.44-2.68,.02c0,.49,0,.97-.03,1.44l2.68-.02Zm.03-3.39v-1.53c-.84,0-1.8,.02-2.68,.02v1.51h2.68Zm5.78,0v-1.53c-.96,0-1.8-.02-2.71-.02v1.55h2.71Zm0,3.39v-1.44h-2.68l.03,1.44h2.65Zm-.96-11.56c0-.19,.27-.47,.39-.61,.54-.61,1.11-1.25,1.6-1.91,.12-.16,.33-.49,.57-.49s.48,.23,.66,.38c.36,.28,1.02,.92,1.5,1.41,.18,.19,.27,.4,.24,.49,0,.23-.18,.31-.45,.38-.84,.28-2.59,.59-3.49,.59-.21,0-1.02,0-1.02-.23Z"/><path class="cls-2" d="M252.39,169.48c-.03-.26,.06-.56,.06-.68,0-2.33-.09-4.66-.27-6.97-.03-.4-.12-.82-.12-1.22,0-.21,.06-.35,.39-.35,.36,0,.72,.02,1.05,.02,.78,0,1.57,.05,2.38,.05,1.02,0,1.74,0,2.74-.05,.18,0,.9-.07,1.05-.07,.33,.02,.27,.35,.27,.56,0,.85-.12,1.67-.18,2.49-.15,2-.21,4-.21,6,0,.33-.03,.66-.57,.66-.63,0-1.23-.05-1.87-.05h-2.74c-.54,0-1.08,.05-1.59,.05-.24,0-.39-.12-.39-.45Zm4.54-2.05c.12-1.6,.09-3.2,.18-4.8-.69-.02-1.38-.02-2.08,0,.06,1.6,.06,3.2,.12,4.8h1.78Zm9.36,9.79c0-.14,.03-.28,.06-.42,.12-.97,.24-1.91,.24-2.9h-2.68c-.03,.82-.06,1.63-.06,2.52,0,.33,.03,.54,.03,.7-.06,.28-.18,.33-.45,.35-.39,.05-1.84,0-2.23,0-.51,0-.6,.05-.6-.38,0-.14,.03-.26,.06-.38,.09-.45,.12-.92,.18-1.37,.24-1.77,.33-3.32,.33-5.08,0-1.3-.06-2.57-.12-3.91-.03-.28-.15-1.03-.15-1.22,0-.21,.18-.23,.39-.23,.27,0,.54,.02,.81,.05,.81,.05,1.6,.07,2.41,.07,.69,.02,1.44,0,2.14,0v-1.53c-1.56,.05-3.22,.12-4.54,.19-.39,.02-.81,.12-1.2,.12-.33,0-.27-.28-.3-.47v-1.79c0-.16,.12-.33,.3-.33,.21,0,.48,.02,.69,.02,.45,0,.9,.02,1.35,.02,1.5,0,2.5,0,3.67,.02-.03-.85,0-1.65-.09-2.45-.03-.31-.12-.49-.09-.73,.03-.24,.39-.21,.72-.21,.45-.02,1.56,0,2.05,0,.51,0,.93-.05,.93,.26,0,.17-.03,.45-.06,.61-.09,.68-.18,1.72-.24,2.54,1.2-.02,2.71-.05,4.03-.05,.96,0,1.83-.05,2.53-.07,.63-.02,1.17-.14,1.32-.12,.24,0,.27,.05,.27,.14,0,.14-.09,.38-.18,.8-.12,.63-.27,1.41-.3,1.48-.06,.21-.12,.23-.39,.23-.54,0-1.08-.07-1.62-.09-1.9-.09-3.85-.14-5.75-.14-.03,.49-.03,1.01-.03,1.53,.81,0,1.5-.02,2.32-.02,.66-.02,1.32-.02,1.98-.05,.39,0,.78-.07,1.17-.07,.21,0,.27,.09,.27,.28,0,.59-.12,1.18-.12,1.77,0,1.08-.06,2.17,0,3.23,.06,1.11,.06,2.24,.09,3.34,.03,.92,.15,1.37,.21,2.28,.03,.47,.15,.99,.15,1.46,0,.38-.54,.23-.81,.23-.75,0-1.5,.05-2.26,.05-.21,0-.48-.07-.48-.23,0-.21,.06-.42,.09-.61,.03-.38,.06-.71,.06-1.08,.03-.66,.03-1.16,.03-1.7h-2.62c.03,1.04,.06,1.7,.21,2.73,.03,.19,.06,.4,.06,.59,0,.31-.48,.28-.78,.31h-2.1c-.63,0-.9,0-.9-.31Zm.33-5.2l.03-1.44-2.68,.02c0,.49,0,.97-.03,1.44l2.68-.02Zm.03-3.39v-1.53c-.84,0-1.8,.02-2.68,.02v1.51h2.68Zm5.78,0v-1.53c-.96,0-1.8-.02-2.71-.02v1.55h2.71Zm0,3.39v-1.44h-2.68l.03,1.44h2.65Zm-.96-11.56c0-.19,.27-.47,.39-.61,.54-.61,1.11-1.25,1.6-1.91,.12-.16,.33-.49,.57-.49s.48,.23,.66,.38c.36,.28,1.02,.92,1.5,1.41,.18,.19,.27,.4,.24,.49,0,.23-.18,.31-.45,.38-.84,.28-2.59,.59-3.49,.59-.21,0-1.02,0-1.02-.23Z"/></g></g></g><g><g><path class="cls-1" d="M95.66,216.43c-.67-.07-1.31-.34-1.88-.77-.44-.34-1.24-1.01-3.79-3.99-1.41-1.64-5.96-7.54-7.44-10.05-.1-.2-.07-.3,0-.4,1.11-1.41,3.55-4.09,4.73-5.26,1.91-1.91,3.32-3.12,5.59-3.32,.77-.07,.87-.2,.87-.44,0-.2-.13-.34-.91-.34-.33,0-2.81,.1-5.76,.1-2.11,0-2.58-.1-4.32-.1-.64,0-.87,.17-.87,.37,0,.3,.33,.37,.64,.4,1.17,.13,1.37,.37,1.37,.8,0,.67-.77,1.81-1.27,2.45-2.14,2.75-5.19,6.23-6.97,7.84v-2.14c0-3.55,.07-5.63,.13-6.7,.1-1.44,.4-2.11,2.18-2.24,.47-.03,.74-.1,.74-.4s-.3-.37-1.01-.37c-1.47,0-6.43,.1-6.63,.1s-4.32-.1-5.97-.1c-.8,0-.94,.14-.94,.37,0,.27,.3,.34,.87,.37,1.51,.07,1.91,.47,2.01,1.68,.1,1.07,.17,2.08,.17,7.3v5.9c0,2.48-.07,5.26-.17,6.67-.1,1.61-.5,2.28-2.01,2.28-.09,0-.17,0-.24,.01-.1-.02-.19-.03-.32-.04-1.91-.2-2.34-1.01-3.82-4.09-2.25-4.59-8.34-16.69-8.68-17.32-1.61-3.08-1.88-3.72-2.45-3.72-.54,0-1.24,1.2-2.58,3.85l-9.41,18.39c-1.41,2.38-1.98,2.88-3.08,2.92-.57,.03-.77,.17-.77,.4,0,.34,.44,.37,.94,.37,1.77,0,3.62-.1,4.32-.1,2.78,0,2.95,.1,5.02,.1,.54,0,.94-.03,.94-.37,0-.27-.24-.37-.87-.4-1.78-.1-1.98-.54-1.98-1.21,0-.5,.3-1.41,.64-2.24,.1-.27,.2-.3,.44-.3h7.77c.2,0,.27,.03,.3,.17l1.44,2.78c.1,.27,.07,.57-.3,.67-.3,.07-.57,.17-.57,.37s.07,.37,.7,.4c8.46,.45,16.99,.13,25.46,.13,.74,0,.9-.17,.9-.44,0-.23-.23-.3-.84-.33-1.74-.07-2.04-.87-2.18-2.11-.17-1.41-.17-5.19-.17-6.83v-2.24c.13,.3,.23,.6,.64,1.24,2.45,4.19,4.56,6.94,5.6,8.08,2.01,2.24,3.08,2.65,9.28,2.65h4.22c.7,0,1.04-.07,1.04-.4,0-.23-.17-.3-.77-.37Zm-46.06-7.57h-5.06c-.13,0-.17-.1-.13-.2l2.55-5.26c.07-.13,.13-.17,.2-.07l2.55,5.36s.07,.17-.1,.17Z"/><path class="cls-1" d="M160.16,191.87c-1.2,0-4.05,.1-4.99,.1-1.11,0-2.71-.1-5.03-.1-.64,0-.84,.1-.84,.3,0,.24,.23,.4,.8,.44,2.08,.1,2.25,.74,2.31,2.82,.03,1.07,.03,1.51,.03,6.16v3.75c0,5.9-.37,7.2-1.74,8.41-.84,.74-2.04,.81-2.61,.81-1.37,0-2.71-.37-3.62-1.61-.81-1.11-1.11-2.75-1.11-5.23v-6.13c0-5.23,.03-5.7,.13-6.77,.13-1.54,.5-2.04,1.91-2.18,.37-.03,.81-.07,.81-.47,0-.23-.17-.3-.87-.3-1.47,0-6.37,.1-6.8,.1-4.15,0-8.3,0-12.45,0-2.11,0-2.58-.1-4.32-.1-.64,0-.87,.17-.87,.37,0,.3,.34,.37,.64,.4,1.17,.13,1.37,.37,1.37,.8,0,.67-.77,1.81-1.27,2.45-2.14,2.75-5.19,6.23-6.97,7.84v-2.14c0-3.55,.07-5.63,.13-6.7,.1-1.44,.4-2.11,2.18-2.24,.47-.03,.74-.1,.74-.4s-.3-.37-1.01-.37c-1.47,0-6.43,.1-6.63,.1s-4.32-.1-5.96-.1c-.8,0-.94,.14-.94,.37,0,.27,.3,.34,.87,.37,1.51,.07,1.91,.47,2.01,1.68,.1,1.07,.17,2.08,.17,7.3v5.9c0,2.48-.07,5.26-.17,6.67-.1,1.61-.5,2.28-2.01,2.28-.54,0-.8,.07-.8,.37s.4,.4,.84,.4c1.17,0,5.8-.1,6-.1,.17,0,3.99,.1,6.87,.1,.74,0,.91-.17,.91-.44,0-.23-.24-.3-.84-.33-1.74-.07-2.04-.87-2.18-2.11-.17-1.41-.17-5.19-.17-6.83v-2.24c.13,.3,.23,.6,.64,1.24,2.45,4.19,4.56,6.94,5.6,8.08,2.01,2.24,3.08,2.65,9.28,2.65h4.22c.7,0,1.04-.07,1.04-.4,0-.23-.17-.3-.77-.37-.67-.07-1.31-.34-1.88-.77-.44-.34-1.24-1.01-3.78-3.99-1.41-1.64-5.97-7.54-7.44-10.05-.1-.2-.07-.3,0-.4,1.1-1.41,3.21-3.68,4.38-4.85,1.24-1.24,3.25-3.39,5.03-3.71,1.04-.18,2.48,.07,3.21,.91,.81,.94,.56,2.92,.51,4.09-.05,1.31-.02,2.62-.02,3.93v5.63c0,4.79,1.61,7.04,3.59,8.38,2.21,1.51,4.76,2.08,8.71,2.08,2.61,0,5.63-.77,7.54-2.21,3.52-2.65,3.82-6.63,3.82-10.32v-3.55c0-4.66,.03-5.33,.1-6.4,.1-1.98,.34-2.41,1.91-2.55,.6-.07,.7-.23,.7-.44,0-.27-.24-.34-.91-.34Z"/><path class="cls-1" d="M178.83,207.48c0,1.64,.03,5.33,.2,6.73,.13,1.24,.7,2.11,2.92,2.21,.64,.03,.9,.1,.9,.4,0,.27-.2,.37-.94,.37-2.88,0-7.74-.1-7.91-.1-.2,0-5.23,.1-6.4,.1-.54,0-.87-.03-.87-.37,0-.27,.34-.37,.81-.4,1.91-.1,2.24-.64,2.41-2.38,.13-1.41,.2-4.09,.2-6.57v-12.06c-1.11,0-2.81-.03-4.56,.07-1.74,.1-2.41,.37-2.98,2.35-.13,.47-.3,.6-.5,.6-.23,0-.33-.24-.27-.71,.3-2.04,.77-4.25,.87-5.66,.03-.54,.17-.67,.34-.67,.2,0,.44,.07,.7,.17,1.07,.3,2.18,.4,4.93,.4h15.34c.84,0,1.31-.03,1.94-.17,.54-.13,.84-.23,1.01-.23,.3,0,.33,.2,.33,.64,0,.4-.23,3.35-.23,5.66,0,.74-.13,1.01-.37,1.01-.27,0-.4-.2-.43-.81-.1-1.67-.74-2.31-2.21-2.48-1.14-.13-2.41-.17-5.23-.17v12.06Z"/><path class="cls-1" d="M211.9,207.48c0,1.64,.03,5.33,.2,6.73,.13,1.24,.7,2.11,2.92,2.21,.64,.03,.9,.1,.9,.4,0,.27-.2,.37-.94,.37-2.88,0-7.74-.1-7.91-.1-.2,0-5.23,.1-6.4,.1-.54,0-.87-.03-.87-.37,0-.27,.34-.37,.81-.4,1.91-.1,2.24-.64,2.41-2.38,.13-1.41,.2-4.09,.2-6.57v-12.06c-1.11,0-2.81-.03-4.56,.07-1.74,.1-2.41,.37-2.98,2.35-.13,.47-.3,.6-.5,.6-.23,0-.33-.24-.27-.71,.3-2.04,.77-4.25,.87-5.66,.03-.54,.17-.67,.34-.67,.2,0,.44,.07,.7,.17,1.07,.3,2.18,.4,4.93,.4h15.34c.84,0,1.31-.03,1.94-.17,.54-.13,.84-.23,1.01-.23,.3,0,.33,.2,.33,.64,0,.4-.23,3.35-.23,5.66,0,.74-.13,1.01-.37,1.01-.27,0-.4-.2-.43-.81-.1-1.67-.74-2.31-2.21-2.48-1.14-.13-2.41-.17-5.23-.17v12.06Z"/><path class="cls-1" d="M225.32,201.59c0-5.66-.03-6.1-.1-7-.17-1.37-.37-1.88-2.01-1.94-.54-.03-.84-.1-.84-.4,0-.27,.3-.37,.84-.37,2.58,0,4.12,.1,5.96,.1,.6,0,10.96,0,11.39-.03,1.51-.07,2.18-.13,2.55-.27,.3-.1,.44-.17,.6-.17s.2,.13,.2,.3-.13,.84-.23,1.88c-.1,1.24-.23,2.58-.23,4.42,0,.47-.07,.77-.4,.77-.23,0-.37-.14-.4-.71-.17-1.98-.9-2.58-2.88-2.75-1.41-.1-5.43-.17-5.73-.17-.23,0-.27,.07-.27,.23v6.07c0,.23,.07,.37,.27,.37,1.44,.07,3.45,.03,5.03,0,2.51-.07,3.12-.27,3.42-.74,.2-.33,.34-.4,.5-.4,.2,0,.23,.17,.23,.5,0,.54-.4,3.02-.4,5.23v1.24c0,.44-.13,.74-.4,.74s-.4-.2-.44-.74c-.07-1.27-.44-2.34-2.92-2.48-.7-.03-3.59-.1-5.03-.1-.17,0-.27,.07-.27,.24v2.14c0,1.14,0,1.81,.03,2.95,.07,2.71,.6,3.42,5.36,3.42,.7,0,2.14-.03,3.12-.44,1.14-.47,1.54-1.51,1.71-2.95,.03-.2,.17-.6,.47-.6,.23,0,.33,.2,.33,.64,0,1.47-.3,4.66-.67,5.86-.23,.74-.64,.87-1.81,.87-5.13,0-7.91-.2-13.24-.2-2.68,0-3.89,.1-5.8,.1-.6,0-.94-.03-.94-.4,0-.27,.24-.34,.81-.37,1.98-.13,2.04-.3,2.14-5.29,.03-1.41,.03-3.12,.03-3.65v-5.9Z"/><path class="cls-1" d="M249.5,201.79c0-4.89-.07-6.36-.13-7.44-.1-1.37-.54-1.67-2.11-1.74-.67-.03-.8-.17-.8-.4s.23-.34,.77-.34c2.65,0,5.19,.1,6.13,.1,1.11,0,4.66-.1,6.7-.1,.8,0,.87,.17,.87,.37,0,.17-.17,.37-.87,.4-1.47,.1-1.68,.5-1.78,2.18-.07,1.07-.1,2.75-.1,6.13v.7c0,.17,.1,.2,.2,.2h7.3c.1,0,.2-.03,.2-.2v-.7c0-4.56-.07-5.56-.13-6.63-.07-1.11-.3-1.57-1.54-1.67-.64-.07-.84-.2-.84-.4,0-.17,.03-.37,.87-.37,2.55,0,5.93,.1,6,.1,.17,0,4.52-.1,6.57-.1,.67,0,.81,.14,.81,.37,0,.2-.17,.37-.81,.4-1.77,.1-2.04,.87-2.11,2.04-.07,1.07-.13,1.67-.13,6.9v5.9c0,1.64,.03,5.5,.2,6.9,.13,1.24,.44,1.98,2.24,2.04,.4,.03,.77,.07,.77,.4,0,.27-.3,.37-.81,.37-3.22,0-7.04-.1-7.2-.1-.67,0-3.55,.1-5.8,.1-.67,0-.8-.13-.8-.37s.13-.37,.77-.4c1.21-.07,1.71-.47,1.81-1.84,.1-1.41,.13-3.02,.13-6.23v-2.28c0-.13-.1-.2-.2-.2h-7.3c-.1,0-.2,.03-.2,.2v3.75c0,2.21,.07,3.95,.13,4.69,.13,1.27,.33,1.81,2.21,1.91,.57,.03,.74,.17,.74,.4,0,.17-.1,.37-.77,.37-2.28,0-6.97-.1-7.14-.1-.1,0-4.96,.1-5.96,.1-.57,0-.87-.13-.87-.37,0-.27,.2-.37,.84-.4,1.74-.07,1.81-.57,1.94-2.08,.13-1.41,.2-3.65,.2-6.87v-5.7Z"/><path class="cls-1" d="M32.54,201.09c-.46,.76-1.14,1.36-2,1.73-.66,.28-1.28,.66-2,.82-.08,.02-.15,.08-.13,.17,.02,.13,.09,.24,.22,.3,.32,.15,.63,.34,.96,.45,.66,.23,1.28,.57,1.79,1,4.44,3.82,3.14,10.26-2.69,11.62-3.03,.7-6.36,.43-9.44,.38-3.83-.06-6.18-.38-10.69,.09-1.17,.12-1.96,.27-3.56,.09-.24-.03-1.2-.22-1.26-.48-.07-.28-.21-.56,.08-.84,1.01-1.01,3.23-1.17,4.24-2.17,2.17-2.15,1.88-5.66,1.92-8.47,.05-3.61-.05-8.29-1.76-11.55-.38-.73-1.11-1.08-1.74-1.51-.68-.47-1.23-1.05-1.77-1.66-.06-.07-.12-.16-.15-.25-.13-.33-.16-.69,.02-.98,.16-.27,.47-.08,.72-.04,1.47,.21,2.94,.51,4.42,.63,3.19,.24,6.44,.29,9.63,.17,3.84-.15,8.9-.42,11.82,2.57,1.72,1.76,2.42,4.22,1.9,6.61-.11,.48-.28,.93-.52,1.34Zm-7.71,9.87c.3-.48,.45-1.05,.41-1.66-.23-3.22-4.29-3.87-6.75-3.32-.14,.03-.22,.14-.2,.27,.06,.51,0,1.02,0,1.53,0,1.46,.03,2.92,.04,4.37,0,.25,.07,.33,.35,.36,1.33,.11,2.95,.2,4.24-.15,.8-.22,1.49-.73,1.9-1.4Zm-1.18-10.15c.93-1.05,.93-2.96,.14-4.06-1-1.38-3.47-1.69-5.02-1.48-.44,.06-.41,.17-.38,.49,.09,1.06,.03,2.13,.11,3.19,.06,.78,.01,1.58-.04,2.36-.02,.34,.08,.4,.39,.37,1.39-.12,3.09,.32,4.34-.48,.17-.11,.33-.25,.47-.4Z"/></g><g><g><path class="cls-1" d="M124.77,168.6c-3.47-.45-6.65-1.78-9.71-3.37-3.17-1.65-5.72-4.1-7.91-6.86-3.15-3.98-5.61-8.35-7.31-13.14-1.26-3.53-1.69-7.15-1.57-10.85,.13-3.88,.59-7.72,1.56-11.48,1.15-4.46,2.68-8.8,5.45-12.51,2.44-3.26,5.34-6.15,8.86-8.38,5.06-3.22,10.43-5.5,16.51-5.96,4.77-.36,9.53-.39,14.25,.59,3.92,.81,7.44,2.55,11,4.3,4.86,2.39,8,6.44,11.12,10.57,2.44,3.24,4.12,6.84,5.04,10.72,.48,2.02,.64,4.15,.64,6.28,0,2.28,.17,4.57-.08,6.83-.6,5.57-1.04,11.23-3.93,16.22-2.89,5.01-6.58,9.41-11.66,12.38-1.99,1.16-4.2,2.02-6.47,2.7-4.14,1.23-8.31,2.33-12.56,3.05-3.39,.58-6.82,.11-10.21-.48-1.01-.18-2.01-.41-3.02-.62Zm17.14-23.13c.28-2.73,.54-5.64,.68-8.57,.29-5.8,.67-11.59-.74-17.34-.73-2.95-1.68-5.71-4.4-7.48-.94-.61-1.99-1.27-3.11-.83-2.17,.84-3.93,2.28-4.89,4.42-.74,1.66-1.36,3.39-1.82,5.15-1.16,4.49-1.21,9.09-.99,13.68,.25,5.15,1.1,10.22,2.73,15.14,.8,2.41,1.64,4.8,4.58,5.67,1.86,.55,3.62,.1,4.71-1.52,1.68-2.49,2.36-5.34,3.25-8.33Z"/><path class="cls-1" d="M85.99,123.46c-1.36,2.21-3.4,3.96-5.96,5.02-1.97,.82-3.82,1.9-5.94,2.37-.24,.05-.45,.23-.4,.51,.07,.38,.27,.69,.66,.86,.95,.43,1.86,.98,2.85,1.31,1.96,.67,3.81,1.65,5.33,2.92,13.2,11.1,9.32,29.76-8.03,33.68-9.01,2.04-18.92,1.23-28.08,1.09-11.38-.18-18.37-1.13-31.79,.24-3.47,.35-5.83,.77-10.6,.25-.7-.08-3.57-.65-3.75-1.39-.2-.81-.62-1.61,.24-2.45,3.01-2.92,9.6-3.39,12.61-6.29,6.46-6.24,5.61-16.42,5.74-24.56,.16-10.48-.13-24.03-5.21-33.51-1.14-2.13-3.3-3.13-5.18-4.39-2.02-1.36-3.66-3.05-5.25-4.82-.19-.21-.35-.46-.45-.72-.38-.96-.46-2.01,.06-2.86,.48-.78,1.41-.23,2.14-.12,4.38,.62,8.74,1.5,13.13,1.83,9.49,.71,19.15,.86,28.65,.51,11.43-.42,26.47-1.19,35.15,7.49,5.1,5.09,7.2,12.24,5.63,19.18-.32,1.4-.84,2.7-1.56,3.87Zm-22.94,28.6c.88-1.4,1.35-3.05,1.22-4.81-.69-9.33-12.74-11.25-20.05-9.64-.42,.09-.64,.4-.6,.8,.18,1.48,.02,2.95,.01,4.42-.02,4.23,.09,8.46,.12,12.68,0,.73,.22,.97,1.04,1.04,3.94,.33,8.76,.59,12.6-.43,2.37-.63,4.43-2.1,5.66-4.06Zm-3.49-29.43c2.76-3.05,2.77-8.58,.42-11.76-2.96-4.02-10.32-4.9-14.93-4.29-1.3,.17-1.22,.5-1.14,1.41,.27,3.08,.08,6.17,.32,9.26,.17,2.27,.03,4.57-.12,6.84-.06,.99,.23,1.16,1.14,1.09,4.13-.34,9.2,.94,12.92-1.38,.52-.32,.98-.72,1.38-1.16Z"/><path class="cls-1" d="M124.77,78.3c-3.47-.45-6.65-1.78-9.71-3.37-3.17-1.65-5.72-4.1-7.91-6.86-3.15-3.98-5.61-8.35-7.31-13.14-1.26-3.53-1.69-7.15-1.57-10.85,.13-3.88,.59-7.72,1.56-11.48,1.15-4.46,2.68-8.8,5.45-12.51,2.44-3.26,5.34-6.15,8.86-8.38,5.06-3.22,10.43-5.5,16.51-5.96,4.77-.36,9.53-.39,14.25,.59,3.92,.81,7.44,2.55,11,4.3,4.86,2.39,8,6.44,11.12,10.57,2.44,3.24,4.12,6.84,5.04,10.72,.48,2.02,.64,4.15,.64,6.28,0,2.28,.17,4.57-.08,6.83-.6,5.57-1.04,11.23-3.93,16.22-2.89,5.01-6.58,9.41-11.66,12.38-1.99,1.16-4.2,2.02-6.47,2.7-4.14,1.23-8.31,2.33-12.56,3.05-3.39,.58-6.82,.11-10.21-.48-1.01-.18-2.01-.41-3.02-.62Zm17.14-23.13c.28-2.73,.54-5.64,.68-8.57,.29-5.8,.67-11.59-.74-17.34-.73-2.95-1.68-5.71-4.4-7.48-.94-.61-1.99-1.27-3.11-.83-2.17,.84-3.93,2.28-4.89,4.42-.74,1.66-1.36,3.39-1.82,5.15-1.16,4.49-1.21,9.09-.99,13.68,.25,5.15,1.1,10.22,2.73,15.14,.8,2.41,1.64,4.8,4.58,5.67,1.86,.55,3.62,.1,4.71-1.52,1.68-2.49,2.36-5.34,3.25-8.33Z"/><path class="cls-1" d="M208.23,78.3c-3.47-.45-6.65-1.78-9.71-3.37-3.17-1.65-5.72-4.1-7.91-6.86-3.15-3.98-5.61-8.35-7.31-13.14-1.26-3.53-1.69-7.15-1.57-10.85,.13-3.88,.59-7.72,1.56-11.48,1.15-4.46,2.68-8.8,5.45-12.51,2.44-3.26,5.34-6.15,8.86-8.38,5.06-3.22,10.43-5.5,16.51-5.96,4.77-.36,9.53-.39,14.25,.59,3.92,.81,7.44,2.55,11,4.3,4.86,2.39,8,6.44,11.12,10.57,2.44,3.24,4.12,6.84,5.04,10.72,.48,2.02,.64,4.15,.64,6.28,0,2.28,.17,4.57-.08,6.83-.6,5.57-1.04,11.23-3.93,16.22-2.89,5.01-6.58,9.41-11.66,12.38-1.99,1.16-4.2,2.02-6.47,2.7-4.14,1.23-8.31,2.33-12.56,3.05-3.39,.58-6.82,.11-10.21-.48-1.01-.18-2.01-.41-3.02-.62Zm17.14-23.13c.28-2.73,.54-5.64,.68-8.57,.29-5.8,.67-11.59-.74-17.34-.73-2.95-1.68-5.71-4.4-7.48-.94-.61-1.99-1.27-3.11-.83-2.17,.84-3.93,2.28-4.89,4.42-.74,1.66-1.36,3.39-1.82,5.15-1.16,4.49-1.21,9.09-.99,13.68,.25,5.15,1.1,10.22,2.73,15.14,.8,2.41,1.64,4.8,4.58,5.67,1.86,.55,3.62,.1,4.71-1.52,1.68-2.49,2.36-5.34,3.25-8.33Z"/><path class="cls-1" d="M85.99,33.17c-1.36,2.21-3.4,3.96-5.96,5.02-1.97,.82-3.82,1.9-5.94,2.37-.24,.05-.45,.23-.4,.51,.07,.38,.27,.69,.66,.86,.95,.43,1.86,.98,2.85,1.31,1.96,.67,3.81,1.65,5.33,2.92,13.2,11.1,9.32,29.76-8.03,33.68-9.01,2.04-18.92,1.23-28.08,1.09-11.38-.18-18.37-1.13-31.79,.24-3.47,.35-5.83,.77-10.6,.25-.7-.08-3.57-.65-3.75-1.39-.2-.81-.62-1.61,.24-2.45,3.01-2.92,9.6-3.39,12.61-6.29,6.46-6.24,5.61-16.42,5.74-24.56,.16-10.48-.13-24.03-5.21-33.51-1.14-2.13-3.3-3.13-5.18-4.39-2.02-1.36-3.66-3.05-5.25-4.82-.19-.21-.35-.46-.45-.72-.38-.96-.46-2.01,.06-2.86,.48-.78,1.41-.23,2.14-.12,4.38,.62,8.74,1.5,13.13,1.83,9.49,.71,19.15,.86,28.65,.51,11.43-.42,26.47-1.19,35.15,7.49,5.1,5.09,7.2,12.24,5.63,19.18-.32,1.4-.84,2.7-1.56,3.87Zm-22.94,28.6c.88-1.4,1.35-3.05,1.22-4.81-.69-9.33-12.74-11.25-20.05-9.64-.42,.09-.64,.4-.6,.8,.18,1.48,.02,2.95,.01,4.42-.02,4.23,.09,8.46,.12,12.68,0,.73,.22,.97,1.04,1.04,3.94,.33,8.76,.59,12.6-.43,2.37-.63,4.43-2.1,5.66-4.06Zm-3.49-29.43c2.76-3.05,2.77-8.58,.42-11.76-2.96-4.02-10.32-4.9-14.93-4.29-1.3,.17-1.22,.5-1.14,1.41,.27,3.08,.08,6.17,.32,9.26,.17,2.27,.03,4.57-.12,6.84-.06,.99,.23,1.16,1.14,1.09,4.13-.34,9.2,.94,12.92-1.38,.52-.32,.98-.72,1.38-1.16Z"/></g><g><path class="cls-1" d="M248.01,156.84v-18.86c0-6,3.1-11.27,7.79-14.31-.08-.49-.17-.97-.28-1.45-.92-3.88-2.6-7.49-5.04-10.72-3.12-4.14-6.25-8.18-11.12-10.57-3.56-1.75-7.08-3.49-11-4.3-4.72-.97-9.48-.94-14.25-.59-6.07,.45-11.45,2.74-16.51,5.96-3.51,2.24-6.42,5.12-8.86,8.38-2.77,3.7-4.3,8.05-5.45,12.51-.97,3.76-1.43,7.6-1.56,11.48-.12,3.7,.31,7.31,1.57,10.85,1.7,4.79,4.15,9.16,7.31,13.14,2.19,2.76,4.73,5.21,7.91,6.86,3.06,1.59,6.24,2.92,9.71,3.37,1.01,.21,2.01,.44,3.02,.62,3.38,.59,6.81,1.06,10.21,.48,4.25-.72,8.42-1.82,12.56-3.05,2.26-.67,4.48-1.53,6.47-2.7,2.95-1.73,5.43-3.95,7.56-6.48,0-.21-.03-.41-.03-.62Zm-21.96-19.95c-.14,2.93-.41,5.84-.68,8.57-.89,2.99-1.57,5.84-3.25,8.33-1.09,1.62-2.85,2.07-4.71,1.52-2.94-.87-3.79-3.26-4.58-5.67-1.62-4.91-2.48-9.99-2.73-15.14-.22-4.59-.17-9.2,.99-13.68,.45-1.76,1.08-3.49,1.82-5.15,.95-2.14,2.72-3.58,4.89-4.42,1.12-.44,2.17,.22,3.11,.83,2.72,1.77,3.68,4.53,4.4,7.48,1.41,5.75,1.03,11.54,.74,17.34Z"/><path class="cls-1" d="M265.07,174.73c-9.86,0-17.88-8.02-17.88-17.88v-18.86c0-9.86,8.02-17.88,17.88-17.88s17.88,8.02,17.88,17.88v18.86c0,9.86-8.02,17.88-17.88,17.88Zm0-52.99c-8.96,0-16.25,7.29-16.25,16.25v18.86c0,8.96,7.29,16.25,16.25,16.25s16.25-7.29,16.25-16.25v-18.86c0-8.96-7.29-16.25-16.25-16.25Z"/></g><g><path class="cls-1" d="M252.2,138.65c-.03-.26,.06-.56,.06-.68,0-2.33-.09-4.66-.27-6.97-.03-.4-.12-.82-.12-1.22,0-.21,.06-.35,.39-.35,.36,0,.72,.02,1.05,.02,.78,0,1.57,.05,2.38,.05,1.02,0,1.74,0,2.74-.05,.18,0,.9-.07,1.05-.07,.33,.02,.27,.35,.27,.56,0,.85-.12,1.67-.18,2.49-.15,2-.21,4-.21,6,0,.33-.03,.66-.57,.66-.63,0-1.23-.05-1.87-.05h-2.74c-.54,0-1.08,.05-1.59,.05-.24,0-.39-.12-.39-.45Zm4.54-2.05c.12-1.6,.09-3.2,.18-4.8-.69-.02-1.38-.02-2.08,0,.06,1.6,.06,3.2,.12,4.8h1.78Zm9.36,9.79c0-.14,.03-.28,.06-.42,.12-.97,.24-1.91,.24-2.9h-2.68c-.03,.82-.06,1.63-.06,2.52,0,.33,.03,.54,.03,.7-.06,.28-.18,.33-.45,.35-.39,.05-1.84,0-2.23,0-.51,0-.6,.05-.6-.38,0-.14,.03-.26,.06-.38,.09-.45,.12-.92,.18-1.37,.24-1.77,.33-3.32,.33-5.08,0-1.3-.06-2.57-.12-3.91-.03-.28-.15-1.03-.15-1.22,0-.21,.18-.23,.39-.23,.27,0,.54,.02,.81,.05,.81,.05,1.6,.07,2.41,.07,.69,.02,1.44,0,2.14,0v-1.53c-1.56,.05-3.22,.12-4.54,.19-.39,.02-.81,.12-1.2,.12-.33,0-.27-.28-.3-.47v-1.79c0-.16,.12-.33,.3-.33,.21,0,.48,.02,.69,.02,.45,0,.9,.02,1.35,.02,1.5,0,2.5,0,3.67,.02-.03-.85,0-1.65-.09-2.45-.03-.31-.12-.49-.09-.73,.03-.24,.39-.21,.72-.21,.45-.02,1.56,0,2.05,0,.51,0,.93-.05,.93,.26,0,.17-.03,.45-.06,.61-.09,.68-.18,1.72-.24,2.54,1.2-.02,2.71-.05,4.03-.05,.96,0,1.83-.05,2.53-.07,.63-.02,1.17-.14,1.32-.12,.24,0,.27,.05,.27,.14,0,.14-.09,.38-.18,.8-.12,.63-.27,1.41-.3,1.48-.06,.21-.12,.23-.39,.23-.54,0-1.08-.07-1.62-.09-1.9-.09-3.85-.14-5.75-.14-.03,.49-.03,1.01-.03,1.53,.81,0,1.5-.02,2.32-.02,.66-.02,1.32-.02,1.98-.05,.39,0,.78-.07,1.17-.07,.21,0,.27,.09,.27,.28,0,.59-.12,1.18-.12,1.77,0,1.08-.06,2.17,0,3.23,.06,1.11,.06,2.24,.09,3.34,.03,.92,.15,1.37,.21,2.28,.03,.47,.15,.99,.15,1.46,0,.38-.54,.23-.81,.23-.75,0-1.5,.05-2.26,.05-.21,0-.48-.07-.48-.23,0-.21,.06-.42,.09-.61,.03-.38,.06-.71,.06-1.08,.03-.66,.03-1.16,.03-1.7h-2.62c.03,1.04,.06,1.7,.21,2.73,.03,.19,.06,.4,.06,.59,0,.31-.48,.28-.78,.31h-2.1c-.63,0-.9,0-.9-.31Zm.33-5.2l.03-1.44-2.68,.02c0,.49,0,.97-.03,1.44l2.68-.02Zm.03-3.39v-1.53c-.84,0-1.8,.02-2.68,.02v1.51h2.68Zm5.78,0v-1.53c-.96,0-1.8-.02-2.71-.02v1.55h2.71Zm0,3.39v-1.44h-2.68l.03,1.44h2.65Zm-.96-11.56c0-.19,.27-.47,.39-.61,.54-.61,1.11-1.25,1.6-1.91,.12-.16,.33-.49,.57-.49s.48,.23,.66,.38c.36,.28,1.02,.92,1.5,1.41,.18,.19,.27,.4,.24,.49,0,.23-.18,.31-.45,.38-.84,.28-2.59,.59-3.49,.59-.21,0-1.02,0-1.02-.23Z"/><path class="cls-1" d="M252.2,159.82c-.03-.26,.06-.56,.06-.68,0-2.33-.09-4.66-.27-6.97-.03-.4-.12-.82-.12-1.22,0-.21,.06-.35,.39-.35,.36,0,.72,.02,1.05,.02,.78,0,1.57,.05,2.38,.05,1.02,0,1.74,0,2.74-.05,.18,0,.9-.07,1.05-.07,.33,.02,.27,.35,.27,.56,0,.85-.12,1.67-.18,2.49-.15,2-.21,4-.21,6,0,.33-.03,.66-.57,.66-.63,0-1.23-.05-1.87-.05h-2.74c-.54,0-1.08,.05-1.59,.05-.24,0-.39-.12-.39-.45Zm4.54-2.05c.12-1.6,.09-3.2,.18-4.8-.69-.02-1.38-.02-2.08,0,.06,1.6,.06,3.2,.12,4.8h1.78Zm9.36,9.79c0-.14,.03-.28,.06-.42,.12-.97,.24-1.91,.24-2.9h-2.68c-.03,.82-.06,1.63-.06,2.52,0,.33,.03,.54,.03,.7-.06,.28-.18,.33-.45,.35-.39,.05-1.84,0-2.23,0-.51,0-.6,.05-.6-.38,0-.14,.03-.26,.06-.38,.09-.45,.12-.92,.18-1.37,.24-1.77,.33-3.32,.33-5.08,0-1.3-.06-2.57-.12-3.91-.03-.28-.15-1.03-.15-1.22,0-.21,.18-.23,.39-.23,.27,0,.54,.02,.81,.05,.81,.05,1.6,.07,2.41,.07,.69,.02,1.44,0,2.14,0v-1.53c-1.56,.05-3.22,.12-4.54,.19-.39,.02-.81,.12-1.2,.12-.33,0-.27-.28-.3-.47v-1.79c0-.16,.12-.33,.3-.33,.21,0,.48,.02,.69,.02,.45,0,.9,.02,1.35,.02,1.5,0,2.5,0,3.67,.02-.03-.85,0-1.65-.09-2.45-.03-.31-.12-.49-.09-.73,.03-.24,.39-.21,.72-.21,.45-.02,1.56,0,2.05,0,.51,0,.93-.05,.93,.26,0,.17-.03,.45-.06,.61-.09,.68-.18,1.72-.24,2.54,1.2-.02,2.71-.05,4.03-.05,.96,0,1.83-.05,2.53-.07,.63-.02,1.17-.14,1.32-.12,.24,0,.27,.05,.27,.14,0,.14-.09,.38-.18,.8-.12,.63-.27,1.41-.3,1.48-.06,.21-.12,.23-.39,.23-.54,0-1.08-.07-1.62-.09-1.9-.09-3.85-.14-5.75-.14-.03,.49-.03,1.01-.03,1.53,.81,0,1.5-.02,2.32-.02,.66-.02,1.32-.02,1.98-.05,.39,0,.78-.07,1.17-.07,.21,0,.27,.09,.27,.28,0,.59-.12,1.18-.12,1.77,0,1.08-.06,2.17,0,3.23,.06,1.11,.06,2.24,.09,3.34,.03,.92,.15,1.37,.21,2.28,.03,.47,.15,.99,.15,1.46,0,.38-.54,.23-.81,.23-.75,0-1.5,.05-2.26,.05-.21,0-.48-.07-.48-.23,0-.21,.06-.42,.09-.61,.03-.38,.06-.71,.06-1.08,.03-.66,.03-1.16,.03-1.7h-2.62c.03,1.04,.06,1.7,.21,2.73,.03,.19,.06,.4,.06,.59,0,.31-.48,.28-.78,.31h-2.1c-.63,0-.9,0-.9-.31Zm.33-5.2l.03-1.44-2.68,.02c0,.49,0,.97-.03,1.44l2.68-.02Zm.03-3.39v-1.53c-.84,0-1.8,.02-2.68,.02v1.51h2.68Zm5.78,0v-1.53c-.96,0-1.8-.02-2.71-.02v1.55h2.71Zm0,3.39v-1.44h-2.68l.03,1.44h2.65Zm-.96-11.56c0-.19,.27-.47,.39-.61,.54-.61,1.11-1.25,1.6-1.91,.12-.16,.33-.49,.57-.49s.48,.23,.66,.38c.36,.28,1.02,.92,1.5,1.41,.18,.19,.27,.4,.24,.49,0,.23-.18,.31-.45,.38-.84,.28-2.59,.59-3.49,.59-.21,0-1.02,0-1.02-.23Z"/></g></g></g></g></g></svg>