<?xml version="1.0" encoding="utf-8"?>
<!-- Generator: Adobe Illustrator 27.0.0, SVG Export Plug-In . SVG Version: 6.00 Build 0)  -->
<svg version="1.1" id="_レイヤー_2" xmlns="http://www.w3.org/2000/svg" xmlns:xlink="http://www.w3.org/1999/xlink" x="0px"
	 y="0px" viewBox="0 0 22.5 233" style="enable-background:new 0 0 22.5 233;" xml:space="preserve">
<style type="text/css">
	.st0{fill:#FCD037;}
</style>
<g id="_レイヤー_1-2">
	<g>
		<path class="st0" d="M1.1,80.6c0-0.5,0.3-1,0.6-1.5c0.3-0.3,0.8-1,3.2-3c1.3-1.1,6-4.8,8-5.9c0.2-0.1,0.2-0.1,0.3,0
			c1.1,0.9,3.3,2.8,4.2,3.8c1.5,1.5,2.5,2.7,2.6,4.5c0,0.6,0.2,0.7,0.4,0.7c0.2,0,0.3-0.1,0.3-0.7c0-0.3-0.1-2.2-0.1-4.6
			c0-1.7,0.1-2.1,0.1-3.4c0-0.5-0.1-0.7-0.3-0.7c-0.2,0-0.3,0.3-0.3,0.5c-0.1,0.9-0.3,1.1-0.6,1.1c-0.5,0-1.4-0.6-2-1
			c-2.2-1.7-5-4.1-6.3-5.6H13c2.8,0,4.5,0.1,5.3,0.1c1.1,0.1,1.7,0.3,1.8,1.7c0,0.4,0.1,0.6,0.3,0.6s0.3-0.2,0.3-0.8
			c0-1.2-0.1-5.1-0.1-5.3s0.1-3.5,0.1-4.8c0-0.6-0.1-0.8-0.3-0.8c-0.2,0-0.3,0.2-0.3,0.7c0,1.2-0.4,1.5-1.3,1.6
			c-0.9,0.1-1.7,0.1-5.8,0.1H8.3c-2,0-4.2,0-5.3-0.1c-1.3-0.1-1.8-0.4-1.8-1.6c0-0.1,0-0.1,0-0.2c0-0.1,0-0.2,0-0.3
			c0.2-1.5,0.8-1.9,3.3-3c3.7-1.8,13.3-6.7,13.8-6.9c2.5-1.3,3-1.5,3-2c0-0.4-1-1-3.1-2.1L3.5,34.2c-1.9-1.1-2.3-1.6-2.3-2.5
			c0-0.5-0.1-0.6-0.3-0.6c-0.3,0-0.3,0.4-0.3,0.8c0,1.4,0.1,2.9,0.1,3.5c0,2.2-0.1,2.3-0.1,4c0,0.4,0,0.8,0.3,0.8
			c0.2,0,0.3-0.2,0.3-0.7c0.1-1.4,0.4-1.6,1-1.6c0.4,0,1.1,0.2,1.8,0.5c0.2,0.1,0.2,0.2,0.2,0.3v6.2c0,0.2,0,0.2-0.1,0.2l-2.2,1.2
			c-0.2,0.1-0.5,0-0.5-0.2c0-0.2-0.1-0.5-0.3-0.5s-0.3,0-0.3,0.6c-0.4,6.8-0.1,13.6-0.1,20.3c0,0.6,0.1,0.7,0.3,0.7
			c0.2,0,0.2-0.2,0.3-0.7c0-1.4,0.7-1.6,1.7-1.7c1.1-0.1,4.1-0.1,5.5-0.1h1.8c-0.2,0.1-0.5,0.2-1,0.5c-3.3,1.9-5.5,3.6-6.4,4.5
			C0.8,71.2,0.5,72,0.5,77v3.4c0,0.6,0.1,0.8,0.3,0.8C1,81.2,1.1,81,1.1,80.6L1.1,80.6z M7.2,43.8v-4c0-0.1,0.1-0.1,0.2-0.1l4.2,2
			c0.1,0,0.1,0.1,0.1,0.2l-4.3,2C7.3,43.9,7.2,43.9,7.2,43.8L7.2,43.8z"/>
		<path class="st0" d="M20.7,132c0-1-0.1-3.2-0.1-4c0-0.9,0.1-2.2,0.1-4c0-0.5-0.1-0.7-0.2-0.7c-0.2,0-0.3,0.2-0.4,0.6
			c-0.1,1.7-0.6,1.8-2.2,1.8c-0.9,0-1.2,0-4.9,0h-3c-4.7,0-5.8-0.3-6.7-1.4c-0.6-0.7-0.6-1.6-0.6-2.1c0-1.1,0.3-2.2,1.3-2.9
			c0.9-0.6,2.2-0.9,4.2-0.9H13c4.2,0,4.5,0,5.4,0.1c1.2,0.1,1.6,0.4,1.7,1.5c0,0.3,0,0.6,0.4,0.6c0.2,0,0.2-0.1,0.2-0.7
			c0-1.2-0.1-5.1-0.1-5.4c0-3.3,0-6.6,0-9.9c0-1.7,0.1-2.1,0.1-3.4c0-0.5-0.1-0.7-0.3-0.7c-0.2,0-0.3,0.3-0.3,0.5
			c-0.1,0.9-0.3,1.1-0.6,1.1c-0.5,0-1.4-0.6-2-1c-2.2-1.7-5-4.1-6.3-5.6h1.7c2.8,0,4.5,0.1,5.3,0.1c1.1,0.1,1.7,0.3,1.8,1.7
			c0,0.4,0.1,0.6,0.3,0.6s0.3-0.2,0.3-0.8c0-1.2-0.1-5.1-0.1-5.3s0.1-3.4,0.1-4.8c0-0.6-0.1-0.8-0.3-0.8c-0.2,0-0.3,0.2-0.3,0.7
			c0,1.2-0.4,1.5-1.3,1.6c-0.9,0.1-1.7,0.1-5.8,0.1H8.2c-2,0-4.2-0.1-5.3-0.1c-1.3-0.1-1.8-0.4-1.8-1.6c0-0.4,0-0.6-0.3-0.6
			s-0.3,0.3-0.3,0.7c0,0.9,0.1,4.6,0.1,4.8c0,0.1-0.1,3.2-0.1,5.5c0,0.6,0.1,0.7,0.3,0.7c0.2,0,0.2-0.2,0.3-0.7
			c0-1.4,0.7-1.6,1.7-1.7c1.1-0.1,4.1-0.1,5.4-0.1H10c-0.2,0.1-0.5,0.2-1,0.5c-3.3,1.9-5.5,3.6-6.4,4.5c-1.8,1.6-2.1,2.5-2.1,7.4
			v3.4c0,0.6,0.1,0.8,0.3,0.8c0.2,0,0.2-0.1,0.3-0.6c0-0.5,0.3-1,0.6-1.5c0.3-0.3,0.8-1,3.2-3c1.3-1.1,6-4.8,8-5.9
			c0.2-0.1,0.2-0.1,0.3,0c1.1,0.9,2.9,2.6,3.9,3.5c1,1,2.7,2.6,3,4c0.1,0.8,0,2-0.7,2.6c-0.8,0.7-2.3,0.4-3.3,0.4c-1,0-2.1,0-3.1,0
			H8.5c-3.8,0-5.6,1.3-6.7,2.9c-1.2,1.8-1.7,3.8-1.7,6.9c0,2.1,0.6,4.5,1.8,6c2.1,2.8,5.3,3.1,8.2,3.1H13c3.7,0,4.2,0,5.1,0.1
			c1.6,0.1,1.9,0.3,2,1.5c0,0.5,0.2,0.6,0.4,0.6C20.7,132.8,20.7,132.6,20.7,132L20.7,132z"/>
		<path class="st0" d="M8.3,146.9c-1.3,0-4.2,0-5.4,0.2c-1,0.1-1.7,0.6-1.8,2.3c0,0.5-0.1,0.7-0.3,0.7c-0.2,0-0.3-0.2-0.3-0.8
			c0-2.3,0.1-6.2,0.1-6.3c0-0.2-0.1-4.2-0.1-5.1c0-0.4,0-0.7,0.3-0.7c0.2,0,0.3,0.3,0.3,0.6c0.1,1.5,0.5,1.8,1.9,1.9
			c1.1,0.1,3.3,0.2,5.2,0.2h9.6c0-0.9,0-2.2,0-3.6s-0.3-1.9-1.9-2.4c-0.4-0.1-0.5-0.2-0.5-0.4c0-0.2,0.2-0.3,0.6-0.2
			c1.6,0.2,3.4,0.6,4.5,0.7c0.4,0,0.5,0.1,0.5,0.3c0,0.2,0,0.3-0.1,0.6c-0.2,0.9-0.3,1.7-0.3,3.9v12.2c0,0.7,0,1,0.1,1.6
			c0.1,0.4,0.2,0.7,0.2,0.8c0,0.2-0.2,0.3-0.5,0.3c-0.3,0-2.7-0.2-4.5-0.2c-0.6,0-0.8-0.1-0.8-0.3c0-0.2,0.2-0.3,0.6-0.4
			c1.3-0.1,1.9-0.6,2-1.8c0.1-0.9,0.1-1.9,0.1-4.2L8.3,146.9L8.3,146.9z"/>
		<path class="st0" d="M8.3,173.3c-1.3,0-4.2,0-5.4,0.2c-1,0.1-1.7,0.6-1.8,2.3c0,0.5-0.1,0.7-0.3,0.7c-0.2,0-0.3-0.2-0.3-0.8
			c0-2.3,0.1-6.2,0.1-6.3c0-0.2-0.1-4.2-0.1-5.1c0-0.4,0-0.7,0.3-0.7c0.2,0,0.3,0.3,0.3,0.6c0.1,1.5,0.5,1.8,1.9,1.9
			c1.1,0.1,3.3,0.2,5.2,0.2h9.6c0-0.9,0-2.2,0-3.6s-0.3-1.9-1.9-2.4c-0.4-0.1-0.5-0.2-0.5-0.4c0-0.2,0.2-0.3,0.6-0.2
			c1.6,0.2,3.4,0.6,4.5,0.7c0.4,0,0.5,0.1,0.5,0.3c0,0.2,0,0.4-0.1,0.6c-0.2,0.9-0.3,1.7-0.3,3.9v12.2c0,0.7,0,1,0.1,1.6
			c0.1,0.4,0.2,0.7,0.2,0.8c0,0.2-0.2,0.3-0.5,0.3c-0.3,0-2.7-0.2-4.5-0.2c-0.6,0-0.8-0.1-0.8-0.3c0-0.2,0.2-0.3,0.6-0.4
			c1.3-0.1,1.9-0.6,2-1.8c0.1-0.9,0.1-1.9,0.1-4.2L8.3,173.3L8.3,173.3z"/>
		<path class="st0" d="M13,184c4.5,0,4.9,0,5.6-0.1c1.1-0.1,1.5-0.3,1.5-1.6c0-0.4,0.1-0.7,0.3-0.7c0.2,0,0.3,0.2,0.3,0.7
			c0,2.1-0.1,3.3-0.1,4.8c0,0.5,0,8.7,0,9.1c0,1.2,0.1,1.7,0.2,2c0.1,0.2,0.1,0.4,0.1,0.5s-0.1,0.2-0.2,0.2s-0.7-0.1-1.5-0.2
			c-1-0.1-2.1-0.2-3.5-0.2c-0.4,0-0.6-0.1-0.6-0.3c0-0.2,0.1-0.3,0.6-0.3c1.6-0.1,2.1-0.7,2.2-2.3c0.1-1.1,0.1-4.3,0.1-4.6
			c0-0.2,0-0.2-0.2-0.2H13c-0.2,0-0.3,0.1-0.3,0.2c-0.1,1.1,0,2.8,0,4c0.1,2,0.2,2.5,0.6,2.7c0.3,0.2,0.3,0.3,0.3,0.4
			c0,0.2-0.1,0.2-0.4,0.2c-0.4,0-2.4-0.3-4.2-0.3H8c-0.3,0-0.6-0.1-0.6-0.3s0.2-0.3,0.6-0.4c1-0.1,1.9-0.4,2-2.3
			c0-0.6,0.1-2.9,0.1-4c0-0.1-0.1-0.2-0.2-0.2H8.2c-0.9,0-1.4,0-2.3,0c-2.2,0.1-2.7,0.5-2.7,4.3c0,0.6,0,1.7,0.3,2.5
			c0.4,0.9,1.2,1.2,2.3,1.4c0.2,0,0.5,0.1,0.5,0.4c0,0.2-0.2,0.3-0.5,0.3c-1.2,0-3.7-0.2-4.7-0.5c-0.6-0.2-0.7-0.5-0.7-1.4
			c0-4.1,0.2-6.3,0.2-10.6c0-2.1-0.1-3.1-0.1-4.6c0-0.5,0-0.8,0.3-0.8c0.2,0,0.3,0.2,0.3,0.6c0.1,1.6,0.2,1.6,4.2,1.7
			c1.1,0,2.5,0,2.9,0L13,184L13,184z"/>
		<path class="st0" d="M12.8,203.3c3.9,0,5.1-0.1,5.9-0.1c1.1-0.1,1.3-0.4,1.4-1.7c0-0.5,0.1-0.6,0.3-0.6s0.3,0.2,0.3,0.6
			c0,2.1-0.1,4.1-0.1,4.9c0,0.9,0.1,3.7,0.1,5.4c0,0.6-0.1,0.7-0.3,0.7c-0.1,0-0.3-0.1-0.3-0.7c-0.1-1.2-0.4-1.3-1.7-1.4
			c-0.9-0.1-2.2-0.1-4.9-0.1h-0.6c-0.1,0-0.2,0.1-0.2,0.2v5.8c0,0.1,0,0.2,0.2,0.2h0.6c3.6,0,4.4-0.1,5.3-0.1
			c0.9-0.1,1.3-0.2,1.3-1.2c0-0.5,0.2-0.7,0.3-0.7c0.1,0,0.3,0,0.3,0.7c0,2-0.1,4.7-0.1,4.8c0,0.1,0.1,3.6,0.1,5.2
			c0,0.5-0.1,0.6-0.3,0.6c-0.2,0-0.3-0.1-0.3-0.6c-0.1-1.4-0.7-1.6-1.6-1.7c-0.9-0.1-1.3-0.1-5.5-0.1H8.3c-1.3,0-4.4,0-5.5,0.2
			c-1,0.1-1.6,0.4-1.6,1.8c0,0.3,0,0.6-0.3,0.6c-0.2,0-0.3-0.2-0.3-0.6c0-2.6,0.1-5.6,0.1-5.8c0-0.5-0.1-2.8-0.1-4.6
			c0-0.5,0.1-0.6,0.3-0.6s0.3,0.1,0.3,0.6c0,1,0.4,1.4,1.5,1.4c1.1,0.1,2.4,0.1,5,0.1h1.8c0.1,0,0.2-0.1,0.2-0.2v-5.8
			c0-0.1,0-0.2-0.2-0.2h-3c-1.8,0-3.2,0.1-3.7,0.1c-1,0.1-1.4,0.3-1.5,1.8c0,0.4-0.1,0.6-0.3,0.6c-0.1,0-0.3-0.1-0.3-0.6
			c0-1.8,0.1-5.6,0.1-5.7c0-0.1-0.1-4-0.1-4.8c0-0.4,0.1-0.7,0.3-0.7c0.2,0,0.3,0.2,0.3,0.7c0,1.4,0.5,1.4,1.7,1.6
			c1.1,0.1,2.9,0.2,5.5,0.2L12.8,203.3L12.8,203.3z"/>
		<path class="st0" d="M13.4,30.2c-0.6-0.4-1.1-0.9-1.4-1.6c-0.2-0.5-0.5-1-0.6-1.6c0-0.1-0.1-0.1-0.1-0.1c-0.1,0-0.2,0.1-0.2,0.2
			c-0.1,0.3-0.3,0.5-0.4,0.8c-0.2,0.5-0.4,1-0.8,1.4c-3.1,3.5-8.2,2.5-9.3-2.1c-0.6-2.4-0.3-5.1-0.3-7.5c0-3,0.3-4.9-0.1-8.5
			C0,10.1-0.1,9.5,0.1,8.2c0-0.2,0.2-1,0.4-1C0.7,7.1,0.9,7,1.1,7.3C1.9,8.1,2,9.8,2.8,10.6c1.7,1.7,4.5,1.5,6.8,1.5
			c2.9,0,6.6,0,9.2-1.4c0.6-0.3,0.9-0.9,1.2-1.4c0.4-0.5,0.8-1,1.3-1.4c0.1-0.1,0.1-0.1,0.2-0.1c0.3-0.1,0.5-0.1,0.8,0
			c0.2,0.1,0.1,0.4,0,0.6c-0.2,1.2-0.4,2.3-0.5,3.5c-0.2,2.6-0.2,5.1-0.1,7.7c0.1,3.1,0.3,7.1-2,9.4c-1.4,1.4-3.4,1.9-5.3,1.5
			C14,30.5,13.7,30.4,13.4,30.2L13.4,30.2z M5.5,24c0.4,0.2,0.8,0.4,1.3,0.3c2.6-0.2,3.1-3.4,2.7-5.4c0-0.1-0.1-0.2-0.2-0.2
			c-0.4,0.1-0.8,0-1.2,0c-1.2,0-2.3,0-3.5,0c-0.2,0-0.3,0.1-0.3,0.3c-0.1,1.1-0.2,2.4,0.1,3.4C4.5,23.2,4.9,23.7,5.5,24L5.5,24z
			 M13.6,23.1c0.8,0.7,2.4,0.7,3.2,0.1c1.1-0.8,1.4-2.8,1.2-4c0-0.4-0.1-0.3-0.4-0.3c-0.9,0.1-1.7,0-2.6,0.1c-0.6,0.1-1.3,0-1.9,0
			c-0.3,0-0.3,0.1-0.3,0.3c0.1,1.1-0.3,2.5,0.4,3.5C13.4,22.9,13.5,23,13.6,23.1z"/>
	</g>
</g>
</svg>
